<svg width="1106" height="366" viewBox="0 0 1106 366" fill="none" xmlns="http://www.w3.org/2000/svg">
<g filter="url(#filter0_i)">
<path d="M168.681 72.059C172.698 72.059 176.152 73.505 179.044 76.397C182.097 79.1283 183.623 82.5827 183.623 86.76V226.299C183.623 230.476 182.258 234.011 179.526 236.903C176.795 239.634 173.18 241 168.681 241C164.183 241 160.487 239.634 157.595 236.903C154.864 234.172 153.498 230.637 153.498 226.299V129.176L113.733 189.908C112.127 191.836 110.279 193.443 108.19 194.728C106.102 195.853 103.933 196.335 101.683 196.174C99.5947 196.335 97.506 195.853 95.4173 194.728C93.3287 193.443 91.481 191.836 89.8743 189.908L50.1093 127.007V226.299C50.1093 230.637 48.824 234.172 46.2533 236.903C43.6827 239.634 40.3087 241 36.1313 241C32.1147 241 28.821 239.634 26.2503 236.903C23.6797 234.011 22.3943 230.476 22.3943 226.299V86.76C22.3943 82.7433 23.8403 79.289 26.7323 76.397C29.785 73.505 33.4 72.059 37.5773 72.059C39.9873 72.059 42.3973 72.7017 44.8073 73.987C47.2173 75.1117 49.065 76.638 50.3503 78.566L102.888 159.301L156.872 78.566C158.158 76.638 159.845 75.1117 161.933 73.987C164.183 72.7017 166.432 72.059 168.681 72.059ZM313.121 112.065C317.299 112.065 320.753 113.511 323.484 116.403C326.216 119.134 327.581 122.589 327.581 126.766V229.191C327.581 250.078 321.958 265.261 310.711 274.74C299.465 284.38 284.442 289.2 265.644 289.2C260.182 289.2 254.558 288.718 248.774 287.754C243.151 286.951 238.572 285.826 235.037 284.38C227.165 281.006 223.228 276.347 223.228 270.402C223.228 269.277 223.469 267.992 223.951 266.546C224.915 263.011 226.522 260.28 228.771 258.352C231.181 256.585 233.752 255.701 236.483 255.701C238.09 255.701 239.616 255.942 241.062 256.424C242.187 256.906 244.115 257.709 246.846 258.834C249.738 259.959 252.711 260.842 255.763 261.485C258.977 262.288 262.27 262.69 265.644 262.69C277.052 262.69 285.406 260.2 290.708 255.219C296.171 250.399 298.902 242.044 298.902 230.155V227.745C290.548 238.188 277.534 243.41 259.86 243.41C251.506 243.41 244.115 241.482 237.688 237.626C231.262 233.609 226.281 228.147 222.746 221.238C219.212 214.169 217.444 206.135 217.444 197.138V126.766C217.444 122.589 218.81 119.134 221.541 116.403C224.273 113.511 227.727 112.065 231.904 112.065C236.082 112.065 239.536 113.511 242.267 116.403C244.999 119.134 246.364 122.589 246.364 126.766V188.462C246.364 198.584 248.533 205.894 252.871 210.393C257.37 214.731 263.877 216.9 272.392 216.9C280.747 216.9 287.174 214.49 291.672 209.67C296.332 204.689 298.661 197.62 298.661 188.462V126.766C298.661 122.589 300.027 119.134 302.758 116.403C305.49 113.511 308.944 112.065 313.121 112.065ZM391.426 100.015V142.431H443.482C447.659 142.431 451.113 143.797 453.845 146.528C456.737 149.099 458.183 152.473 458.183 156.65C458.183 160.185 456.737 163.318 453.845 166.049C451.113 168.78 447.659 170.146 443.482 170.146H391.426V226.299C391.426 230.476 389.899 234.011 386.847 236.903C383.955 239.634 380.5 241 376.484 241C371.985 241 368.29 239.634 365.398 236.903C362.666 234.172 361.301 230.637 361.301 226.299V87.001C361.301 82.8237 362.666 79.3693 365.398 76.638C368.29 73.746 371.824 72.3 376.002 72.3H454.327C458.504 72.3 461.958 73.6657 464.69 76.397C467.582 78.9677 469.028 82.3417 469.028 86.519C469.028 90.0537 467.582 93.1867 464.69 95.918C461.958 98.6493 458.504 100.015 454.327 100.015H391.426ZM593.864 109.655C598.041 109.655 601.495 111.021 604.227 113.752C606.958 116.483 608.324 120.018 608.324 124.356V226.299C608.324 230.476 606.958 234.011 604.227 236.903C601.495 239.634 598.041 241 593.864 241C589.686 241 586.232 239.634 583.501 236.903C580.93 234.172 579.564 230.717 579.404 226.54C575.387 231.199 569.924 235.216 563.016 238.59C556.268 241.803 549.118 243.41 541.567 243.41C530.481 243.41 520.439 240.598 511.442 234.975C502.444 229.191 495.295 221.238 489.993 211.116C484.851 200.994 482.281 189.506 482.281 176.653C482.281 163.8 484.851 152.312 489.993 142.19C495.134 131.907 502.123 123.954 510.96 118.331C519.957 112.547 529.838 109.655 540.603 109.655C548.315 109.655 555.545 111.101 562.293 113.993C569.041 116.724 574.744 120.259 579.404 124.597V124.356C579.404 120.179 580.769 116.724 583.501 113.993C586.232 111.101 589.686 109.655 593.864 109.655ZM545.182 216.9C555.625 216.9 564.14 213.124 570.728 205.573C577.315 197.861 580.609 188.221 580.609 176.653C580.609 165.085 577.315 155.445 570.728 147.733C564.14 140.021 555.625 136.165 545.182 136.165C534.899 136.165 526.464 140.021 519.877 147.733C513.289 155.445 509.996 165.085 509.996 176.653C509.996 188.221 513.209 197.861 519.636 205.573C526.223 213.124 534.738 216.9 545.182 216.9ZM788.362 109.655C804.268 109.655 815.274 114.555 821.379 124.356C827.484 133.996 830.537 147.412 830.537 164.603V226.299C830.537 230.476 829.171 234.011 826.44 236.903C823.709 239.634 820.254 241 816.077 241C811.9 241 808.445 239.634 805.714 236.903C802.983 234.011 801.617 230.476 801.617 226.299V164.603C801.617 155.766 799.85 148.858 796.315 143.877C792.941 138.736 786.916 136.165 778.24 136.165C769.243 136.165 762.173 138.896 757.032 144.359C752.051 149.661 749.561 156.409 749.561 164.603V226.299C749.561 230.476 748.195 234.011 745.464 236.903C742.733 239.634 739.278 241 735.101 241C730.924 241 727.469 239.634 724.738 236.903C722.007 234.011 720.641 230.476 720.641 226.299V164.603C720.641 155.766 718.874 148.858 715.339 143.877C711.965 138.736 705.94 136.165 697.264 136.165C688.267 136.165 681.197 138.896 676.056 144.359C671.075 149.661 668.585 156.409 668.585 164.603V226.299C668.585 230.476 667.219 234.011 664.488 236.903C661.757 239.634 658.302 241 654.125 241C649.948 241 646.493 239.634 643.762 236.903C641.031 234.011 639.665 230.476 639.665 226.299V126.766C639.665 122.589 641.031 119.134 643.762 116.403C646.493 113.511 649.948 112.065 654.125 112.065C658.302 112.065 661.757 113.511 664.488 116.403C667.219 119.134 668.585 122.589 668.585 126.766V130.622C672.923 124.838 678.386 119.938 684.973 115.921C691.721 111.744 699.192 109.655 707.386 109.655C727.63 109.655 740.564 118.492 746.187 136.165C749.882 129.417 755.425 123.312 762.816 117.849C770.367 112.386 778.883 109.655 788.362 109.655ZM889.07 226.299C889.07 230.476 887.704 234.011 884.973 236.903C882.242 239.634 878.787 241 874.61 241C870.433 241 866.978 239.634 864.247 236.903C861.516 234.011 860.15 230.476 860.15 226.299V126.766C860.15 122.589 861.516 119.134 864.247 116.403C866.978 113.511 870.433 112.065 874.61 112.065C878.787 112.065 882.242 113.511 884.973 116.403C887.704 119.134 889.07 122.589 889.07 126.766V226.299ZM874.369 96.4C868.906 96.4 865.05 95.5163 862.801 93.749C860.552 91.9817 859.427 88.8487 859.427 84.35V79.771C859.427 75.2723 860.632 72.1393 863.042 70.372C865.452 68.6047 869.308 67.721 874.61 67.721C880.233 67.721 884.17 68.6047 886.419 70.372C888.668 72.1393 889.793 75.2723 889.793 79.771V84.35C889.793 89.0093 888.588 92.2227 886.178 93.99C883.929 95.5967 879.992 96.4 874.369 96.4ZM950.122 226.299C950.122 230.476 948.676 234.011 945.784 236.903C943.053 239.634 939.598 241 935.421 241C931.404 241 928.03 239.634 925.299 236.903C922.568 234.011 921.202 230.476 921.202 226.299V77.361C921.202 73.1837 922.568 69.7293 925.299 66.998C928.191 64.106 931.726 62.66 935.903 62.66C939.92 62.66 943.294 64.106 946.025 66.998C948.756 69.7293 950.122 73.1837 950.122 77.361V226.299ZM1075.9 112.065C1080.07 112.065 1083.53 113.511 1086.26 116.403C1088.99 119.134 1090.36 122.589 1090.36 126.766V229.191C1090.36 250.078 1084.73 265.261 1073.49 274.74C1062.24 284.38 1047.22 289.2 1028.42 289.2C1022.96 289.2 1017.33 288.718 1011.55 287.754C1005.93 286.951 1001.35 285.826 997.812 284.38C989.939 281.006 986.003 276.347 986.003 270.402C986.003 269.277 986.244 267.992 986.726 266.546C987.69 263.011 989.296 260.28 991.546 258.352C993.956 256.585 996.526 255.701 999.258 255.701C1000.86 255.701 1002.39 255.942 1003.84 256.424C1004.96 256.906 1006.89 257.709 1009.62 258.834C1012.51 259.959 1015.49 260.842 1018.54 261.485C1021.75 262.288 1025.04 262.69 1028.42 262.69C1039.83 262.69 1048.18 260.2 1053.48 255.219C1058.95 250.399 1061.68 242.044 1061.68 230.155V227.745C1053.32 238.188 1040.31 243.41 1022.63 243.41C1014.28 243.41 1006.89 241.482 1000.46 237.626C994.036 233.609 989.055 228.147 985.521 221.238C981.986 214.169 980.219 206.135 980.219 197.138V126.766C980.219 122.589 981.584 119.134 984.316 116.403C987.047 113.511 990.501 112.065 994.679 112.065C998.856 112.065 1002.31 113.511 1005.04 116.403C1007.77 119.134 1009.14 122.589 1009.14 126.766V188.462C1009.14 198.584 1011.31 205.894 1015.65 210.393C1020.14 214.731 1026.65 216.9 1035.17 216.9C1043.52 216.9 1049.95 214.49 1054.45 209.67C1059.11 204.689 1061.44 197.62 1061.44 188.462V126.766C1061.44 122.589 1062.8 119.134 1065.53 116.403C1068.26 113.511 1071.72 112.065 1075.9 112.065Z" fill="#93E059"/>
</g>
<path d="M117.45 308.9C117.996 308.9 118.437 309.089 118.773 309.467C119.151 309.803 119.34 310.244 119.34 310.79C119.34 311.294 119.151 311.735 118.773 312.113C118.437 312.449 117.996 312.617 117.45 312.617H96.4711V328.43H114.615C115.161 328.43 115.602 328.598 115.938 328.934C116.316 329.27 116.505 329.711 116.505 330.257C116.505 330.803 116.316 331.244 115.938 331.58C115.602 331.916 115.161 332.084 114.615 332.084H96.4711V351.11C96.4711 351.656 96.2821 352.118 95.9041 352.496C95.5681 352.832 95.1271 353 94.5811 353C93.9931 353 93.5101 352.832 93.1321 352.496C92.7961 352.118 92.6281 351.656 92.6281 351.11V310.79C92.6281 310.244 92.7961 309.803 93.1321 309.467C93.5101 309.089 93.9721 308.9 94.5181 308.9H117.45ZM152.281 320.807C152.827 320.807 153.268 320.996 153.604 321.374C153.982 321.752 154.171 322.214 154.171 322.76V351.11C154.171 351.656 153.982 352.118 153.604 352.496C153.268 352.832 152.827 353 152.281 353C151.735 353 151.273 352.832 150.895 352.496C150.559 352.118 150.391 351.656 150.391 351.11V346.889C149.341 348.779 147.766 350.375 145.666 351.677C143.566 352.979 141.277 353.63 138.799 353.63C135.985 353.63 133.444 352.895 131.176 351.425C128.95 349.955 127.186 347.939 125.884 345.377C124.624 342.815 123.994 339.938 123.994 336.746C123.994 333.554 124.645 330.698 125.947 328.178C127.249 325.616 129.013 323.621 131.239 322.193C133.507 320.765 136.006 320.051 138.736 320.051C141.256 320.051 143.566 320.66 145.666 321.878C147.766 323.096 149.341 324.692 150.391 326.666V322.76C150.391 322.214 150.559 321.752 150.895 321.374C151.273 320.996 151.735 320.807 152.281 320.807ZM139.177 350.102C141.361 350.102 143.314 349.535 145.036 348.401C146.8 347.225 148.165 345.629 149.131 343.613C150.139 341.555 150.643 339.266 150.643 336.746C150.643 334.31 150.139 332.084 149.131 330.068C148.165 328.052 146.8 326.477 145.036 325.343C143.314 324.167 141.361 323.579 139.177 323.579C136.993 323.579 135.019 324.146 133.255 325.28C131.533 326.414 130.168 327.989 129.16 330.005C128.194 331.979 127.711 334.226 127.711 336.746C127.711 339.266 128.194 341.555 129.16 343.613C130.126 345.629 131.47 347.225 133.192 348.401C134.956 349.535 136.951 350.102 139.177 350.102ZM200.575 320.555C204.355 320.555 207.127 321.731 208.891 324.083C210.697 326.393 211.6 329.459 211.6 333.281V351.11C211.6 351.656 211.411 352.118 211.033 352.496C210.697 352.832 210.256 353 209.71 353C209.164 353 208.702 352.832 208.324 352.496C207.988 352.118 207.82 351.656 207.82 351.11V333.47C207.82 330.698 207.148 328.451 205.804 326.729C204.502 324.965 202.465 324.083 199.693 324.083C197.929 324.083 196.249 324.503 194.653 325.343C193.099 326.183 191.839 327.338 190.873 328.808C189.907 330.236 189.424 331.79 189.424 333.47V351.11C189.424 351.656 189.235 352.118 188.857 352.496C188.521 352.832 188.08 353 187.534 353C186.988 353 186.526 352.832 186.148 352.496C185.812 352.118 185.644 351.656 185.644 351.11V333.281C185.644 330.551 185.014 328.346 183.754 326.666C182.494 324.944 180.52 324.083 177.832 324.083C176.11 324.083 174.472 324.503 172.918 325.343C171.406 326.183 170.167 327.317 169.201 328.745C168.277 330.131 167.815 331.643 167.815 333.281V351.11C167.815 351.656 167.626 352.118 167.248 352.496C166.912 352.832 166.471 353 165.925 353C165.379 353 164.917 352.832 164.539 352.496C164.203 352.118 164.035 351.656 164.035 351.11V322.886C164.035 322.34 164.203 321.899 164.539 321.563C164.917 321.185 165.379 320.996 165.925 320.996C166.471 320.996 166.912 321.185 167.248 321.563C167.626 321.899 167.815 322.34 167.815 322.886V326.54C168.949 324.818 170.482 323.39 172.414 322.256C174.346 321.122 176.383 320.555 178.525 320.555C180.961 320.555 183.061 321.143 184.825 322.319C186.589 323.495 187.849 325.217 188.605 327.485C189.487 325.637 191.104 324.02 193.456 322.634C195.808 321.248 198.181 320.555 200.575 320.555ZM225.152 351.11C225.152 351.656 224.963 352.118 224.585 352.496C224.249 352.832 223.808 353 223.262 353C222.716 353 222.254 352.832 221.876 352.496C221.54 352.118 221.372 351.656 221.372 351.11V322.13C221.372 321.584 221.54 321.143 221.876 320.807C222.254 320.429 222.716 320.24 223.262 320.24C223.808 320.24 224.249 320.429 224.585 320.807C224.963 321.143 225.152 321.584 225.152 322.13V351.11ZM222.506 318.287C222.254 318.287 222.023 318.182 221.813 317.972C221.603 317.72 221.498 317.447 221.498 317.153C221.498 316.901 221.603 316.607 221.813 316.271L225.656 310.286C226.16 309.362 226.874 308.9 227.798 308.9C228.428 308.9 228.932 309.068 229.31 309.404C229.688 309.74 229.856 310.223 229.814 310.853C229.814 311.315 229.604 311.798 229.184 312.302L224.459 317.279C223.787 317.951 223.136 318.287 222.506 318.287ZM239.129 351.11C239.129 351.656 238.94 352.118 238.562 352.496C238.226 352.832 237.785 353 237.239 353C236.693 353 236.231 352.832 235.853 352.496C235.517 352.118 235.349 351.656 235.349 351.11V308.27C235.349 307.724 235.517 307.283 235.853 306.947C236.231 306.569 236.693 306.38 237.239 306.38C237.785 306.38 238.226 306.569 238.562 306.947C238.94 307.283 239.129 307.724 239.129 308.27V351.11ZM253.145 351.11C253.145 351.656 252.956 352.118 252.578 352.496C252.242 352.832 251.801 353 251.255 353C250.709 353 250.247 352.832 249.869 352.496C249.533 352.118 249.365 351.656 249.365 351.11V322.13C249.365 321.584 249.533 321.143 249.869 320.807C250.247 320.429 250.709 320.24 251.255 320.24C251.801 320.24 252.242 320.429 252.578 320.807C252.956 321.143 253.145 321.584 253.145 322.13V351.11ZM251.255 316.019C250.415 316.019 249.764 315.83 249.302 315.452C248.84 315.032 248.609 314.444 248.609 313.688V313.058C248.609 312.302 248.84 311.735 249.302 311.357C249.806 310.937 250.478 310.727 251.318 310.727C252.998 310.727 253.838 311.504 253.838 313.058V313.688C253.838 314.444 253.607 315.032 253.145 315.452C252.725 315.83 252.095 316.019 251.255 316.019ZM289.109 320.807C289.655 320.807 290.096 320.996 290.432 321.374C290.81 321.752 290.999 322.214 290.999 322.76V351.11C290.999 351.656 290.81 352.118 290.432 352.496C290.096 352.832 289.655 353 289.109 353C288.563 353 288.101 352.832 287.723 352.496C287.387 352.118 287.219 351.656 287.219 351.11V346.889C286.169 348.779 284.594 350.375 282.494 351.677C280.394 352.979 278.105 353.63 275.627 353.63C272.813 353.63 270.272 352.895 268.004 351.425C265.778 349.955 264.014 347.939 262.712 345.377C261.452 342.815 260.822 339.938 260.822 336.746C260.822 333.554 261.473 330.698 262.775 328.178C264.077 325.616 265.841 323.621 268.067 322.193C270.335 320.765 272.834 320.051 275.564 320.051C278.084 320.051 280.394 320.66 282.494 321.878C284.594 323.096 286.169 324.692 287.219 326.666V322.76C287.219 322.214 287.387 321.752 287.723 321.374C288.101 320.996 288.563 320.807 289.109 320.807ZM276.005 350.102C278.189 350.102 280.142 349.535 281.864 348.401C283.628 347.225 284.993 345.629 285.959 343.613C286.967 341.555 287.471 339.266 287.471 336.746C287.471 334.31 286.967 332.084 285.959 330.068C284.993 328.052 283.628 326.477 281.864 325.343C280.142 324.167 278.189 323.579 276.005 323.579C273.821 323.579 271.847 324.146 270.083 325.28C268.361 326.414 266.996 327.989 265.988 330.005C265.022 331.979 264.539 334.226 264.539 336.746C264.539 339.266 265.022 341.555 265.988 343.613C266.954 345.629 268.298 347.225 270.02 348.401C271.784 349.535 273.779 350.102 276.005 350.102ZM333.398 320.555C336.17 320.555 338.69 321.269 340.958 322.697C343.226 324.083 344.99 326.036 346.25 328.556C347.552 331.034 348.203 333.827 348.203 336.935C348.203 340.085 347.552 342.92 346.25 345.44C344.99 347.918 343.226 349.871 340.958 351.299C338.732 352.727 336.233 353.441 333.461 353.441C331.025 353.441 328.778 352.874 326.72 351.74C324.704 350.564 323.087 349.01 321.869 347.078V363.71C321.869 364.256 321.68 364.697 321.302 365.033C320.966 365.411 320.525 365.6 319.979 365.6C319.433 365.6 318.971 365.411 318.593 365.033C318.257 364.697 318.089 364.256 318.089 363.71V322.634C318.089 322.088 318.257 321.626 318.593 321.248C318.971 320.87 319.433 320.681 319.979 320.681C320.525 320.681 320.966 320.87 321.302 321.248C321.68 321.626 321.869 322.088 321.869 322.634V326.918C322.961 324.944 324.536 323.39 326.594 322.256C328.652 321.122 330.92 320.555 333.398 320.555ZM333.083 349.913C335.267 349.913 337.22 349.367 338.942 348.275C340.706 347.141 342.071 345.587 343.037 343.613C344.045 341.639 344.549 339.413 344.549 336.935C344.549 334.499 344.045 332.315 343.037 330.383C342.071 328.409 340.706 326.876 338.942 325.784C337.22 324.65 335.267 324.083 333.083 324.083C330.857 324.083 328.862 324.629 327.098 325.721C325.334 326.813 323.969 328.346 323.003 330.32C322.037 332.252 321.554 334.457 321.554 336.935C321.554 339.413 322.037 341.639 323.003 343.613C323.969 345.587 325.334 347.141 327.098 348.275C328.862 349.367 330.857 349.913 333.083 349.913ZM385.724 336.872C385.724 340.022 385.031 342.878 383.645 345.44C382.259 348.002 380.348 350.018 377.912 351.488C375.476 352.916 372.767 353.63 369.785 353.63C366.803 353.63 364.094 352.916 361.658 351.488C359.222 350.018 357.311 348.002 355.925 345.44C354.539 342.878 353.846 340.022 353.846 336.872C353.846 333.722 354.539 330.866 355.925 328.304C357.311 325.742 359.222 323.726 361.658 322.256C364.094 320.786 366.803 320.051 369.785 320.051C372.767 320.051 375.476 320.786 377.912 322.256C380.348 323.726 382.259 325.742 383.645 328.304C385.031 330.866 385.724 333.722 385.724 336.872ZM381.944 336.872C381.944 334.352 381.419 332.084 380.369 330.068C379.319 328.052 377.849 326.477 375.959 325.343C374.111 324.167 372.053 323.579 369.785 323.579C367.517 323.579 365.459 324.167 363.611 325.343C361.763 326.477 360.293 328.052 359.201 330.068C358.151 332.084 357.626 334.352 357.626 336.872C357.626 339.35 358.151 341.597 359.201 343.613C360.293 345.629 361.763 347.225 363.611 348.401C365.459 349.535 367.517 350.102 369.785 350.102C372.053 350.102 374.111 349.535 375.959 348.401C377.849 347.267 379.319 345.692 380.369 343.676C381.419 341.66 381.944 339.392 381.944 336.872ZM408.513 320.051C409.353 320.051 410.109 320.219 410.781 320.555C411.453 320.891 411.789 321.395 411.789 322.067C411.789 322.655 411.621 323.138 411.285 323.516C410.949 323.852 410.55 324.02 410.088 324.02C409.878 324.02 409.458 323.915 408.828 323.705C408.24 323.495 407.673 323.39 407.127 323.39C405.573 323.39 404.019 323.999 402.465 325.217C400.953 326.393 399.693 327.926 398.685 329.816C397.719 331.706 397.236 333.617 397.236 335.549V351.11C397.236 351.656 397.047 352.118 396.669 352.496C396.333 352.832 395.892 353 395.346 353C394.8 353 394.338 352.832 393.96 352.496C393.624 352.118 393.456 351.656 393.456 351.11V322.886C393.456 322.34 393.624 321.899 393.96 321.563C394.338 321.185 394.8 320.996 395.346 320.996C395.892 320.996 396.333 321.185 396.669 321.563C397.047 321.899 397.236 322.34 397.236 322.886V328.43C398.202 326.036 399.651 324.062 401.583 322.508C403.557 320.912 405.867 320.093 408.513 320.051ZM441.222 324.461V345.566C441.222 347.162 441.516 348.254 442.104 348.842C442.692 349.388 443.469 349.661 444.435 349.661C444.687 349.661 445.002 349.619 445.38 349.535C445.758 349.409 446.052 349.346 446.262 349.346C446.64 349.346 446.955 349.514 447.207 349.85C447.501 350.144 447.648 350.501 447.648 350.921C447.648 351.509 447.312 352.013 446.64 352.433C445.968 352.811 445.17 353 444.246 353C443.112 353 442.104 352.895 441.222 352.685C440.34 352.475 439.479 351.845 438.639 350.795C437.841 349.745 437.442 348.065 437.442 345.755V324.461H432.843C432.339 324.461 431.898 324.293 431.52 323.957C431.184 323.621 431.016 323.201 431.016 322.697C431.016 322.193 431.184 321.773 431.52 321.437C431.898 321.101 432.339 320.933 432.843 320.933H437.442V313.94C437.442 313.394 437.61 312.953 437.946 312.617C438.324 312.239 438.786 312.05 439.332 312.05C439.878 312.05 440.319 312.239 440.655 312.617C441.033 312.953 441.222 313.394 441.222 313.94V320.933H447.522C447.984 320.933 448.383 321.122 448.719 321.5C449.097 321.878 449.286 322.298 449.286 322.76C449.286 323.264 449.118 323.684 448.782 324.02C448.446 324.314 448.026 324.461 447.522 324.461H441.222ZM485.699 336.872C485.699 340.022 485.006 342.878 483.62 345.44C482.234 348.002 480.323 350.018 477.887 351.488C475.451 352.916 472.742 353.63 469.76 353.63C466.778 353.63 464.069 352.916 461.633 351.488C459.197 350.018 457.286 348.002 455.9 345.44C454.514 342.878 453.821 340.022 453.821 336.872C453.821 333.722 454.514 330.866 455.9 328.304C457.286 325.742 459.197 323.726 461.633 322.256C464.069 320.786 466.778 320.051 469.76 320.051C472.742 320.051 475.451 320.786 477.887 322.256C480.323 323.726 482.234 325.742 483.62 328.304C485.006 330.866 485.699 333.722 485.699 336.872ZM481.919 336.872C481.919 334.352 481.394 332.084 480.344 330.068C479.294 328.052 477.824 326.477 475.934 325.343C474.086 324.167 472.028 323.579 469.76 323.579C467.492 323.579 465.434 324.167 463.586 325.343C461.738 326.477 460.268 328.052 459.176 330.068C458.126 332.084 457.601 334.352 457.601 336.872C457.601 339.35 458.126 341.597 459.176 343.613C460.268 345.629 461.738 347.225 463.586 348.401C465.434 349.535 467.492 350.102 469.76 350.102C472.028 350.102 474.086 349.535 475.934 348.401C477.824 347.267 479.294 345.692 480.344 343.676C481.394 341.66 481.919 339.392 481.919 336.872ZM519.576 306.38C520.122 306.38 520.563 306.569 520.899 306.947C521.277 307.283 521.466 307.724 521.466 308.27V351.11C521.466 351.656 521.277 352.118 520.899 352.496C520.563 352.832 520.122 353 519.576 353C519.03 353 518.568 352.832 518.19 352.496C517.854 352.118 517.686 351.656 517.686 351.11V346.7C516.636 348.632 515.061 350.27 512.961 351.614C510.903 352.958 508.614 353.63 506.094 353.63C503.322 353.63 500.802 352.916 498.534 351.488C496.308 350.018 494.544 348.002 493.242 345.44C491.94 342.878 491.289 340.001 491.289 336.809C491.289 333.659 491.94 330.803 493.242 328.241C494.544 325.679 496.308 323.684 498.534 322.256C500.802 320.786 503.301 320.051 506.031 320.051C508.509 320.051 510.798 320.681 512.898 321.941C514.998 323.159 516.594 324.755 517.686 326.729V308.27C517.686 307.724 517.854 307.283 518.19 306.947C518.568 306.569 519.03 306.38 519.576 306.38ZM506.472 350.102C508.656 350.102 510.609 349.535 512.331 348.401C514.095 347.267 515.46 345.692 516.426 343.676C517.434 341.618 517.938 339.329 517.938 336.809C517.938 334.331 517.434 332.084 516.426 330.068C515.46 328.052 514.095 326.477 512.331 325.343C510.609 324.167 508.656 323.579 506.472 323.579C504.288 323.579 502.314 324.167 500.55 325.343C498.828 326.477 497.463 328.052 496.455 330.068C495.489 332.084 495.006 334.331 495.006 336.809C495.006 339.329 495.489 341.597 496.455 343.613C497.463 345.629 498.828 347.225 500.55 348.401C502.314 349.535 504.288 350.102 506.472 350.102ZM561.066 336.872C561.066 340.022 560.373 342.878 558.987 345.44C557.601 348.002 555.69 350.018 553.254 351.488C550.818 352.916 548.109 353.63 545.127 353.63C542.145 353.63 539.436 352.916 537 351.488C534.564 350.018 532.653 348.002 531.267 345.44C529.881 342.878 529.188 340.022 529.188 336.872C529.188 333.722 529.881 330.866 531.267 328.304C532.653 325.742 534.564 323.726 537 322.256C539.436 320.786 542.145 320.051 545.127 320.051C548.109 320.051 550.818 320.786 553.254 322.256C555.69 323.726 557.601 325.742 558.987 328.304C560.373 330.866 561.066 333.722 561.066 336.872ZM557.286 336.872C557.286 334.352 556.761 332.084 555.711 330.068C554.661 328.052 553.191 326.477 551.301 325.343C549.453 324.167 547.395 323.579 545.127 323.579C542.859 323.579 540.801 324.167 538.953 325.343C537.105 326.477 535.635 328.052 534.543 330.068C533.493 332.084 532.968 334.352 532.968 336.872C532.968 339.35 533.493 341.597 534.543 343.613C535.635 345.629 537.105 347.225 538.953 348.401C540.801 349.535 542.859 350.102 545.127 350.102C547.395 350.102 549.453 349.535 551.301 348.401C553.191 347.267 554.661 345.692 555.711 343.676C556.761 341.66 557.286 339.392 557.286 336.872ZM566.97 347.897C566.634 347.351 566.466 346.889 566.466 346.511C566.466 345.965 566.739 345.545 567.285 345.251C567.537 344.999 567.873 344.873 568.293 344.873C568.797 344.873 569.259 345.083 569.679 345.503C572.157 348.779 575.454 350.417 579.57 350.417C581.586 350.417 583.329 349.955 584.799 349.031C586.311 348.065 587.067 346.679 587.067 344.873C587.067 343.109 586.374 341.786 584.988 340.904C583.602 340.022 581.67 339.266 579.192 338.636C575.706 337.754 572.976 336.62 571.002 335.234C569.028 333.806 568.041 331.727 568.041 328.997C568.041 327.275 568.524 325.742 569.49 324.398C570.456 323.012 571.758 321.941 573.396 321.185C575.076 320.429 576.966 320.051 579.066 320.051C580.872 320.051 582.678 320.408 584.484 321.122C586.332 321.794 587.907 322.886 589.209 324.398C589.587 324.692 589.776 325.112 589.776 325.658C589.776 326.162 589.566 326.603 589.146 326.981C588.852 327.233 588.474 327.359 588.012 327.359C587.592 327.359 587.214 327.191 586.878 326.855C585.87 325.721 584.673 324.86 583.287 324.272C581.901 323.684 580.41 323.39 578.814 323.39C576.84 323.39 575.139 323.852 573.711 324.776C572.325 325.7 571.632 327.086 571.632 328.934C571.716 330.614 572.472 331.895 573.9 332.777C575.37 333.659 577.512 334.457 580.326 335.171C582.51 335.717 584.316 336.326 585.744 336.998C587.172 337.67 588.327 338.615 589.209 339.833C590.133 341.051 590.595 342.668 590.595 344.684C590.595 347.414 589.503 349.598 587.319 351.236C585.135 352.832 582.426 353.63 579.192 353.63C574.068 353.63 569.994 351.719 566.97 347.897ZM603.18 352.811C603.18 353.987 602.865 355.163 602.235 356.339C601.647 357.557 600.891 358.544 599.967 359.3C599.043 360.098 598.14 360.497 597.258 360.497C596.796 360.497 596.397 360.371 596.061 360.119C595.767 359.909 595.62 359.573 595.62 359.111C595.62 358.691 595.725 358.397 595.935 358.229C596.145 358.061 596.46 357.914 596.88 357.788C597.342 357.662 597.678 357.536 597.888 357.41C598.476 357.116 598.917 356.675 599.211 356.087C599.547 355.541 599.715 354.932 599.715 354.26C599.715 353.798 599.589 353.42 599.337 353.126C599.085 352.832 598.749 352.685 598.329 352.685C597.657 352.685 597.09 352.874 596.628 353.252C596.124 352.832 595.872 352.328 595.872 351.74C595.872 350.984 596.25 350.333 597.006 349.787C597.762 349.199 598.581 348.905 599.463 348.905C600.555 348.905 601.437 349.262 602.109 349.976C602.823 350.648 603.18 351.593 603.18 352.811ZM634.098 324.461V345.566C634.098 347.162 634.392 348.254 634.98 348.842C635.568 349.388 636.345 349.661 637.311 349.661C637.563 349.661 637.878 349.619 638.256 349.535C638.634 349.409 638.928 349.346 639.138 349.346C639.516 349.346 639.831 349.514 640.083 349.85C640.377 350.144 640.524 350.501 640.524 350.921C640.524 351.509 640.188 352.013 639.516 352.433C638.844 352.811 638.046 353 637.122 353C635.988 353 634.98 352.895 634.098 352.685C633.216 352.475 632.355 351.845 631.515 350.795C630.717 349.745 630.318 348.065 630.318 345.755V324.461H625.719C625.215 324.461 624.774 324.293 624.396 323.957C624.06 323.621 623.892 323.201 623.892 322.697C623.892 322.193 624.06 321.773 624.396 321.437C624.774 321.101 625.215 320.933 625.719 320.933H630.318V313.94C630.318 313.394 630.486 312.953 630.822 312.617C631.2 312.239 631.662 312.05 632.208 312.05C632.754 312.05 633.195 312.239 633.531 312.617C633.909 312.953 634.098 313.394 634.098 313.94V320.933H640.398C640.86 320.933 641.259 321.122 641.595 321.5C641.973 321.878 642.162 322.298 642.162 322.76C642.162 323.264 641.994 323.684 641.658 324.02C641.322 324.314 640.902 324.461 640.398 324.461H634.098ZM678.575 336.872C678.575 340.022 677.882 342.878 676.496 345.44C675.11 348.002 673.199 350.018 670.763 351.488C668.327 352.916 665.618 353.63 662.636 353.63C659.654 353.63 656.945 352.916 654.509 351.488C652.073 350.018 650.162 348.002 648.776 345.44C647.39 342.878 646.697 340.022 646.697 336.872C646.697 333.722 647.39 330.866 648.776 328.304C650.162 325.742 652.073 323.726 654.509 322.256C656.945 320.786 659.654 320.051 662.636 320.051C665.618 320.051 668.327 320.786 670.763 322.256C673.199 323.726 675.11 325.742 676.496 328.304C677.882 330.866 678.575 333.722 678.575 336.872ZM674.795 336.872C674.795 334.352 674.27 332.084 673.22 330.068C672.17 328.052 670.7 326.477 668.81 325.343C666.962 324.167 664.904 323.579 662.636 323.579C660.368 323.579 658.31 324.167 656.462 325.343C654.614 326.477 653.144 328.052 652.052 330.068C651.002 332.084 650.477 334.352 650.477 336.872C650.477 339.35 651.002 341.597 652.052 343.613C653.144 345.629 654.614 347.225 656.462 348.401C658.31 349.535 660.368 350.102 662.636 350.102C664.904 350.102 666.962 349.535 668.81 348.401C670.7 347.267 672.17 345.692 673.22 343.676C674.27 341.66 674.795 339.392 674.795 336.872ZM712.452 306.38C712.998 306.38 713.439 306.569 713.775 306.947C714.153 307.283 714.342 307.724 714.342 308.27V351.11C714.342 351.656 714.153 352.118 713.775 352.496C713.439 352.832 712.998 353 712.452 353C711.906 353 711.444 352.832 711.066 352.496C710.73 352.118 710.562 351.656 710.562 351.11V346.7C709.512 348.632 707.937 350.27 705.837 351.614C703.779 352.958 701.49 353.63 698.97 353.63C696.198 353.63 693.678 352.916 691.41 351.488C689.184 350.018 687.42 348.002 686.118 345.44C684.816 342.878 684.165 340.001 684.165 336.809C684.165 333.659 684.816 330.803 686.118 328.241C687.42 325.679 689.184 323.684 691.41 322.256C693.678 320.786 696.177 320.051 698.907 320.051C701.385 320.051 703.674 320.681 705.774 321.941C707.874 323.159 709.47 324.755 710.562 326.729V308.27C710.562 307.724 710.73 307.283 711.066 306.947C711.444 306.569 711.906 306.38 712.452 306.38ZM699.348 350.102C701.532 350.102 703.485 349.535 705.207 348.401C706.971 347.267 708.336 345.692 709.302 343.676C710.31 341.618 710.814 339.329 710.814 336.809C710.814 334.331 710.31 332.084 709.302 330.068C708.336 328.052 706.971 326.477 705.207 325.343C703.485 324.167 701.532 323.579 699.348 323.579C697.164 323.579 695.19 324.167 693.426 325.343C691.704 326.477 690.339 328.052 689.331 330.068C688.365 332.084 687.882 334.331 687.882 336.809C687.882 339.329 688.365 341.597 689.331 343.613C690.339 345.629 691.704 347.225 693.426 348.401C695.19 349.535 697.164 350.102 699.348 350.102ZM753.942 336.872C753.942 340.022 753.249 342.878 751.863 345.44C750.477 348.002 748.566 350.018 746.13 351.488C743.694 352.916 740.985 353.63 738.003 353.63C735.021 353.63 732.312 352.916 729.876 351.488C727.44 350.018 725.529 348.002 724.143 345.44C722.757 342.878 722.064 340.022 722.064 336.872C722.064 333.722 722.757 330.866 724.143 328.304C725.529 325.742 727.44 323.726 729.876 322.256C732.312 320.786 735.021 320.051 738.003 320.051C740.985 320.051 743.694 320.786 746.13 322.256C748.566 323.726 750.477 325.742 751.863 328.304C753.249 330.866 753.942 333.722 753.942 336.872ZM750.162 336.872C750.162 334.352 749.637 332.084 748.587 330.068C747.537 328.052 746.067 326.477 744.177 325.343C742.329 324.167 740.271 323.579 738.003 323.579C735.735 323.579 733.677 324.167 731.829 325.343C729.981 326.477 728.511 328.052 727.419 330.068C726.369 332.084 725.844 334.352 725.844 336.872C725.844 339.35 726.369 341.597 727.419 343.613C728.511 345.629 729.981 347.225 731.829 348.401C733.677 349.535 735.735 350.102 738.003 350.102C740.271 350.102 742.329 349.535 744.177 348.401C746.067 347.267 747.537 345.692 748.587 343.676C749.637 341.66 750.162 339.392 750.162 336.872ZM759.846 347.897C759.51 347.351 759.342 346.889 759.342 346.511C759.342 345.965 759.615 345.545 760.161 345.251C760.413 344.999 760.749 344.873 761.169 344.873C761.673 344.873 762.135 345.083 762.555 345.503C765.033 348.779 768.33 350.417 772.446 350.417C774.462 350.417 776.205 349.955 777.675 349.031C779.187 348.065 779.943 346.679 779.943 344.873C779.943 343.109 779.25 341.786 777.864 340.904C776.478 340.022 774.546 339.266 772.068 338.636C768.582 337.754 765.852 336.62 763.878 335.234C761.904 333.806 760.917 331.727 760.917 328.997C760.917 327.275 761.4 325.742 762.366 324.398C763.332 323.012 764.634 321.941 766.272 321.185C767.952 320.429 769.842 320.051 771.942 320.051C773.748 320.051 775.554 320.408 777.36 321.122C779.208 321.794 780.783 322.886 782.085 324.398C782.463 324.692 782.652 325.112 782.652 325.658C782.652 326.162 782.442 326.603 782.022 326.981C781.728 327.233 781.35 327.359 780.888 327.359C780.468 327.359 780.09 327.191 779.754 326.855C778.746 325.721 777.549 324.86 776.163 324.272C774.777 323.684 773.286 323.39 771.69 323.39C769.716 323.39 768.015 323.852 766.587 324.776C765.201 325.7 764.508 327.086 764.508 328.934C764.592 330.614 765.348 331.895 766.776 332.777C768.246 333.659 770.388 334.457 773.202 335.171C775.386 335.717 777.192 336.326 778.62 336.998C780.048 337.67 781.203 338.615 782.085 339.833C783.009 341.051 783.471 342.668 783.471 344.684C783.471 347.414 782.379 349.598 780.195 351.236C778.011 352.832 775.302 353.63 772.068 353.63C766.944 353.63 762.87 351.719 759.846 347.897ZM823.74 320.555C826.512 320.555 829.032 321.269 831.3 322.697C833.568 324.083 835.332 326.036 836.592 328.556C837.894 331.034 838.545 333.827 838.545 336.935C838.545 340.085 837.894 342.92 836.592 345.44C835.332 347.918 833.568 349.871 831.3 351.299C829.074 352.727 826.575 353.441 823.803 353.441C821.367 353.441 819.12 352.874 817.062 351.74C815.046 350.564 813.429 349.01 812.211 347.078V363.71C812.211 364.256 812.022 364.697 811.644 365.033C811.308 365.411 810.867 365.6 810.321 365.6C809.775 365.6 809.313 365.411 808.935 365.033C808.599 364.697 808.431 364.256 808.431 363.71V322.634C808.431 322.088 808.599 321.626 808.935 321.248C809.313 320.87 809.775 320.681 810.321 320.681C810.867 320.681 811.308 320.87 811.644 321.248C812.022 321.626 812.211 322.088 812.211 322.634V326.918C813.303 324.944 814.878 323.39 816.936 322.256C818.994 321.122 821.262 320.555 823.74 320.555ZM823.425 349.913C825.609 349.913 827.562 349.367 829.284 348.275C831.048 347.141 832.413 345.587 833.379 343.613C834.387 341.639 834.891 339.413 834.891 336.935C834.891 334.499 834.387 332.315 833.379 330.383C832.413 328.409 831.048 326.876 829.284 325.784C827.562 324.65 825.609 324.083 823.425 324.083C821.199 324.083 819.204 324.629 817.44 325.721C815.676 326.813 814.311 328.346 813.345 330.32C812.379 332.252 811.896 334.457 811.896 336.935C811.896 339.413 812.379 341.639 813.345 343.613C814.311 345.587 815.676 347.141 817.44 348.275C819.204 349.367 821.199 349.913 823.425 349.913ZM876.066 336.872C876.066 340.022 875.373 342.878 873.987 345.44C872.601 348.002 870.69 350.018 868.254 351.488C865.818 352.916 863.109 353.63 860.127 353.63C857.145 353.63 854.436 352.916 852 351.488C849.564 350.018 847.653 348.002 846.267 345.44C844.881 342.878 844.188 340.022 844.188 336.872C844.188 333.722 844.881 330.866 846.267 328.304C847.653 325.742 849.564 323.726 852 322.256C854.436 320.786 857.145 320.051 860.127 320.051C863.109 320.051 865.818 320.786 868.254 322.256C870.69 323.726 872.601 325.742 873.987 328.304C875.373 330.866 876.066 333.722 876.066 336.872ZM872.286 336.872C872.286 334.352 871.761 332.084 870.711 330.068C869.661 328.052 868.191 326.477 866.301 325.343C864.453 324.167 862.395 323.579 860.127 323.579C857.859 323.579 855.801 324.167 853.953 325.343C852.105 326.477 850.635 328.052 849.543 330.068C848.493 332.084 847.968 334.352 847.968 336.872C847.968 339.35 848.493 341.597 849.543 343.613C850.635 345.629 852.105 347.225 853.953 348.401C855.801 349.535 857.859 350.102 860.127 350.102C862.395 350.102 864.453 349.535 866.301 348.401C868.191 347.267 869.661 345.692 870.711 343.676C871.761 341.66 872.286 339.392 872.286 336.872ZM898.854 320.051C899.694 320.051 900.45 320.219 901.122 320.555C901.794 320.891 902.13 321.395 902.13 322.067C902.13 322.655 901.962 323.138 901.626 323.516C901.29 323.852 900.891 324.02 900.429 324.02C900.219 324.02 899.799 323.915 899.169 323.705C898.581 323.495 898.014 323.39 897.468 323.39C895.914 323.39 894.36 323.999 892.806 325.217C891.294 326.393 890.034 327.926 889.026 329.816C888.06 331.706 887.577 333.617 887.577 335.549V351.11C887.577 351.656 887.388 352.118 887.01 352.496C886.674 352.832 886.233 353 885.687 353C885.141 353 884.679 352.832 884.301 352.496C883.965 352.118 883.797 351.656 883.797 351.11V322.886C883.797 322.34 883.965 321.899 884.301 321.563C884.679 321.185 885.141 320.996 885.687 320.996C886.233 320.996 886.674 321.185 887.01 321.563C887.388 321.899 887.577 322.34 887.577 322.886V328.43C888.543 326.036 889.992 324.062 891.924 322.508C893.898 320.912 896.208 320.093 898.854 320.051ZM949.33 320.996C949.876 320.996 950.317 321.185 950.653 321.563C951.031 321.899 951.22 322.34 951.22 322.886V340.652C951.22 344.768 950.065 347.939 947.755 350.165C945.445 352.349 942.253 353.441 938.179 353.441C934.147 353.441 930.976 352.349 928.666 350.165C926.398 347.939 925.264 344.768 925.264 340.652V322.886C925.264 322.34 925.432 321.899 925.768 321.563C926.146 321.185 926.608 320.996 927.154 320.996C927.7 320.996 928.141 321.185 928.477 321.563C928.855 321.899 929.044 322.34 929.044 322.886V340.652C929.044 343.676 929.842 345.986 931.438 347.582C933.034 349.136 935.281 349.913 938.179 349.913C941.119 349.913 943.387 349.136 944.983 347.582C946.621 345.986 947.44 343.676 947.44 340.652V322.886C947.44 322.34 947.608 321.899 947.944 321.563C948.322 321.185 948.784 320.996 949.33 320.996ZM997.672 320.555C1001.45 320.555 1004.22 321.731 1005.99 324.083C1007.79 326.393 1008.7 329.459 1008.7 333.281V351.11C1008.7 351.656 1008.51 352.118 1008.13 352.496C1007.79 352.832 1007.35 353 1006.81 353C1006.26 353 1005.8 352.832 1005.42 352.496C1005.09 352.118 1004.92 351.656 1004.92 351.11V333.47C1004.92 330.698 1004.25 328.451 1002.9 326.729C1001.6 324.965 999.562 324.083 996.79 324.083C995.026 324.083 993.346 324.503 991.75 325.343C990.196 326.183 988.936 327.338 987.97 328.808C987.004 330.236 986.521 331.79 986.521 333.47V351.11C986.521 351.656 986.332 352.118 985.954 352.496C985.618 352.832 985.177 353 984.631 353C984.085 353 983.623 352.832 983.245 352.496C982.909 352.118 982.741 351.656 982.741 351.11V333.281C982.741 330.551 982.111 328.346 980.851 326.666C979.591 324.944 977.617 324.083 974.929 324.083C973.207 324.083 971.569 324.503 970.015 325.343C968.503 326.183 967.264 327.317 966.298 328.745C965.374 330.131 964.912 331.643 964.912 333.281V351.11C964.912 351.656 964.723 352.118 964.345 352.496C964.009 352.832 963.568 353 963.022 353C962.476 353 962.014 352.832 961.636 352.496C961.3 352.118 961.132 351.656 961.132 351.11V322.886C961.132 322.34 961.3 321.899 961.636 321.563C962.014 321.185 962.476 320.996 963.022 320.996C963.568 320.996 964.009 321.185 964.345 321.563C964.723 321.899 964.912 322.34 964.912 322.886V326.54C966.046 324.818 967.579 323.39 969.511 322.256C971.443 321.122 973.48 320.555 975.622 320.555C978.058 320.555 980.158 321.143 981.922 322.319C983.686 323.495 984.946 325.217 985.702 327.485C986.584 325.637 988.201 324.02 990.553 322.634C992.905 321.248 995.278 320.555 997.672 320.555ZM1019.1 353C1018.39 353 1017.84 352.79 1017.46 352.37C1017.08 351.908 1016.89 351.299 1016.89 350.543V349.22C1016.89 348.464 1017.08 347.876 1017.46 347.456C1017.84 347.036 1018.39 346.826 1019.1 346.826H1019.54C1020.25 346.826 1020.8 347.036 1021.18 347.456C1021.56 347.876 1021.75 348.464 1021.75 349.22V350.543C1021.75 351.299 1021.56 351.908 1021.18 352.37C1020.8 352.79 1020.25 353 1019.54 353H1019.1Z" fill="#4A5248"/>
<defs>
<filter id="filter0_i" x="22.3943" y="62.6599" width="1067.96" height="230.54" filterUnits="userSpaceOnUse" color-interpolation-filters="sRGB">
<feFlood flood-opacity="0" result="BackgroundImageFix"/>
<feBlend mode="normal" in="SourceGraphic" in2="BackgroundImageFix" result="shape"/>
<feColorMatrix in="SourceAlpha" type="matrix" values="0 0 0 0 0 0 0 0 0 0 0 0 0 0 0 0 0 0 127 0" result="hardAlpha"/>
<feOffset dy="4"/>
<feGaussianBlur stdDeviation="2"/>
<feComposite in2="hardAlpha" operator="arithmetic" k2="-1" k3="1"/>
<feColorMatrix type="matrix" values="0 0 0 0 0 0 0 0 0 0 0 0 0 0 0 0 0 0 0.25 0"/>
<feBlend mode="normal" in2="shape" result="effect1_innerShadow"/>
</filter>
</defs>
</svg>
