<svg width="178" height="38" viewBox="0 0 178 38" fill="none" xmlns="http://www.w3.org/2000/svg">
<path d="M24.28 1.96C24.9467 1.96 25.52 2.2 26 2.68C26.5067 3.13333 26.76 3.70667 26.76 4.4V27.56C26.76 28.2533 26.5333 28.84 26.08 29.32C25.6267 29.7733 25.0267 30 24.28 30C23.5333 30 22.92 29.7733 22.44 29.32C21.9867 28.8667 21.76 28.28 21.76 27.56V11.44L15.16 21.52C14.8933 21.84 14.5867 22.1067 14.24 22.32C13.8933 22.5067 13.5333 22.5867 13.16 22.56C12.8133 22.5867 12.4667 22.5067 12.12 22.32C11.7733 22.1067 11.4667 21.84 11.2 21.52L4.6 11.08V27.56C4.6 28.28 4.38667 28.8667 3.96 29.32C3.53333 29.7733 2.97333 30 2.28 30C1.61333 30 1.06667 29.7733 0.64 29.32C0.213333 28.84 1.19209e-07 28.2533 1.19209e-07 27.56V4.4C1.19209e-07 3.73333 0.24 3.16 0.72 2.68C1.22667 2.2 1.82667 1.96 2.52 1.96C2.92 1.96 3.32 2.06667 3.72 2.28C4.12 2.46667 4.42667 2.72 4.64 3.04L13.36 16.44L22.32 3.04C22.5333 2.72 22.8133 2.46667 23.16 2.28C23.5333 2.06667 23.9067 1.96 24.28 1.96ZM48.2534 8.6C48.9468 8.6 49.5201 8.84 49.9734 9.32C50.4268 9.77333 50.6534 10.3467 50.6534 11.04V28.04C50.6534 31.5067 49.7201 34.0267 47.8534 35.6C45.9868 37.2 43.4934 38 40.3734 38C39.4668 38 38.5334 37.92 37.5734 37.76C36.6401 37.6267 35.8801 37.44 35.2934 37.2C33.9868 36.64 33.3334 35.8667 33.3334 34.88C33.3334 34.6933 33.3734 34.48 33.4534 34.24C33.6134 33.6533 33.8801 33.2 34.2534 32.88C34.6534 32.5867 35.0801 32.44 35.5334 32.44C35.8001 32.44 36.0534 32.48 36.2934 32.56C36.4801 32.64 36.8001 32.7733 37.2534 32.96C37.7334 33.1467 38.2268 33.2933 38.7334 33.4C39.2668 33.5333 39.8134 33.6 40.3734 33.6C42.2668 33.6 43.6534 33.1867 44.5334 32.36C45.4401 31.56 45.8934 30.1733 45.8934 28.2V27.8C44.5068 29.5333 42.3468 30.4 39.4134 30.4C38.0268 30.4 36.8001 30.08 35.7334 29.44C34.6668 28.7733 33.8401 27.8667 33.2534 26.72C32.6668 25.5467 32.3734 24.2133 32.3734 22.72V11.04C32.3734 10.3467 32.6001 9.77333 33.0534 9.32C33.5068 8.84 34.0801 8.6 34.7734 8.6C35.4668 8.6 36.0401 8.84 36.4934 9.32C36.9468 9.77333 37.1734 10.3467 37.1734 11.04V21.28C37.1734 22.96 37.5334 24.1733 38.2534 24.92C39.0001 25.64 40.0801 26 41.4934 26C42.8801 26 43.9468 25.6 44.6934 24.8C45.4668 23.9733 45.8534 22.8 45.8534 21.28V11.04C45.8534 10.3467 46.0801 9.77333 46.5334 9.32C46.9868 8.84 47.5601 8.6 48.2534 8.6ZM61.25 6.6V13.64H69.89C70.5833 13.64 71.1567 13.8667 71.61 14.32C72.09 14.7467 72.33 15.3067 72.33 16C72.33 16.5867 72.09 17.1067 71.61 17.56C71.1567 18.0133 70.5833 18.24 69.89 18.24H61.25V27.56C61.25 28.2533 60.9967 28.84 60.49 29.32C60.01 29.7733 59.4367 30 58.77 30C58.0233 30 57.41 29.7733 56.93 29.32C56.4767 28.8667 56.25 28.28 56.25 27.56V4.44C56.25 3.74667 56.4767 3.17333 56.93 2.72C57.41 2.24 57.9967 2 58.69 2H71.69C72.3833 2 72.9567 2.22667 73.41 2.68C73.89 3.10666 74.13 3.66666 74.13 4.36C74.13 4.94667 73.89 5.46667 73.41 5.92C72.9567 6.37333 72.3833 6.6 71.69 6.6H61.25ZM94.8497 8.2C95.543 8.2 96.1164 8.42667 96.5697 8.88C97.023 9.33333 97.2497 9.92 97.2497 10.64V27.56C97.2497 28.2533 97.023 28.84 96.5697 29.32C96.1164 29.7733 95.543 30 94.8497 30C94.1564 30 93.583 29.7733 93.1297 29.32C92.703 28.8667 92.4764 28.2933 92.4497 27.6C91.783 28.3733 90.8764 29.04 89.7297 29.6C88.6097 30.1333 87.423 30.4 86.1697 30.4C84.3297 30.4 82.663 29.9333 81.1697 29C79.6764 28.04 78.4897 26.72 77.6097 25.04C76.7564 23.36 76.3297 21.4533 76.3297 19.32C76.3297 17.1867 76.7564 15.28 77.6097 13.6C78.463 11.8933 79.623 10.5733 81.0897 9.64C82.583 8.68 84.223 8.2 86.0097 8.2C87.2897 8.2 88.4897 8.44 89.6097 8.92C90.7297 9.37333 91.6764 9.96 92.4497 10.68V10.64C92.4497 9.94666 92.6764 9.37333 93.1297 8.92C93.583 8.44 94.1564 8.2 94.8497 8.2ZM86.7697 26C88.503 26 89.9164 25.3733 91.0097 24.12C92.103 22.84 92.6497 21.24 92.6497 19.32C92.6497 17.4 92.103 15.8 91.0097 14.52C89.9164 13.24 88.503 12.6 86.7697 12.6C85.063 12.6 83.663 13.24 82.5697 14.52C81.4764 15.8 80.9297 17.4 80.9297 19.32C80.9297 21.24 81.463 22.84 82.5297 24.12C83.623 25.3733 85.0364 26 86.7697 26ZM127.132 8.2C129.772 8.2 131.598 9.01333 132.612 10.64C133.625 12.24 134.132 14.4667 134.132 17.32V27.56C134.132 28.2533 133.905 28.84 133.452 29.32C132.998 29.7733 132.425 30 131.732 30C131.038 30 130.465 29.7733 130.012 29.32C129.558 28.84 129.332 28.2533 129.332 27.56V17.32C129.332 15.8533 129.038 14.7067 128.452 13.88C127.892 13.0267 126.892 12.6 125.452 12.6C123.958 12.6 122.785 13.0533 121.932 13.96C121.105 14.84 120.692 15.96 120.692 17.32V27.56C120.692 28.2533 120.465 28.84 120.012 29.32C119.558 29.7733 118.985 30 118.292 30C117.598 30 117.025 29.7733 116.572 29.32C116.118 28.84 115.892 28.2533 115.892 27.56V17.32C115.892 15.8533 115.598 14.7067 115.012 13.88C114.452 13.0267 113.452 12.6 112.012 12.6C110.518 12.6 109.345 13.0533 108.492 13.96C107.665 14.84 107.252 15.96 107.252 17.32V27.56C107.252 28.2533 107.025 28.84 106.572 29.32C106.118 29.7733 105.545 30 104.852 30C104.158 30 103.585 29.7733 103.132 29.32C102.678 28.84 102.452 28.2533 102.452 27.56V11.04C102.452 10.3467 102.678 9.77333 103.132 9.32C103.585 8.84 104.158 8.6 104.852 8.6C105.545 8.6 106.118 8.84 106.572 9.32C107.025 9.77333 107.252 10.3467 107.252 11.04V11.68C107.972 10.72 108.878 9.90667 109.972 9.24C111.092 8.54667 112.332 8.2 113.692 8.2C117.052 8.2 119.198 9.66667 120.132 12.6C120.745 11.48 121.665 10.4667 122.892 9.56C124.145 8.65333 125.558 8.2 127.132 8.2ZM143.847 27.56C143.847 28.2533 143.62 28.84 143.167 29.32C142.713 29.7733 142.14 30 141.447 30C140.753 30 140.18 29.7733 139.727 29.32C139.273 28.84 139.047 28.2533 139.047 27.56V11.04C139.047 10.3467 139.273 9.77333 139.727 9.32C140.18 8.84 140.753 8.6 141.447 8.6C142.14 8.6 142.713 8.84 143.167 9.32C143.62 9.77333 143.847 10.3467 143.847 11.04V27.56ZM141.407 6C140.5 6 139.86 5.85333 139.487 5.56C139.113 5.26667 138.927 4.74667 138.927 4V3.24C138.927 2.49333 139.127 1.97333 139.527 1.68C139.927 1.38667 140.567 1.24 141.447 1.24C142.38 1.24 143.033 1.38667 143.407 1.68C143.78 1.97333 143.967 2.49333 143.967 3.24V4C143.967 4.77333 143.767 5.30667 143.367 5.6C142.993 5.86667 142.34 6 141.407 6ZM153.98 27.56C153.98 28.2533 153.74 28.84 153.26 29.32C152.806 29.7733 152.233 30 151.54 30C150.873 30 150.313 29.7733 149.86 29.32C149.406 28.84 149.18 28.2533 149.18 27.56V2.84C149.18 2.14667 149.406 1.57333 149.86 1.12C150.34 0.639999 150.926 0.4 151.62 0.4C152.286 0.4 152.846 0.639999 153.3 1.12C153.753 1.57333 153.98 2.14667 153.98 2.84V27.56ZM174.855 8.6C175.548 8.6 176.122 8.84 176.575 9.32C177.028 9.77333 177.255 10.3467 177.255 11.04V28.04C177.255 31.5067 176.322 34.0267 174.455 35.6C172.588 37.2 170.095 38 166.975 38C166.068 38 165.135 37.92 164.175 37.76C163.242 37.6267 162.482 37.44 161.895 37.2C160.588 36.64 159.935 35.8667 159.935 34.88C159.935 34.6933 159.975 34.48 160.055 34.24C160.215 33.6533 160.482 33.2 160.855 32.88C161.255 32.5867 161.682 32.44 162.135 32.44C162.402 32.44 162.655 32.48 162.895 32.56C163.082 32.64 163.402 32.7733 163.855 32.96C164.335 33.1467 164.828 33.2933 165.335 33.4C165.868 33.5333 166.415 33.6 166.975 33.6C168.868 33.6 170.255 33.1867 171.135 32.36C172.042 31.56 172.495 30.1733 172.495 28.2V27.8C171.108 29.5333 168.948 30.4 166.015 30.4C164.628 30.4 163.402 30.08 162.335 29.44C161.268 28.7733 160.442 27.8667 159.855 26.72C159.268 25.5467 158.975 24.2133 158.975 22.72V11.04C158.975 10.3467 159.202 9.77333 159.655 9.32C160.108 8.84 160.682 8.6 161.375 8.6C162.068 8.6 162.642 8.84 163.095 9.32C163.548 9.77333 163.775 10.3467 163.775 11.04V21.28C163.775 22.96 164.135 24.1733 164.855 24.92C165.602 25.64 166.682 26 168.095 26C169.482 26 170.548 25.6 171.295 24.8C172.068 23.9733 172.455 22.8 172.455 21.28V11.04C172.455 10.3467 172.682 9.77333 173.135 9.32C173.588 8.84 174.162 8.6 174.855 8.6Z" fill="#93E059"/>
</svg>
