<svg width="205" height="45" viewBox="0 0 205 45" fill="none" xmlns="http://www.w3.org/2000/svg">
<path d="M28.372 2.754C29.1387 2.754 29.798 3.03 30.35 3.582C30.9327 4.10333 31.224 4.76267 31.224 5.56V32.194C31.224 32.9913 30.9633 33.666 30.442 34.218C29.9207 34.7393 29.2307 35 28.372 35C27.5133 35 26.808 34.7393 26.256 34.218C25.7347 33.6967 25.474 33.022 25.474 32.194V13.656L17.884 25.248C17.5773 25.616 17.2247 25.9227 16.826 26.168C16.4273 26.3827 16.0133 26.4747 15.584 26.444C15.1853 26.4747 14.7867 26.3827 14.388 26.168C13.9893 25.9227 13.6367 25.616 13.33 25.248L5.74 13.242V32.194C5.74 33.022 5.49467 33.6967 5.004 34.218C4.51333 34.7393 3.86933 35 3.072 35C2.30533 35 1.67667 34.7393 1.186 34.218C0.695334 33.666 0.45 32.9913 0.45 32.194V5.56C0.45 4.79333 0.726 4.134 1.278 3.582C1.86067 3.03 2.55067 2.754 3.348 2.754C3.808 2.754 4.268 2.87667 4.728 3.122C5.188 3.33666 5.54067 3.628 5.786 3.996L15.814 19.406L26.118 3.996C26.3633 3.628 26.6853 3.33666 27.084 3.122C27.5133 2.87667 27.9427 2.754 28.372 2.754ZM55.9415 10.39C56.7388 10.39 57.3981 10.666 57.9195 11.218C58.4408 11.7393 58.7015 12.3987 58.7015 13.196V32.746C58.7015 36.7327 57.6281 39.6307 55.4815 41.44C53.3348 43.28 50.4675 44.2 46.8795 44.2C45.8368 44.2 44.7635 44.108 43.6595 43.924C42.5861 43.7707 41.7121 43.556 41.0375 43.28C39.5348 42.636 38.7835 41.7467 38.7835 40.612C38.7835 40.3973 38.8295 40.152 38.9215 39.876C39.1055 39.2013 39.4121 38.68 39.8415 38.312C40.3015 37.9747 40.7921 37.806 41.3135 37.806C41.6201 37.806 41.9115 37.852 42.1875 37.944C42.4021 38.036 42.7701 38.1893 43.2915 38.404C43.8435 38.6187 44.4108 38.7873 44.9935 38.91C45.6068 39.0633 46.2355 39.14 46.8795 39.14C49.0568 39.14 50.6515 38.6647 51.6635 37.714C52.7061 36.794 53.2275 35.1993 53.2275 32.93V32.47C51.6328 34.4633 49.1488 35.46 45.7755 35.46C44.1808 35.46 42.7701 35.092 41.5435 34.356C40.3168 33.5893 39.3661 32.5467 38.6915 31.228C38.0168 29.8787 37.6795 28.3453 37.6795 26.628V13.196C37.6795 12.3987 37.9401 11.7393 38.4615 11.218C38.9828 10.666 39.6421 10.39 40.4395 10.39C41.2368 10.39 41.8961 10.666 42.4175 11.218C42.9388 11.7393 43.1995 12.3987 43.1995 13.196V24.972C43.1995 26.904 43.6135 28.2993 44.4415 29.158C45.3001 29.986 46.5421 30.4 48.1675 30.4C49.7621 30.4 50.9888 29.94 51.8475 29.02C52.7368 28.0693 53.1815 26.72 53.1815 24.972V13.196C53.1815 12.3987 53.4421 11.7393 53.9635 11.218C54.4848 10.666 55.1441 10.39 55.9415 10.39ZM70.8875 8.09V16.186H80.8235C81.6208 16.186 82.2802 16.4467 82.8015 16.968C83.3535 17.4587 83.6295 18.1027 83.6295 18.9C83.6295 19.5747 83.3535 20.1727 82.8015 20.694C82.2802 21.2153 81.6208 21.476 80.8235 21.476H70.8875V32.194C70.8875 32.9913 70.5962 33.666 70.0135 34.218C69.4615 34.7393 68.8022 35 68.0355 35C67.1768 35 66.4715 34.7393 65.9195 34.218C65.3982 33.6967 65.1375 33.022 65.1375 32.194V5.606C65.1375 4.80867 65.3982 4.14933 65.9195 3.628C66.4715 3.076 67.1462 2.8 67.9435 2.8H82.8935C83.6908 2.8 84.3502 3.06066 84.8715 3.582C85.4235 4.07266 85.6995 4.71666 85.6995 5.514C85.6995 6.18867 85.4235 6.78667 84.8715 7.308C84.3502 7.82933 83.6908 8.09 82.8935 8.09H70.8875ZM109.527 9.93C110.324 9.93 110.984 10.1907 111.505 10.712C112.026 11.2333 112.287 11.908 112.287 12.736V32.194C112.287 32.9913 112.026 33.666 111.505 34.218C110.984 34.7393 110.324 35 109.527 35C108.73 35 108.07 34.7393 107.549 34.218C107.058 33.6967 106.798 33.0373 106.767 32.24C106 33.1293 104.958 33.896 103.639 34.54C102.351 35.1533 100.986 35.46 99.5451 35.46C97.4291 35.46 95.5125 34.9233 93.7951 33.85C92.0778 32.746 90.7131 31.228 89.7011 29.296C88.7198 27.364 88.2291 25.1713 88.2291 22.718C88.2291 20.2647 88.7198 18.072 89.7011 16.14C90.6825 14.1773 92.0165 12.6593 93.7031 11.586C95.4205 10.482 97.3065 9.93 99.3611 9.93C100.833 9.93 102.213 10.206 103.501 10.758C104.789 11.2793 105.878 11.954 106.767 12.782V12.736C106.767 11.9387 107.028 11.2793 107.549 10.758C108.07 10.206 108.73 9.93 109.527 9.93ZM100.235 30.4C102.228 30.4 103.854 29.6793 105.111 28.238C106.368 26.766 106.997 24.926 106.997 22.718C106.997 20.51 106.368 18.67 105.111 17.198C103.854 15.726 102.228 14.99 100.235 14.99C98.2725 14.99 96.6625 15.726 95.4051 17.198C94.1478 18.67 93.5191 20.51 93.5191 22.718C93.5191 24.926 94.1325 26.766 95.3591 28.238C96.6165 29.6793 98.2418 30.4 100.235 30.4ZM146.651 9.93C149.687 9.93 151.788 10.8653 152.953 12.736C154.119 14.576 154.701 17.1367 154.701 20.418V32.194C154.701 32.9913 154.441 33.666 153.919 34.218C153.398 34.7393 152.739 35 151.941 35C151.144 35 150.485 34.7393 149.963 34.218C149.442 33.666 149.181 32.9913 149.181 32.194V20.418C149.181 18.7313 148.844 17.4127 148.169 16.462C147.525 15.4807 146.375 14.99 144.719 14.99C143.002 14.99 141.653 15.5113 140.671 16.554C139.721 17.566 139.245 18.854 139.245 20.418V32.194C139.245 32.9913 138.985 33.666 138.463 34.218C137.942 34.7393 137.283 35 136.485 35C135.688 35 135.029 34.7393 134.507 34.218C133.986 33.666 133.725 32.9913 133.725 32.194V20.418C133.725 18.7313 133.388 17.4127 132.713 16.462C132.069 15.4807 130.919 14.99 129.263 14.99C127.546 14.99 126.197 15.5113 125.215 16.554C124.265 17.566 123.789 18.854 123.789 20.418V32.194C123.789 32.9913 123.529 33.666 123.007 34.218C122.486 34.7393 121.827 35 121.029 35C120.232 35 119.573 34.7393 119.051 34.218C118.53 33.666 118.269 32.9913 118.269 32.194V13.196C118.269 12.3987 118.53 11.7393 119.051 11.218C119.573 10.666 120.232 10.39 121.029 10.39C121.827 10.39 122.486 10.666 123.007 11.218C123.529 11.7393 123.789 12.3987 123.789 13.196V13.932C124.617 12.828 125.66 11.8927 126.917 11.126C128.205 10.3287 129.631 9.93 131.195 9.93C135.059 9.93 137.528 11.6167 138.601 14.99C139.307 13.702 140.365 12.5367 141.775 11.494C143.217 10.4513 144.842 9.93 146.651 9.93ZM165.874 32.194C165.874 32.9913 165.613 33.666 165.092 34.218C164.57 34.7393 163.911 35 163.114 35C162.316 35 161.657 34.7393 161.136 34.218C160.614 33.666 160.354 32.9913 160.354 32.194V13.196C160.354 12.3987 160.614 11.7393 161.136 11.218C161.657 10.666 162.316 10.39 163.114 10.39C163.911 10.39 164.57 10.666 165.092 11.218C165.613 11.7393 165.874 12.3987 165.874 13.196V32.194ZM163.068 7.4C162.025 7.4 161.289 7.23133 160.86 6.894C160.43 6.55667 160.216 5.95866 160.216 5.1V4.226C160.216 3.36733 160.446 2.76933 160.906 2.432C161.366 2.09467 162.102 1.926 163.114 1.926C164.187 1.926 164.938 2.09467 165.368 2.432C165.797 2.76933 166.012 3.36733 166.012 4.226V5.1C166.012 5.98933 165.782 6.60266 165.322 6.94C164.892 7.24667 164.141 7.4 163.068 7.4ZM177.527 32.194C177.527 32.9913 177.251 33.666 176.699 34.218C176.177 34.7393 175.518 35 174.721 35C173.954 35 173.31 34.7393 172.789 34.218C172.267 33.666 172.007 32.9913 172.007 32.194V3.766C172.007 2.96867 172.267 2.30933 172.789 1.788C173.341 1.236 174.015 0.96 174.813 0.96C175.579 0.96 176.223 1.236 176.745 1.788C177.266 2.30933 177.527 2.96867 177.527 3.766V32.194ZM201.533 10.39C202.331 10.39 202.99 10.666 203.511 11.218C204.033 11.7393 204.293 12.3987 204.293 13.196V32.746C204.293 36.7327 203.22 39.6307 201.073 41.44C198.927 43.28 196.059 44.2 192.471 44.2C191.429 44.2 190.355 44.108 189.251 43.924C188.178 43.7707 187.304 43.556 186.629 43.28C185.127 42.636 184.375 41.7467 184.375 40.612C184.375 40.3973 184.421 40.152 184.513 39.876C184.697 39.2013 185.004 38.68 185.433 38.312C185.893 37.9747 186.384 37.806 186.905 37.806C187.212 37.806 187.503 37.852 187.779 37.944C187.994 38.036 188.362 38.1893 188.883 38.404C189.435 38.6187 190.003 38.7873 190.585 38.91C191.199 39.0633 191.827 39.14 192.471 39.14C194.649 39.14 196.243 38.6647 197.255 37.714C198.298 36.794 198.819 35.1993 198.819 32.93V32.47C197.225 34.4633 194.741 35.46 191.367 35.46C189.773 35.46 188.362 35.092 187.135 34.356C185.909 33.5893 184.958 32.5467 184.283 31.228C183.609 29.8787 183.271 28.3453 183.271 26.628V13.196C183.271 12.3987 183.532 11.7393 184.053 11.218C184.575 10.666 185.234 10.39 186.031 10.39C186.829 10.39 187.488 10.666 188.009 11.218C188.531 11.7393 188.791 12.3987 188.791 13.196V24.972C188.791 26.904 189.205 28.2993 190.033 29.158C190.892 29.986 192.134 30.4 193.759 30.4C195.354 30.4 196.581 29.94 197.439 29.02C198.329 28.0693 198.773 26.72 198.773 24.972V13.196C198.773 12.3987 199.034 11.7393 199.555 11.218C200.077 10.666 200.736 10.39 201.533 10.39Z" fill="#4A5248"/>
</svg>
