<svg width="737" height="157" viewBox="0 0 737 157" fill="none" xmlns="http://www.w3.org/2000/svg">
<g filter="url(#filter0_i)">
<path d="M101.378 6.63399C104.145 6.63399 106.524 7.62999 108.516 9.622C110.619 11.5033 111.67 13.8827 111.67 16.76V112.874C111.67 115.751 110.729 118.186 108.848 120.178C106.967 122.059 104.477 123 101.378 123C98.2794 123 95.734 122.059 93.742 120.178C91.8607 118.297 90.92 115.862 90.92 112.874V45.976L63.53 87.808C62.4234 89.136 61.1507 90.2427 59.712 91.128C58.2734 91.9027 56.7794 92.2347 55.23 92.124C53.7914 92.2347 52.3527 91.9027 50.914 91.128C49.4754 90.2427 48.2027 89.136 47.096 87.808L19.706 44.482V112.874C19.706 115.862 18.8207 118.297 17.05 120.178C15.2794 122.059 12.9553 123 10.078 123C7.31135 123 5.04268 122.059 3.27202 120.178C1.50135 118.186 0.616016 115.751 0.616016 112.874V16.76C0.616016 13.9933 1.61202 11.614 3.60402 9.622C5.70668 7.62999 8.19668 6.63399 11.074 6.63399C12.734 6.63399 14.394 7.07666 16.054 7.962C17.714 8.73666 18.9867 9.78799 19.872 11.116L56.06 66.726L93.244 11.116C94.1294 9.78799 95.2914 8.73666 96.73 7.962C98.2794 7.07666 99.8287 6.63399 101.378 6.63399ZM200.868 34.19C203.745 34.19 206.124 35.186 208.006 37.178C209.887 39.0593 210.828 41.4387 210.828 44.316V114.866C210.828 129.253 206.954 139.711 199.208 146.24C191.461 152.88 181.114 156.2 168.166 156.2C164.403 156.2 160.53 155.868 156.546 155.204C152.672 154.651 149.518 153.876 147.084 152.88C141.661 150.556 138.95 147.347 138.95 143.252C138.95 142.477 139.116 141.592 139.448 140.596C140.112 138.161 141.218 136.28 142.768 134.952C144.428 133.735 146.198 133.126 148.08 133.126C149.186 133.126 150.238 133.292 151.234 133.624C152.008 133.956 153.336 134.509 155.218 135.284C157.21 136.059 159.257 136.667 161.36 137.11C163.573 137.663 165.842 137.94 168.166 137.94C176.023 137.94 181.778 136.225 185.43 132.794C189.192 129.474 191.074 123.719 191.074 115.53V113.87C185.319 121.063 176.355 124.66 164.182 124.66C158.427 124.66 153.336 123.332 148.91 120.676C144.483 117.909 141.052 114.147 138.618 109.388C136.183 104.519 134.966 98.9853 134.966 92.788V44.316C134.966 41.4387 135.906 39.0593 137.788 37.178C139.669 35.186 142.048 34.19 144.926 34.19C147.803 34.19 150.182 35.186 152.064 37.178C153.945 39.0593 154.886 41.4387 154.886 44.316V86.812C154.886 93.784 156.38 98.8193 159.368 101.918C162.466 104.906 166.948 106.4 172.814 106.4C178.568 106.4 182.995 104.74 186.094 101.42C189.303 97.9893 190.908 93.12 190.908 86.812V44.316C190.908 41.4387 191.848 39.0593 193.73 37.178C195.611 35.186 197.99 34.19 200.868 34.19ZM254.804 25.89V55.106H290.66C293.537 55.106 295.916 56.0467 297.798 57.928C299.79 59.6987 300.786 62.0227 300.786 64.9C300.786 67.3347 299.79 69.4927 297.798 71.374C295.916 73.2553 293.537 74.196 290.66 74.196H254.804V112.874C254.804 115.751 253.752 118.186 251.65 120.178C249.658 122.059 247.278 123 244.512 123C241.413 123 238.868 122.059 236.876 120.178C234.994 118.297 234.054 115.862 234.054 112.874V16.926C234.054 14.0487 234.994 11.6693 236.876 9.78799C238.868 7.79599 241.302 6.79999 244.18 6.79999H298.13C301.007 6.79999 303.386 7.74066 305.268 9.622C307.26 11.3927 308.256 13.7167 308.256 16.594C308.256 19.0287 307.26 21.1867 305.268 23.068C303.386 24.9493 301.007 25.89 298.13 25.89H254.804ZM394.242 32.53C397.12 32.53 399.499 33.4707 401.38 35.352C403.262 37.2333 404.202 39.668 404.202 42.656V112.874C404.202 115.751 403.262 118.186 401.38 120.178C399.499 122.059 397.12 123 394.242 123C391.365 123 388.986 122.059 387.104 120.178C385.334 118.297 384.393 115.917 384.282 113.04C381.516 116.249 377.753 119.016 372.994 121.34C368.346 123.553 363.422 124.66 358.22 124.66C350.584 124.66 343.668 122.723 337.47 118.85C331.273 114.866 326.348 109.388 322.696 102.416C319.155 95.444 317.384 87.5313 317.384 78.678C317.384 69.8247 319.155 61.912 322.696 54.94C326.238 47.8573 331.052 42.3793 337.138 38.506C343.336 34.522 350.142 32.53 357.556 32.53C362.868 32.53 367.848 33.526 372.496 35.518C377.144 37.3993 381.073 39.834 384.282 42.822V42.656C384.282 39.7787 385.223 37.3993 387.104 35.518C388.986 33.526 391.365 32.53 394.242 32.53ZM360.71 106.4C367.904 106.4 373.769 103.799 378.306 98.598C382.844 93.286 385.112 86.646 385.112 78.678C385.112 70.71 382.844 64.07 378.306 58.758C373.769 53.446 367.904 50.79 360.71 50.79C353.628 50.79 347.818 53.446 343.28 58.758C338.743 64.07 336.474 70.71 336.474 78.678C336.474 86.646 338.688 93.286 343.114 98.598C347.652 103.799 353.517 106.4 360.71 106.4ZM528.212 32.53C539.168 32.53 546.749 35.9053 550.954 42.656C555.159 49.296 557.262 58.5367 557.262 70.378V112.874C557.262 115.751 556.321 118.186 554.44 120.178C552.559 122.059 550.179 123 547.302 123C544.425 123 542.045 122.059 540.164 120.178C538.283 118.186 537.342 115.751 537.342 112.874V70.378C537.342 64.2913 536.125 59.5327 533.69 56.102C531.366 52.5607 527.216 50.79 521.24 50.79C515.043 50.79 510.173 52.6713 506.632 56.434C503.201 60.086 501.486 64.734 501.486 70.378V112.874C501.486 115.751 500.545 118.186 498.664 120.178C496.783 122.059 494.403 123 491.526 123C488.649 123 486.269 122.059 484.388 120.178C482.507 118.186 481.566 115.751 481.566 112.874V70.378C481.566 64.2913 480.349 59.5327 477.914 56.102C475.59 52.5607 471.44 50.79 465.464 50.79C459.267 50.79 454.397 52.6713 450.856 56.434C447.425 60.086 445.71 64.734 445.71 70.378V112.874C445.71 115.751 444.769 118.186 442.888 120.178C441.007 122.059 438.627 123 435.75 123C432.873 123 430.493 122.059 428.612 120.178C426.731 118.186 425.79 115.751 425.79 112.874V44.316C425.79 41.4387 426.731 39.0593 428.612 37.178C430.493 35.186 432.873 34.19 435.75 34.19C438.627 34.19 441.007 35.186 442.888 37.178C444.769 39.0593 445.71 41.4387 445.71 44.316V46.972C448.698 42.988 452.461 39.6127 456.998 36.846C461.646 33.9687 466.792 32.53 472.436 32.53C486.38 32.53 495.289 38.6167 499.162 50.79C501.707 46.142 505.525 41.9367 510.616 38.174C515.817 34.4113 521.683 32.53 528.212 32.53ZM597.579 112.874C597.579 115.751 596.639 118.186 594.757 120.178C592.876 122.059 590.497 123 587.619 123C584.742 123 582.363 122.059 580.481 120.178C578.6 118.186 577.659 115.751 577.659 112.874V44.316C577.659 41.4387 578.6 39.0593 580.481 37.178C582.363 35.186 584.742 34.19 587.619 34.19C590.497 34.19 592.876 35.186 594.757 37.178C596.639 39.0593 597.579 41.4387 597.579 44.316V112.874ZM587.453 23.4C583.691 23.4 581.035 22.7913 579.485 21.574C577.936 20.3567 577.161 18.1987 577.161 15.1V11.946C577.161 8.84733 577.991 6.68933 579.651 5.472C581.311 4.25466 583.967 3.64599 587.619 3.64599C591.493 3.64599 594.204 4.25466 595.753 5.472C597.303 6.68933 598.077 8.84733 598.077 11.946V15.1C598.077 18.3093 597.247 20.5227 595.587 21.74C594.038 22.8467 591.327 23.4 587.453 23.4ZM639.632 112.874C639.632 115.751 638.636 118.186 636.644 120.178C634.762 122.059 632.383 123 629.506 123C626.739 123 624.415 122.059 622.534 120.178C620.652 118.186 619.712 115.751 619.712 112.874V10.286C619.712 7.40866 620.652 5.02933 622.534 3.14799C624.526 1.156 626.96 0.159998 629.838 0.159998C632.604 0.159998 634.928 1.156 636.81 3.14799C638.691 5.02933 639.632 7.40866 639.632 10.286V112.874ZM726.264 34.19C729.142 34.19 731.521 35.186 733.402 37.178C735.284 39.0593 736.224 41.4387 736.224 44.316V114.866C736.224 129.253 732.351 139.711 724.604 146.24C716.858 152.88 706.51 156.2 693.562 156.2C689.8 156.2 685.926 155.868 681.942 155.204C678.069 154.651 674.915 153.876 672.48 152.88C667.058 150.556 664.346 147.347 664.346 143.252C664.346 142.477 664.512 141.592 664.844 140.596C665.508 138.161 666.615 136.28 668.164 134.952C669.824 133.735 671.595 133.126 673.476 133.126C674.583 133.126 675.634 133.292 676.63 133.624C677.405 133.956 678.733 134.509 680.614 135.284C682.606 136.059 684.654 136.667 686.756 137.11C688.97 137.663 691.238 137.94 693.562 137.94C701.42 137.94 707.174 136.225 710.826 132.794C714.589 129.474 716.47 123.719 716.47 115.53V113.87C710.716 121.063 701.752 124.66 689.578 124.66C683.824 124.66 678.733 123.332 674.306 120.676C669.88 117.909 666.449 114.147 664.014 109.388C661.58 104.519 660.362 98.9853 660.362 92.788V44.316C660.362 41.4387 661.303 39.0593 663.184 37.178C665.066 35.186 667.445 34.19 670.322 34.19C673.2 34.19 675.579 35.186 677.46 37.178C679.342 39.0593 680.282 41.4387 680.282 44.316V86.812C680.282 93.784 681.776 98.8193 684.764 101.918C687.863 104.906 692.345 106.4 698.21 106.4C703.965 106.4 708.392 104.74 711.49 101.42C714.7 97.9893 716.304 93.12 716.304 86.812V44.316C716.304 41.4387 717.245 39.0593 719.126 37.178C721.008 35.186 723.387 34.19 726.264 34.19Z" fill="#93E059"/>
</g>
<defs>
<filter id="filter0_i" x="0.616013" y="0.159912" width="735.608" height="158.04" filterUnits="userSpaceOnUse" color-interpolation-filters="sRGB">
<feFlood flood-opacity="0" result="BackgroundImageFix"/>
<feBlend mode="normal" in="SourceGraphic" in2="BackgroundImageFix" result="shape"/>
<feColorMatrix in="SourceAlpha" type="matrix" values="0 0 0 0 0 0 0 0 0 0 0 0 0 0 0 0 0 0 127 0" result="hardAlpha"/>
<feOffset dy="4"/>
<feGaussianBlur stdDeviation="1"/>
<feComposite in2="hardAlpha" operator="arithmetic" k2="-1" k3="1"/>
<feColorMatrix type="matrix" values="0 0 0 0 0 0 0 0 0 0 0 0 0 0 0 0 0 0 0.25 0"/>
<feBlend mode="normal" in2="shape" result="effect1_innerShadow"/>
</filter>
</defs>
</svg>
