<svg width="839" height="273" viewBox="0 0 839 273" fill="none" xmlns="http://www.w3.org/2000/svg">
<g filter="url(#filter0_i)">
<path d="M135.039 54.119C138.055 54.119 140.65 55.205 142.822 57.377C145.114 59.4283 146.261 62.0227 146.261 65.16V169.959C146.261 173.096 145.235 175.751 143.184 177.923C141.132 179.974 138.417 181 135.039 181C131.66 181 128.885 179.974 126.713 177.923C124.661 175.872 123.636 173.217 123.636 169.959V97.016L93.7707 142.628C92.564 144.076 91.1764 145.283 89.6077 146.248C88.039 147.093 86.41 147.455 84.7207 147.334C83.152 147.455 81.5834 147.093 80.0147 146.248C78.446 145.283 77.0583 144.076 75.8517 142.628L45.9867 95.387V169.959C45.9867 173.217 45.0213 175.872 43.0907 177.923C41.16 179.974 38.626 181 35.4887 181C32.472 181 29.9983 179.974 28.0677 177.923C26.137 175.751 25.1717 173.096 25.1717 169.959V65.16C25.1717 62.1433 26.2577 59.549 28.4297 57.377C30.7223 55.205 33.4373 54.119 36.5747 54.119C38.3847 54.119 40.1947 54.6017 42.0047 55.567C43.8147 56.4117 45.2023 57.558 46.1677 59.006L85.6257 119.641L126.17 59.006C127.135 57.558 128.402 56.4117 129.971 55.567C131.66 54.6017 133.349 54.119 135.039 54.119ZM243.518 84.165C246.656 84.165 249.25 85.251 251.301 87.423C253.353 89.4743 254.378 92.0687 254.378 95.206V172.131C254.378 187.818 250.155 199.221 241.708 206.34C233.262 213.58 221.979 217.2 207.861 217.2C203.759 217.2 199.535 216.838 195.191 216.114C190.968 215.511 187.529 214.666 184.874 213.58C178.962 211.046 176.005 207.547 176.005 203.082C176.005 202.237 176.186 201.272 176.548 200.186C177.272 197.531 178.479 195.48 180.168 194.032C181.978 192.705 183.909 192.041 185.96 192.041C187.167 192.041 188.313 192.222 189.399 192.584C190.244 192.946 191.692 193.549 193.743 194.394C195.915 195.239 198.148 195.902 200.44 196.385C202.854 196.988 205.327 197.29 207.861 197.29C216.429 197.29 222.703 195.42 226.685 191.679C230.788 188.059 232.839 181.784 232.839 172.855V171.045C226.565 178.888 216.791 182.81 203.517 182.81C197.243 182.81 191.692 181.362 186.865 178.466C182.039 175.449 178.298 171.347 175.643 166.158C172.989 160.849 171.661 154.815 171.661 148.058V95.206C171.661 92.0687 172.687 89.4743 174.738 87.423C176.79 85.251 179.384 84.165 182.521 84.165C185.659 84.165 188.253 85.251 190.304 87.423C192.356 89.4743 193.381 92.0687 193.381 95.206V141.542C193.381 149.144 195.01 154.634 198.268 158.013C201.647 161.271 206.534 162.9 212.929 162.9C219.204 162.9 224.031 161.09 227.409 157.47C230.909 153.729 232.658 148.42 232.658 141.542V95.206C232.658 92.0687 233.684 89.4743 235.735 87.423C237.787 85.251 240.381 84.165 243.518 84.165ZM302.328 75.115V106.971H341.424C344.561 106.971 347.156 107.997 349.207 110.048C351.379 111.979 352.465 114.513 352.465 117.65C352.465 120.305 351.379 122.658 349.207 124.709C347.156 126.76 344.561 127.786 341.424 127.786H302.328V169.959C302.328 173.096 301.182 175.751 298.889 177.923C296.717 179.974 294.123 181 291.106 181C287.727 181 284.952 179.974 282.78 177.923C280.729 175.872 279.703 173.217 279.703 169.959V65.341C279.703 62.2037 280.729 59.6093 282.78 57.558C284.952 55.386 287.607 54.3 290.744 54.3H349.569C352.706 54.3 355.301 55.3257 357.352 57.377C359.524 59.3077 360.61 61.8417 360.61 64.979C360.61 67.6337 359.524 69.9867 357.352 72.038C355.301 74.0893 352.706 75.115 349.569 75.115H302.328ZM454.367 82.355C457.504 82.355 460.098 83.3807 462.15 85.432C464.201 87.4833 465.227 90.138 465.227 93.396V169.959C465.227 173.096 464.201 175.751 462.15 177.923C460.098 179.974 457.504 181 454.367 181C451.229 181 448.635 179.974 446.584 177.923C444.653 175.872 443.627 173.277 443.507 170.14C440.49 173.639 436.387 176.656 431.199 179.19C426.131 181.603 420.761 182.81 415.09 182.81C406.764 182.81 399.222 180.698 392.465 176.475C385.707 172.131 380.338 166.158 376.356 158.556C372.494 150.954 370.564 142.326 370.564 132.673C370.564 123.02 372.494 114.392 376.356 106.79C380.217 99.0673 385.466 93.0943 392.103 88.871C398.86 84.527 406.281 82.355 414.366 82.355C420.158 82.355 425.588 83.441 430.656 85.613C435.724 87.6643 440.007 90.319 443.507 93.577V93.396C443.507 90.2587 444.532 87.6643 446.584 85.613C448.635 83.441 451.229 82.355 454.367 82.355ZM417.805 162.9C425.648 162.9 432.043 160.064 436.991 154.393C441.938 148.601 444.412 141.361 444.412 132.673C444.412 123.985 441.938 116.745 436.991 110.953C432.043 105.161 425.648 102.265 417.805 102.265C410.082 102.265 403.747 105.161 398.8 110.953C393.852 116.745 391.379 123.985 391.379 132.673C391.379 141.361 393.792 148.601 398.619 154.393C403.566 160.064 409.961 162.9 417.805 162.9ZM600.442 82.355C612.388 82.355 620.654 86.0353 625.239 93.396C629.824 100.636 632.117 110.712 632.117 123.623V169.959C632.117 173.096 631.091 175.751 629.04 177.923C626.989 179.974 624.394 181 621.257 181C618.12 181 615.525 179.974 613.474 177.923C611.423 175.751 610.397 173.096 610.397 169.959V123.623C610.397 116.986 609.07 111.798 606.415 108.057C603.881 104.196 599.356 102.265 592.84 102.265C586.083 102.265 580.773 104.316 576.912 108.419C573.171 112.401 571.301 117.469 571.301 123.623V169.959C571.301 173.096 570.275 175.751 568.224 177.923C566.173 179.974 563.578 181 560.441 181C557.304 181 554.709 179.974 552.658 177.923C550.607 175.751 549.581 173.096 549.581 169.959V123.623C549.581 116.986 548.254 111.798 545.599 108.057C543.065 104.196 538.54 102.265 532.024 102.265C525.267 102.265 519.957 104.316 516.096 108.419C512.355 112.401 510.485 117.469 510.485 123.623V169.959C510.485 173.096 509.459 175.751 507.408 177.923C505.357 179.974 502.762 181 499.625 181C496.488 181 493.893 179.974 491.842 177.923C489.791 175.751 488.765 173.096 488.765 169.959V95.206C488.765 92.0687 489.791 89.4743 491.842 87.423C493.893 85.251 496.488 84.165 499.625 84.165C502.762 84.165 505.357 85.251 507.408 87.423C509.459 89.4743 510.485 92.0687 510.485 95.206V98.102C513.743 93.758 517.846 90.0777 522.793 87.061C527.861 83.9237 533.472 82.355 539.626 82.355C554.83 82.355 564.544 88.9917 568.767 102.265C571.542 97.197 575.705 92.6117 581.256 88.509C586.927 84.4063 593.323 82.355 600.442 82.355ZM676.077 169.959C676.077 173.096 675.052 175.751 673 177.923C670.949 179.974 668.355 181 665.217 181C662.08 181 659.486 179.974 657.434 177.923C655.383 175.751 654.357 173.096 654.357 169.959V95.206C654.357 92.0687 655.383 89.4743 657.434 87.423C659.486 85.251 662.08 84.165 665.217 84.165C668.355 84.165 670.949 85.251 673 87.423C675.052 89.4743 676.077 92.0687 676.077 95.206V169.959ZM665.036 72.4C660.934 72.4 658.038 71.7363 656.348 70.409C654.659 69.0817 653.814 66.7287 653.814 63.35V59.911C653.814 56.5323 654.719 54.1793 656.529 52.852C658.339 51.5247 661.235 50.861 665.217 50.861C669.441 50.861 672.397 51.5247 674.086 52.852C675.776 54.1793 676.62 56.5323 676.62 59.911V63.35C676.62 66.8493 675.715 69.2627 673.905 70.59C672.216 71.7967 669.26 72.4 665.036 72.4ZM721.93 169.959C721.93 173.096 720.844 175.751 718.672 177.923C716.62 179.974 714.026 181 710.889 181C707.872 181 705.338 179.974 703.287 177.923C701.235 175.751 700.21 173.096 700.21 169.959V58.101C700.21 54.9637 701.235 52.3693 703.287 50.318C705.459 48.146 708.113 47.06 711.251 47.06C714.267 47.06 716.801 48.146 718.853 50.318C720.904 52.3693 721.93 54.9637 721.93 58.101V169.959ZM816.391 84.165C819.528 84.165 822.122 85.251 824.174 87.423C826.225 89.4743 827.251 92.0687 827.251 95.206V172.131C827.251 187.818 823.027 199.221 814.581 206.34C806.134 213.58 794.852 217.2 780.734 217.2C776.631 217.2 772.408 216.838 768.064 216.114C763.84 215.511 760.401 214.666 757.747 213.58C751.834 211.046 748.878 207.547 748.878 203.082C748.878 202.237 749.059 201.272 749.421 200.186C750.145 197.531 751.351 195.48 753.041 194.032C754.851 192.705 756.781 192.041 758.833 192.041C760.039 192.041 761.186 192.222 762.272 192.584C763.116 192.946 764.564 193.549 766.616 194.394C768.788 195.239 771.02 195.902 773.313 196.385C775.726 196.988 778.2 197.29 780.734 197.29C789.301 197.29 795.576 195.42 799.558 191.679C803.66 188.059 805.712 181.784 805.712 172.855V171.045C799.437 178.888 789.663 182.81 776.39 182.81C770.115 182.81 764.564 181.362 759.738 178.466C754.911 175.449 751.17 171.347 748.516 166.158C745.861 160.849 744.534 154.815 744.534 148.058V95.206C744.534 92.0687 745.559 89.4743 747.611 87.423C749.662 85.251 752.256 84.165 755.394 84.165C758.531 84.165 761.125 85.251 763.177 87.423C765.228 89.4743 766.254 92.0687 766.254 95.206V141.542C766.254 149.144 767.883 154.634 771.141 158.013C774.519 161.271 779.406 162.9 785.802 162.9C792.076 162.9 796.903 161.09 800.282 157.47C803.781 153.729 805.531 148.42 805.531 141.542V95.206C805.531 92.0687 806.556 89.4743 808.608 87.423C810.659 85.251 813.253 84.165 816.391 84.165Z" fill="#93E059"/>
</g>
<path d="M124.088 230.2C124.469 230.2 124.777 230.332 125.012 230.596C125.276 230.831 125.408 231.139 125.408 231.52C125.408 231.872 125.276 232.18 125.012 232.444C124.777 232.679 124.469 232.796 124.088 232.796H109.436V243.84H122.108C122.489 243.84 122.797 243.957 123.032 244.192C123.296 244.427 123.428 244.735 123.428 245.116C123.428 245.497 123.296 245.805 123.032 246.04C122.797 246.275 122.489 246.392 122.108 246.392H109.436V259.68C109.436 260.061 109.304 260.384 109.04 260.648C108.805 260.883 108.497 261 108.116 261C107.705 261 107.368 260.883 107.104 260.648C106.869 260.384 106.752 260.061 106.752 259.68V231.52C106.752 231.139 106.869 230.831 107.104 230.596C107.368 230.332 107.691 230.2 108.072 230.2H124.088ZM148.415 238.516C148.796 238.516 149.104 238.648 149.339 238.912C149.603 239.176 149.735 239.499 149.735 239.88V259.68C149.735 260.061 149.603 260.384 149.339 260.648C149.104 260.883 148.796 261 148.415 261C148.033 261 147.711 260.883 147.447 260.648C147.212 260.384 147.095 260.061 147.095 259.68V256.732C146.361 258.052 145.261 259.167 143.795 260.076C142.328 260.985 140.729 261.44 138.999 261.44C137.033 261.44 135.259 260.927 133.675 259.9C132.12 258.873 130.888 257.465 129.979 255.676C129.099 253.887 128.659 251.877 128.659 249.648C128.659 247.419 129.113 245.424 130.023 243.664C130.932 241.875 132.164 240.481 133.719 239.484C135.303 238.487 137.048 237.988 138.955 237.988C140.715 237.988 142.328 238.413 143.795 239.264C145.261 240.115 146.361 241.229 147.095 242.608V239.88C147.095 239.499 147.212 239.176 147.447 238.912C147.711 238.648 148.033 238.516 148.415 238.516ZM139.263 258.976C140.788 258.976 142.152 258.58 143.355 257.788C144.587 256.967 145.54 255.852 146.215 254.444C146.919 253.007 147.271 251.408 147.271 249.648C147.271 247.947 146.919 246.392 146.215 244.984C145.54 243.576 144.587 242.476 143.355 241.684C142.152 240.863 140.788 240.452 139.263 240.452C137.737 240.452 136.359 240.848 135.127 241.64C133.924 242.432 132.971 243.532 132.267 244.94C131.592 246.319 131.255 247.888 131.255 249.648C131.255 251.408 131.592 253.007 132.267 254.444C132.941 255.852 133.88 256.967 135.083 257.788C136.315 258.58 137.708 258.976 139.263 258.976ZM182.143 238.34C184.783 238.34 186.719 239.161 187.951 240.804C189.213 242.417 189.843 244.559 189.843 247.228V259.68C189.843 260.061 189.711 260.384 189.447 260.648C189.213 260.883 188.905 261 188.523 261C188.142 261 187.819 260.883 187.555 260.648C187.321 260.384 187.203 260.061 187.203 259.68V247.36C187.203 245.424 186.734 243.855 185.795 242.652C184.886 241.42 183.463 240.804 181.527 240.804C180.295 240.804 179.122 241.097 178.007 241.684C176.922 242.271 176.042 243.077 175.367 244.104C174.693 245.101 174.355 246.187 174.355 247.36V259.68C174.355 260.061 174.223 260.384 173.959 260.648C173.725 260.883 173.417 261 173.035 261C172.654 261 172.331 260.883 172.067 260.648C171.833 260.384 171.715 260.061 171.715 259.68V247.228C171.715 245.321 171.275 243.781 170.395 242.608C169.515 241.405 168.137 240.804 166.259 240.804C165.057 240.804 163.913 241.097 162.827 241.684C161.771 242.271 160.906 243.063 160.231 244.06C159.586 245.028 159.263 246.084 159.263 247.228V259.68C159.263 260.061 159.131 260.384 158.867 260.648C158.633 260.883 158.325 261 157.943 261C157.562 261 157.239 260.883 156.975 260.648C156.741 260.384 156.623 260.061 156.623 259.68V239.968C156.623 239.587 156.741 239.279 156.975 239.044C157.239 238.78 157.562 238.648 157.943 238.648C158.325 238.648 158.633 238.78 158.867 239.044C159.131 239.279 159.263 239.587 159.263 239.968V242.52C160.055 241.317 161.126 240.32 162.475 239.528C163.825 238.736 165.247 238.34 166.743 238.34C168.445 238.34 169.911 238.751 171.143 239.572C172.375 240.393 173.255 241.596 173.783 243.18C174.399 241.889 175.529 240.76 177.171 239.792C178.814 238.824 180.471 238.34 182.143 238.34ZM199.308 259.68C199.308 260.061 199.176 260.384 198.912 260.648C198.677 260.883 198.369 261 197.988 261C197.607 261 197.284 260.883 197.02 260.648C196.785 260.384 196.668 260.061 196.668 259.68V239.44C196.668 239.059 196.785 238.751 197.02 238.516C197.284 238.252 197.607 238.12 197.988 238.12C198.369 238.12 198.677 238.252 198.912 238.516C199.176 238.751 199.308 239.059 199.308 239.44V259.68ZM197.46 236.756C197.284 236.756 197.123 236.683 196.976 236.536C196.829 236.36 196.756 236.169 196.756 235.964C196.756 235.788 196.829 235.583 196.976 235.348L199.66 231.168C200.012 230.523 200.511 230.2 201.156 230.2C201.596 230.2 201.948 230.317 202.212 230.552C202.476 230.787 202.593 231.124 202.564 231.564C202.564 231.887 202.417 232.224 202.124 232.576L198.824 236.052C198.355 236.521 197.9 236.756 197.46 236.756ZM209.07 259.68C209.07 260.061 208.938 260.384 208.674 260.648C208.44 260.883 208.132 261 207.75 261C207.369 261 207.046 260.883 206.782 260.648C206.548 260.384 206.43 260.061 206.43 259.68V229.76C206.43 229.379 206.548 229.071 206.782 228.836C207.046 228.572 207.369 228.44 207.75 228.44C208.132 228.44 208.44 228.572 208.674 228.836C208.938 229.071 209.07 229.379 209.07 229.76V259.68ZM218.859 259.68C218.859 260.061 218.727 260.384 218.463 260.648C218.228 260.883 217.92 261 217.539 261C217.158 261 216.835 260.883 216.571 260.648C216.336 260.384 216.219 260.061 216.219 259.68V239.44C216.219 239.059 216.336 238.751 216.571 238.516C216.835 238.252 217.158 238.12 217.539 238.12C217.92 238.12 218.228 238.252 218.463 238.516C218.727 238.751 218.859 239.059 218.859 239.44V259.68ZM217.539 235.172C216.952 235.172 216.498 235.04 216.175 234.776C215.852 234.483 215.691 234.072 215.691 233.544V233.104C215.691 232.576 215.852 232.18 216.175 231.916C216.527 231.623 216.996 231.476 217.583 231.476C218.756 231.476 219.343 232.019 219.343 233.104V233.544C219.343 234.072 219.182 234.483 218.859 234.776C218.566 235.04 218.126 235.172 217.539 235.172ZM243.977 238.516C244.358 238.516 244.666 238.648 244.901 238.912C245.165 239.176 245.297 239.499 245.297 239.88V259.68C245.297 260.061 245.165 260.384 244.901 260.648C244.666 260.883 244.358 261 243.977 261C243.596 261 243.273 260.883 243.009 260.648C242.774 260.384 242.657 260.061 242.657 259.68V256.732C241.924 258.052 240.824 259.167 239.357 260.076C237.89 260.985 236.292 261.44 234.561 261.44C232.596 261.44 230.821 260.927 229.237 259.9C227.682 258.873 226.45 257.465 225.541 255.676C224.661 253.887 224.221 251.877 224.221 249.648C224.221 247.419 224.676 245.424 225.585 243.664C226.494 241.875 227.726 240.481 229.281 239.484C230.865 238.487 232.61 237.988 234.517 237.988C236.277 237.988 237.89 238.413 239.357 239.264C240.824 240.115 241.924 241.229 242.657 242.608V239.88C242.657 239.499 242.774 239.176 243.009 238.912C243.273 238.648 243.596 238.516 243.977 238.516ZM234.825 258.976C236.35 258.976 237.714 258.58 238.917 257.788C240.149 256.967 241.102 255.852 241.777 254.444C242.481 253.007 242.833 251.408 242.833 249.648C242.833 247.947 242.481 246.392 241.777 244.984C241.102 243.576 240.149 242.476 238.917 241.684C237.714 240.863 236.35 240.452 234.825 240.452C233.3 240.452 231.921 240.848 230.689 241.64C229.486 242.432 228.533 243.532 227.829 244.94C227.154 246.319 226.817 247.888 226.817 249.648C226.817 251.408 227.154 253.007 227.829 254.444C228.504 255.852 229.442 256.967 230.645 257.788C231.877 258.58 233.27 258.976 234.825 258.976ZM274.909 238.34C276.845 238.34 278.605 238.839 280.189 239.836C281.773 240.804 283.005 242.168 283.885 243.928C284.794 245.659 285.249 247.609 285.249 249.78C285.249 251.98 284.794 253.96 283.885 255.72C283.005 257.451 281.773 258.815 280.189 259.812C278.634 260.809 276.889 261.308 274.953 261.308C273.252 261.308 271.682 260.912 270.245 260.12C268.837 259.299 267.708 258.213 266.857 256.864V268.48C266.857 268.861 266.725 269.169 266.461 269.404C266.226 269.668 265.918 269.8 265.537 269.8C265.156 269.8 264.833 269.668 264.569 269.404C264.334 269.169 264.217 268.861 264.217 268.48V239.792C264.217 239.411 264.334 239.088 264.569 238.824C264.833 238.56 265.156 238.428 265.537 238.428C265.918 238.428 266.226 238.56 266.461 238.824C266.725 239.088 266.857 239.411 266.857 239.792V242.784C267.62 241.405 268.72 240.32 270.157 239.528C271.594 238.736 273.178 238.34 274.909 238.34ZM274.689 258.844C276.214 258.844 277.578 258.463 278.781 257.7C280.013 256.908 280.966 255.823 281.641 254.444C282.345 253.065 282.697 251.511 282.697 249.78C282.697 248.079 282.345 246.553 281.641 245.204C280.966 243.825 280.013 242.755 278.781 241.992C277.578 241.2 276.214 240.804 274.689 240.804C273.134 240.804 271.741 241.185 270.509 241.948C269.277 242.711 268.324 243.781 267.649 245.16C266.974 246.509 266.637 248.049 266.637 249.78C266.637 251.511 266.974 253.065 267.649 254.444C268.324 255.823 269.277 256.908 270.509 257.7C271.741 258.463 273.134 258.844 274.689 258.844ZM311.454 249.736C311.454 251.936 310.97 253.931 310.002 255.72C309.034 257.509 307.699 258.917 305.998 259.944C304.296 260.941 302.404 261.44 300.322 261.44C298.239 261.44 296.347 260.941 294.646 259.944C292.944 258.917 291.61 257.509 290.642 255.72C289.674 253.931 289.19 251.936 289.19 249.736C289.19 247.536 289.674 245.541 290.642 243.752C291.61 241.963 292.944 240.555 294.646 239.528C296.347 238.501 298.239 237.988 300.322 237.988C302.404 237.988 304.296 238.501 305.998 239.528C307.699 240.555 309.034 241.963 310.002 243.752C310.97 245.541 311.454 247.536 311.454 249.736ZM308.814 249.736C308.814 247.976 308.447 246.392 307.714 244.984C306.98 243.576 305.954 242.476 304.634 241.684C303.343 240.863 301.906 240.452 300.322 240.452C298.738 240.452 297.3 240.863 296.01 241.684C294.719 242.476 293.692 243.576 292.93 244.984C292.196 246.392 291.83 247.976 291.83 249.736C291.83 251.467 292.196 253.036 292.93 254.444C293.692 255.852 294.719 256.967 296.01 257.788C297.3 258.58 298.738 258.976 300.322 258.976C301.906 258.976 303.343 258.58 304.634 257.788C305.954 256.996 306.98 255.896 307.714 254.488C308.447 253.08 308.814 251.496 308.814 249.736ZM327.37 237.988C327.956 237.988 328.484 238.105 328.954 238.34C329.423 238.575 329.658 238.927 329.658 239.396C329.658 239.807 329.54 240.144 329.306 240.408C329.071 240.643 328.792 240.76 328.47 240.76C328.323 240.76 328.03 240.687 327.59 240.54C327.179 240.393 326.783 240.32 326.402 240.32C325.316 240.32 324.231 240.745 323.146 241.596C322.09 242.417 321.21 243.488 320.506 244.808C319.831 246.128 319.494 247.463 319.494 248.812V259.68C319.494 260.061 319.362 260.384 319.098 260.648C318.863 260.883 318.555 261 318.174 261C317.792 261 317.47 260.883 317.206 260.648C316.971 260.384 316.854 260.061 316.854 259.68V239.968C316.854 239.587 316.971 239.279 317.206 239.044C317.47 238.78 317.792 238.648 318.174 238.648C318.555 238.648 318.863 238.78 319.098 239.044C319.362 239.279 319.494 239.587 319.494 239.968V243.84C320.168 242.168 321.18 240.789 322.53 239.704C323.908 238.589 325.522 238.017 327.37 237.988ZM350.215 241.068V255.808C350.215 256.923 350.42 257.685 350.831 258.096C351.241 258.477 351.784 258.668 352.459 258.668C352.635 258.668 352.855 258.639 353.119 258.58C353.383 258.492 353.588 258.448 353.735 258.448C353.999 258.448 354.219 258.565 354.395 258.8C354.6 259.005 354.703 259.255 354.703 259.548C354.703 259.959 354.468 260.311 353.999 260.604C353.529 260.868 352.972 261 352.327 261C351.535 261 350.831 260.927 350.215 260.78C349.599 260.633 348.997 260.193 348.411 259.46C347.853 258.727 347.575 257.553 347.575 255.94V241.068H344.363C344.011 241.068 343.703 240.951 343.439 240.716C343.204 240.481 343.087 240.188 343.087 239.836C343.087 239.484 343.204 239.191 343.439 238.956C343.703 238.721 344.011 238.604 344.363 238.604H347.575V233.72C347.575 233.339 347.692 233.031 347.927 232.796C348.191 232.532 348.513 232.4 348.895 232.4C349.276 232.4 349.584 232.532 349.819 232.796C350.083 233.031 350.215 233.339 350.215 233.72V238.604H354.615C354.937 238.604 355.216 238.736 355.451 239C355.715 239.264 355.847 239.557 355.847 239.88C355.847 240.232 355.729 240.525 355.495 240.76C355.26 240.965 354.967 241.068 354.615 241.068H350.215ZM381.278 249.736C381.278 251.936 380.794 253.931 379.826 255.72C378.858 257.509 377.523 258.917 375.822 259.944C374.121 260.941 372.229 261.44 370.146 261.44C368.063 261.44 366.171 260.941 364.47 259.944C362.769 258.917 361.434 257.509 360.466 255.72C359.498 253.931 359.014 251.936 359.014 249.736C359.014 247.536 359.498 245.541 360.466 243.752C361.434 241.963 362.769 240.555 364.47 239.528C366.171 238.501 368.063 237.988 370.146 237.988C372.229 237.988 374.121 238.501 375.822 239.528C377.523 240.555 378.858 241.963 379.826 243.752C380.794 245.541 381.278 247.536 381.278 249.736ZM378.638 249.736C378.638 247.976 378.271 246.392 377.538 244.984C376.805 243.576 375.778 242.476 374.458 241.684C373.167 240.863 371.73 240.452 370.146 240.452C368.562 240.452 367.125 240.863 365.834 241.684C364.543 242.476 363.517 243.576 362.754 244.984C362.021 246.392 361.654 247.976 361.654 249.736C361.654 251.467 362.021 253.036 362.754 254.444C363.517 255.852 364.543 256.967 365.834 257.788C367.125 258.58 368.562 258.976 370.146 258.976C371.73 258.976 373.167 258.58 374.458 257.788C375.778 256.996 376.805 255.896 377.538 254.488C378.271 253.08 378.638 251.496 378.638 249.736ZM404.938 228.44C405.319 228.44 405.627 228.572 405.862 228.836C406.126 229.071 406.258 229.379 406.258 229.76V259.68C406.258 260.061 406.126 260.384 405.862 260.648C405.627 260.883 405.319 261 404.938 261C404.557 261 404.234 260.883 403.97 260.648C403.735 260.384 403.618 260.061 403.618 259.68V256.6C402.885 257.949 401.785 259.093 400.318 260.032C398.881 260.971 397.282 261.44 395.522 261.44C393.586 261.44 391.826 260.941 390.242 259.944C388.687 258.917 387.455 257.509 386.546 255.72C385.637 253.931 385.182 251.921 385.182 249.692C385.182 247.492 385.637 245.497 386.546 243.708C387.455 241.919 388.687 240.525 390.242 239.528C391.826 238.501 393.571 237.988 395.478 237.988C397.209 237.988 398.807 238.428 400.274 239.308C401.741 240.159 402.855 241.273 403.618 242.652V229.76C403.618 229.379 403.735 229.071 403.97 228.836C404.234 228.572 404.557 228.44 404.938 228.44ZM395.786 258.976C397.311 258.976 398.675 258.58 399.878 257.788C401.11 256.996 402.063 255.896 402.738 254.488C403.442 253.051 403.794 251.452 403.794 249.692C403.794 247.961 403.442 246.392 402.738 244.984C402.063 243.576 401.11 242.476 399.878 241.684C398.675 240.863 397.311 240.452 395.786 240.452C394.261 240.452 392.882 240.863 391.65 241.684C390.447 242.476 389.494 243.576 388.79 244.984C388.115 246.392 387.778 247.961 387.778 249.692C387.778 251.452 388.115 253.036 388.79 254.444C389.494 255.852 390.447 256.967 391.65 257.788C392.882 258.58 394.261 258.976 395.786 258.976ZM433.915 249.736C433.915 251.936 433.431 253.931 432.463 255.72C431.495 257.509 430.16 258.917 428.459 259.944C426.757 260.941 424.865 261.44 422.783 261.44C420.7 261.44 418.808 260.941 417.107 259.944C415.405 258.917 414.071 257.509 413.103 255.72C412.135 253.931 411.651 251.936 411.651 249.736C411.651 247.536 412.135 245.541 413.103 243.752C414.071 241.963 415.405 240.555 417.107 239.528C418.808 238.501 420.7 237.988 422.783 237.988C424.865 237.988 426.757 238.501 428.459 239.528C430.16 240.555 431.495 241.963 432.463 243.752C433.431 245.541 433.915 247.536 433.915 249.736ZM431.275 249.736C431.275 247.976 430.908 246.392 430.175 244.984C429.441 243.576 428.415 242.476 427.095 241.684C425.804 240.863 424.367 240.452 422.783 240.452C421.199 240.452 419.761 240.863 418.471 241.684C417.18 242.476 416.153 243.576 415.391 244.984C414.657 246.392 414.291 247.976 414.291 249.736C414.291 251.467 414.657 253.036 415.391 254.444C416.153 255.852 417.18 256.967 418.471 257.788C419.761 258.58 421.199 258.976 422.783 258.976C424.367 258.976 425.804 258.58 427.095 257.788C428.415 256.996 429.441 255.896 430.175 254.488C430.908 253.08 431.275 251.496 431.275 249.736ZM438.039 257.436C437.804 257.055 437.687 256.732 437.687 256.468C437.687 256.087 437.877 255.793 438.259 255.588C438.435 255.412 438.669 255.324 438.963 255.324C439.315 255.324 439.637 255.471 439.931 255.764C441.661 258.052 443.964 259.196 446.839 259.196C448.247 259.196 449.464 258.873 450.491 258.228C451.547 257.553 452.075 256.585 452.075 255.324C452.075 254.092 451.591 253.168 450.623 252.552C449.655 251.936 448.305 251.408 446.575 250.968C444.14 250.352 442.233 249.56 440.855 248.592C439.476 247.595 438.787 246.143 438.787 244.236C438.787 243.033 439.124 241.963 439.799 241.024C440.473 240.056 441.383 239.308 442.527 238.78C443.7 238.252 445.02 237.988 446.487 237.988C447.748 237.988 449.009 238.237 450.271 238.736C451.561 239.205 452.661 239.968 453.571 241.024C453.835 241.229 453.967 241.523 453.967 241.904C453.967 242.256 453.82 242.564 453.527 242.828C453.321 243.004 453.057 243.092 452.735 243.092C452.441 243.092 452.177 242.975 451.943 242.74C451.239 241.948 450.403 241.347 449.435 240.936C448.467 240.525 447.425 240.32 446.311 240.32C444.932 240.32 443.744 240.643 442.747 241.288C441.779 241.933 441.295 242.901 441.295 244.192C441.353 245.365 441.881 246.26 442.879 246.876C443.905 247.492 445.401 248.049 447.367 248.548C448.892 248.929 450.153 249.355 451.151 249.824C452.148 250.293 452.955 250.953 453.571 251.804C454.216 252.655 454.539 253.784 454.539 255.192C454.539 257.099 453.776 258.624 452.251 259.768C450.725 260.883 448.833 261.44 446.575 261.44C442.996 261.44 440.151 260.105 438.039 257.436ZM463.328 260.868C463.328 261.689 463.108 262.511 462.668 263.332C462.257 264.183 461.729 264.872 461.084 265.4C460.438 265.957 459.808 266.236 459.192 266.236C458.869 266.236 458.59 266.148 458.356 265.972C458.15 265.825 458.048 265.591 458.048 265.268C458.048 264.975 458.121 264.769 458.268 264.652C458.414 264.535 458.634 264.432 458.928 264.344C459.25 264.256 459.485 264.168 459.632 264.08C460.042 263.875 460.35 263.567 460.556 263.156C460.79 262.775 460.908 262.349 460.908 261.88C460.908 261.557 460.82 261.293 460.644 261.088C460.468 260.883 460.233 260.78 459.94 260.78C459.47 260.78 459.074 260.912 458.752 261.176C458.4 260.883 458.224 260.531 458.224 260.12C458.224 259.592 458.488 259.137 459.016 258.756C459.544 258.345 460.116 258.14 460.732 258.14C461.494 258.14 462.11 258.389 462.58 258.888C463.078 259.357 463.328 260.017 463.328 260.868ZM484.922 241.068V255.808C484.922 256.923 485.127 257.685 485.538 258.096C485.948 258.477 486.491 258.668 487.166 258.668C487.342 258.668 487.562 258.639 487.826 258.58C488.09 258.492 488.295 258.448 488.442 258.448C488.706 258.448 488.926 258.565 489.102 258.8C489.307 259.005 489.41 259.255 489.41 259.548C489.41 259.959 489.175 260.311 488.706 260.604C488.236 260.868 487.679 261 487.034 261C486.242 261 485.538 260.927 484.922 260.78C484.306 260.633 483.704 260.193 483.118 259.46C482.56 258.727 482.282 257.553 482.282 255.94V241.068H479.07C478.718 241.068 478.41 240.951 478.146 240.716C477.911 240.481 477.794 240.188 477.794 239.836C477.794 239.484 477.911 239.191 478.146 238.956C478.41 238.721 478.718 238.604 479.07 238.604H482.282V233.72C482.282 233.339 482.399 233.031 482.634 232.796C482.898 232.532 483.22 232.4 483.602 232.4C483.983 232.4 484.291 232.532 484.526 232.796C484.79 233.031 484.922 233.339 484.922 233.72V238.604H489.322C489.644 238.604 489.923 238.736 490.158 239C490.422 239.264 490.554 239.557 490.554 239.88C490.554 240.232 490.436 240.525 490.202 240.76C489.967 240.965 489.674 241.068 489.322 241.068H484.922ZM515.985 249.736C515.985 251.936 515.501 253.931 514.533 255.72C513.565 257.509 512.23 258.917 510.529 259.944C508.828 260.941 506.936 261.44 504.853 261.44C502.77 261.44 500.878 260.941 499.177 259.944C497.476 258.917 496.141 257.509 495.173 255.72C494.205 253.931 493.721 251.936 493.721 249.736C493.721 247.536 494.205 245.541 495.173 243.752C496.141 241.963 497.476 240.555 499.177 239.528C500.878 238.501 502.77 237.988 504.853 237.988C506.936 237.988 508.828 238.501 510.529 239.528C512.23 240.555 513.565 241.963 514.533 243.752C515.501 245.541 515.985 247.536 515.985 249.736ZM513.345 249.736C513.345 247.976 512.978 246.392 512.245 244.984C511.512 243.576 510.485 242.476 509.165 241.684C507.874 240.863 506.437 240.452 504.853 240.452C503.269 240.452 501.832 240.863 500.541 241.684C499.25 242.476 498.224 243.576 497.461 244.984C496.728 246.392 496.361 247.976 496.361 249.736C496.361 251.467 496.728 253.036 497.461 254.444C498.224 255.852 499.25 256.967 500.541 257.788C501.832 258.58 503.269 258.976 504.853 258.976C506.437 258.976 507.874 258.58 509.165 257.788C510.485 256.996 511.512 255.896 512.245 254.488C512.978 253.08 513.345 251.496 513.345 249.736ZM539.645 228.44C540.026 228.44 540.334 228.572 540.569 228.836C540.833 229.071 540.965 229.379 540.965 229.76V259.68C540.965 260.061 540.833 260.384 540.569 260.648C540.334 260.883 540.026 261 539.645 261C539.264 261 538.941 260.883 538.677 260.648C538.442 260.384 538.325 260.061 538.325 259.68V256.6C537.592 257.949 536.492 259.093 535.025 260.032C533.588 260.971 531.989 261.44 530.229 261.44C528.293 261.44 526.533 260.941 524.949 259.944C523.394 258.917 522.162 257.509 521.253 255.72C520.344 253.931 519.889 251.921 519.889 249.692C519.889 247.492 520.344 245.497 521.253 243.708C522.162 241.919 523.394 240.525 524.949 239.528C526.533 238.501 528.278 237.988 530.185 237.988C531.916 237.988 533.514 238.428 534.981 239.308C536.448 240.159 537.562 241.273 538.325 242.652V229.76C538.325 229.379 538.442 229.071 538.677 228.836C538.941 228.572 539.264 228.44 539.645 228.44ZM530.493 258.976C532.018 258.976 533.382 258.58 534.585 257.788C535.817 256.996 536.77 255.896 537.445 254.488C538.149 253.051 538.501 251.452 538.501 249.692C538.501 247.961 538.149 246.392 537.445 244.984C536.77 243.576 535.817 242.476 534.585 241.684C533.382 240.863 532.018 240.452 530.493 240.452C528.968 240.452 527.589 240.863 526.357 241.684C525.154 242.476 524.201 243.576 523.497 244.984C522.822 246.392 522.485 247.961 522.485 249.692C522.485 251.452 522.822 253.036 523.497 254.444C524.201 255.852 525.154 256.967 526.357 257.788C527.589 258.58 528.968 258.976 530.493 258.976ZM568.622 249.736C568.622 251.936 568.138 253.931 567.17 255.72C566.202 257.509 564.867 258.917 563.166 259.944C561.464 260.941 559.572 261.44 557.49 261.44C555.407 261.44 553.515 260.941 551.814 259.944C550.112 258.917 548.778 257.509 547.81 255.72C546.842 253.931 546.358 251.936 546.358 249.736C546.358 247.536 546.842 245.541 547.81 243.752C548.778 241.963 550.112 240.555 551.814 239.528C553.515 238.501 555.407 237.988 557.49 237.988C559.572 237.988 561.464 238.501 563.166 239.528C564.867 240.555 566.202 241.963 567.17 243.752C568.138 245.541 568.622 247.536 568.622 249.736ZM565.982 249.736C565.982 247.976 565.615 246.392 564.882 244.984C564.148 243.576 563.122 242.476 561.802 241.684C560.511 240.863 559.074 240.452 557.49 240.452C555.906 240.452 554.468 240.863 553.178 241.684C551.887 242.476 550.86 243.576 550.098 244.984C549.364 246.392 548.998 247.976 548.998 249.736C548.998 251.467 549.364 253.036 550.098 254.444C550.86 255.852 551.887 256.967 553.178 257.788C554.468 258.58 555.906 258.976 557.49 258.976C559.074 258.976 560.511 258.58 561.802 257.788C563.122 256.996 564.148 255.896 564.882 254.488C565.615 253.08 565.982 251.496 565.982 249.736ZM572.746 257.436C572.511 257.055 572.394 256.732 572.394 256.468C572.394 256.087 572.584 255.793 572.966 255.588C573.142 255.412 573.376 255.324 573.67 255.324C574.022 255.324 574.344 255.471 574.638 255.764C576.368 258.052 578.671 259.196 581.546 259.196C582.954 259.196 584.171 258.873 585.198 258.228C586.254 257.553 586.782 256.585 586.782 255.324C586.782 254.092 586.298 253.168 585.33 252.552C584.362 251.936 583.012 251.408 581.282 250.968C578.847 250.352 576.94 249.56 575.562 248.592C574.183 247.595 573.494 246.143 573.494 244.236C573.494 243.033 573.831 241.963 574.506 241.024C575.18 240.056 576.09 239.308 577.234 238.78C578.407 238.252 579.727 237.988 581.194 237.988C582.455 237.988 583.716 238.237 584.978 238.736C586.268 239.205 587.368 239.968 588.278 241.024C588.542 241.229 588.674 241.523 588.674 241.904C588.674 242.256 588.527 242.564 588.234 242.828C588.028 243.004 587.764 243.092 587.442 243.092C587.148 243.092 586.884 242.975 586.65 242.74C585.946 241.948 585.11 241.347 584.142 240.936C583.174 240.525 582.132 240.32 581.018 240.32C579.639 240.32 578.451 240.643 577.454 241.288C576.486 241.933 576.002 242.901 576.002 244.192C576.06 245.365 576.588 246.26 577.586 246.876C578.612 247.492 580.108 248.049 582.074 248.548C583.599 248.929 584.86 249.355 585.858 249.824C586.855 250.293 587.662 250.953 588.278 251.804C588.923 252.655 589.246 253.784 589.246 255.192C589.246 257.099 588.483 258.624 586.958 259.768C585.432 260.883 583.54 261.44 581.282 261.44C577.703 261.44 574.858 260.105 572.746 257.436ZM617.37 238.34C619.306 238.34 621.066 238.839 622.65 239.836C624.234 240.804 625.466 242.168 626.346 243.928C627.255 245.659 627.71 247.609 627.71 249.78C627.71 251.98 627.255 253.96 626.346 255.72C625.466 257.451 624.234 258.815 622.65 259.812C621.095 260.809 619.35 261.308 617.414 261.308C615.713 261.308 614.143 260.912 612.706 260.12C611.298 259.299 610.169 258.213 609.318 256.864V268.48C609.318 268.861 609.186 269.169 608.922 269.404C608.687 269.668 608.379 269.8 607.998 269.8C607.617 269.8 607.294 269.668 607.03 269.404C606.795 269.169 606.678 268.861 606.678 268.48V239.792C606.678 239.411 606.795 239.088 607.03 238.824C607.294 238.56 607.617 238.428 607.998 238.428C608.379 238.428 608.687 238.56 608.922 238.824C609.186 239.088 609.318 239.411 609.318 239.792V242.784C610.081 241.405 611.181 240.32 612.618 239.528C614.055 238.736 615.639 238.34 617.37 238.34ZM617.15 258.844C618.675 258.844 620.039 258.463 621.242 257.7C622.474 256.908 623.427 255.823 624.102 254.444C624.806 253.065 625.158 251.511 625.158 249.78C625.158 248.079 624.806 246.553 624.102 245.204C623.427 243.825 622.474 242.755 621.242 241.992C620.039 241.2 618.675 240.804 617.15 240.804C615.595 240.804 614.202 241.185 612.97 241.948C611.738 242.711 610.785 243.781 610.11 245.16C609.435 246.509 609.098 248.049 609.098 249.78C609.098 251.511 609.435 253.065 610.11 254.444C610.785 255.823 611.738 256.908 612.97 257.7C614.202 258.463 615.595 258.844 617.15 258.844ZM653.915 249.736C653.915 251.936 653.431 253.931 652.463 255.72C651.495 257.509 650.16 258.917 648.459 259.944C646.757 260.941 644.865 261.44 642.783 261.44C640.7 261.44 638.808 260.941 637.107 259.944C635.405 258.917 634.071 257.509 633.103 255.72C632.135 253.931 631.651 251.936 631.651 249.736C631.651 247.536 632.135 245.541 633.103 243.752C634.071 241.963 635.405 240.555 637.107 239.528C638.808 238.501 640.7 237.988 642.783 237.988C644.865 237.988 646.757 238.501 648.459 239.528C650.16 240.555 651.495 241.963 652.463 243.752C653.431 245.541 653.915 247.536 653.915 249.736ZM651.275 249.736C651.275 247.976 650.908 246.392 650.175 244.984C649.441 243.576 648.415 242.476 647.095 241.684C645.804 240.863 644.367 240.452 642.783 240.452C641.199 240.452 639.761 240.863 638.471 241.684C637.18 242.476 636.153 243.576 635.391 244.984C634.657 246.392 634.291 247.976 634.291 249.736C634.291 251.467 634.657 253.036 635.391 254.444C636.153 255.852 637.18 256.967 638.471 257.788C639.761 258.58 641.199 258.976 642.783 258.976C644.367 258.976 645.804 258.58 647.095 257.788C648.415 256.996 649.441 255.896 650.175 254.488C650.908 253.08 651.275 251.496 651.275 249.736ZM669.831 237.988C670.417 237.988 670.945 238.105 671.415 238.34C671.884 238.575 672.119 238.927 672.119 239.396C672.119 239.807 672.001 240.144 671.767 240.408C671.532 240.643 671.253 240.76 670.931 240.76C670.784 240.76 670.491 240.687 670.051 240.54C669.64 240.393 669.244 240.32 668.863 240.32C667.777 240.32 666.692 240.745 665.607 241.596C664.551 242.417 663.671 243.488 662.967 244.808C662.292 246.128 661.955 247.463 661.955 248.812V259.68C661.955 260.061 661.823 260.384 661.559 260.648C661.324 260.883 661.016 261 660.635 261C660.253 261 659.931 260.883 659.667 260.648C659.432 260.384 659.315 260.061 659.315 259.68V239.968C659.315 239.587 659.432 239.279 659.667 239.044C659.931 238.78 660.253 238.648 660.635 238.648C661.016 238.648 661.324 238.78 661.559 239.044C661.823 239.279 661.955 239.587 661.955 239.968V243.84C662.629 242.168 663.641 240.789 664.991 239.704C666.369 238.589 667.983 238.017 669.831 237.988ZM705.084 238.648C705.465 238.648 705.773 238.78 706.008 239.044C706.272 239.279 706.404 239.587 706.404 239.968V252.376C706.404 255.251 705.597 257.465 703.984 259.02C702.37 260.545 700.141 261.308 697.296 261.308C694.48 261.308 692.265 260.545 690.652 259.02C689.068 257.465 688.276 255.251 688.276 252.376V239.968C688.276 239.587 688.393 239.279 688.628 239.044C688.892 238.78 689.214 238.648 689.596 238.648C689.977 238.648 690.285 238.78 690.52 239.044C690.784 239.279 690.916 239.587 690.916 239.968V252.376C690.916 254.488 691.473 256.101 692.588 257.216C693.702 258.301 695.272 258.844 697.296 258.844C699.349 258.844 700.933 258.301 702.048 257.216C703.192 256.101 703.764 254.488 703.764 252.376V239.968C703.764 239.587 703.881 239.279 704.116 239.044C704.38 238.78 704.702 238.648 705.084 238.648ZM738.846 238.34C741.486 238.34 743.422 239.161 744.654 240.804C745.916 242.417 746.546 244.559 746.546 247.228V259.68C746.546 260.061 746.414 260.384 746.15 260.648C745.916 260.883 745.608 261 745.226 261C744.845 261 744.522 260.883 744.258 260.648C744.024 260.384 743.906 260.061 743.906 259.68V247.36C743.906 245.424 743.437 243.855 742.498 242.652C741.589 241.42 740.166 240.804 738.23 240.804C736.998 240.804 735.825 241.097 734.71 241.684C733.625 242.271 732.745 243.077 732.07 244.104C731.396 245.101 731.058 246.187 731.058 247.36V259.68C731.058 260.061 730.926 260.384 730.662 260.648C730.428 260.883 730.12 261 729.738 261C729.357 261 729.034 260.883 728.77 260.648C728.536 260.384 728.418 260.061 728.418 259.68V247.228C728.418 245.321 727.978 243.781 727.098 242.608C726.218 241.405 724.84 240.804 722.962 240.804C721.76 240.804 720.616 241.097 719.53 241.684C718.474 242.271 717.609 243.063 716.934 244.06C716.289 245.028 715.966 246.084 715.966 247.228V259.68C715.966 260.061 715.834 260.384 715.57 260.648C715.336 260.883 715.028 261 714.646 261C714.265 261 713.942 260.883 713.678 260.648C713.444 260.384 713.326 260.061 713.326 259.68V239.968C713.326 239.587 713.444 239.279 713.678 239.044C713.942 238.78 714.265 238.648 714.646 238.648C715.028 238.648 715.336 238.78 715.57 239.044C715.834 239.279 715.966 239.587 715.966 239.968V242.52C716.758 241.317 717.829 240.32 719.178 239.528C720.528 238.736 721.95 238.34 723.446 238.34C725.148 238.34 726.614 238.751 727.846 239.572C729.078 240.393 729.958 241.596 730.486 243.18C731.102 241.889 732.232 240.76 733.874 239.792C735.517 238.824 737.174 238.34 738.846 238.34ZM753.811 261C753.313 261 752.931 260.853 752.667 260.56C752.403 260.237 752.271 259.812 752.271 259.284V258.36C752.271 257.832 752.403 257.421 752.667 257.128C752.931 256.835 753.313 256.688 753.811 256.688H754.119C754.618 256.688 754.999 256.835 755.263 257.128C755.527 257.421 755.659 257.832 755.659 258.36V259.284C755.659 259.812 755.527 260.237 755.263 260.56C754.999 260.853 754.618 261 754.119 261H753.811Z" fill="#93E059"/>
<defs>
<filter id="filter0_i" x="25.1717" y="47.0601" width="802.079" height="174.14" filterUnits="userSpaceOnUse" color-interpolation-filters="sRGB">
<feFlood flood-opacity="0" result="BackgroundImageFix"/>
<feBlend mode="normal" in="SourceGraphic" in2="BackgroundImageFix" result="shape"/>
<feColorMatrix in="SourceAlpha" type="matrix" values="0 0 0 0 0 0 0 0 0 0 0 0 0 0 0 0 0 0 127 0" result="hardAlpha"/>
<feOffset dy="4"/>
<feGaussianBlur stdDeviation="2"/>
<feComposite in2="hardAlpha" operator="arithmetic" k2="-1" k3="1"/>
<feColorMatrix type="matrix" values="0 0 0 0 0 0 0 0 0 0 0 0 0 0 0 0 0 0 0.25 0"/>
<feBlend mode="normal" in2="shape" result="effect1_innerShadow"/>
</filter>
</defs>
</svg>
