<svg width="100" height="100" viewBox="0 0 100 100" fill="none" xmlns="http://www.w3.org/2000/svg">
<rect width="100" height="100" rx="50" fill="black" fill-opacity="0.29"/>
<path d="M66.4286 46.4286H54.2857C53.8913 46.4286 53.5714 46.1087 53.5714 45.7143V33.5714C53.5714 31.5991 51.9723 30 50 30C48.0277 30 46.4286 31.5991 46.4286 33.5714V45.7143C46.4286 46.1087 46.1087 46.4286 45.7143 46.4286H33.5714C31.5991 46.4286 30 48.0277 30 50C30 51.9723 31.5991 53.5714 33.5714 53.5714H45.7143C46.1087 53.5714 46.4286 53.8913 46.4286 54.2857V66.4286C46.4286 68.4009 48.0277 70 50 70C51.9723 70 53.5714 68.4009 53.5714 66.4286V54.2857C53.5714 53.8913 53.8913 53.5714 54.2857 53.5714H66.4286C68.4009 53.5714 70 51.9723 70 50C70 48.0277 68.4009 46.4286 66.4286 46.4286Z" fill="#93E059"/>
</svg>
