<svg width="120" height="120" viewBox="0 0 120 120" fill="none" xmlns="http://www.w3.org/2000/svg">
<rect width="120" height="120" rx="60" fill="#93E059" fill-opacity="0.52"/>
<path d="M76.4286 56.4286H64.2857C63.8913 56.4286 63.5714 56.1087 63.5714 55.7143V43.5714C63.5714 41.5991 61.9723 40 60 40C58.0277 40 56.4286 41.5991 56.4286 43.5714V55.7143C56.4286 56.1087 56.1087 56.4286 55.7143 56.4286H43.5714C41.5991 56.4286 40 58.0277 40 60C40 61.9723 41.5991 63.5714 43.5714 63.5714H55.7143C56.1087 63.5714 56.4286 63.8913 56.4286 64.2857V76.4286C56.4286 78.4009 58.0277 80 60 80C61.9723 80 63.5714 78.4009 63.5714 76.4286V64.2857C63.5714 63.8913 63.8913 63.5714 64.2857 63.5714H76.4286C78.4009 63.5714 80 61.9723 80 60C80 58.0277 78.4009 56.4286 76.4286 56.4286Z" fill="#4A5248"/>
</svg>
