<svg width="50" height="50" viewBox="0 0 50 50" fill="none" xmlns="http://www.w3.org/2000/svg">
<path d="M46.5909 20.4546H29.5454V3.4091C29.5454 1.52727 28.0181 0 26.1363 0H23.8637C21.9819 0 20.4546 1.52727 20.4546 3.4091V20.4546H3.4091C1.52727 20.4546 0 21.9819 0 23.8637V26.1363C0 28.0181 1.52727 29.5454 3.4091 29.5454H20.4546V46.5909C20.4546 48.4727 21.9819 50 23.8637 50H26.1363C28.0181 50 29.5454 48.4727 29.5454 46.5909V29.5454H46.5909C48.4727 29.5454 50 28.0181 50 26.1363V23.8637C50 21.9819 48.4727 20.4546 46.5909 20.4546Z" fill="#93E059"/>
</svg>
