<svg width="150" height="150" viewBox="0 0 150 150" fill="none" xmlns="http://www.w3.org/2000/svg">
<rect width="150" height="150" rx="75" fill="#C4C4C4"/>
<path d="M74.5 88C81.0584 88 86.375 82.9632 86.375 76.75C86.375 70.5368 81.0584 65.4999 74.5 65.4999C67.9416 65.4999 62.625 70.5368 62.625 76.75C62.625 82.9632 67.9416 88 74.5 88Z" fill="#4A5248"/>
<path d="M98.2499 58.75H90.7179C89.7658 58.75 88.8717 58.3985 88.198 57.7612L83.8562 53.648C82.7348 52.5856 81.2434 52 79.657 52H69.3429C67.7565 52 66.2651 52.5856 65.1437 53.648L60.8019 57.7612C60.1282 58.3985 59.2341 58.75 58.282 58.75H50.75C48.1303 58.75 46 60.7682 46 63.2499V92.5C46 94.9817 48.1303 97 50.75 97H98.25C100.87 97 103 94.9818 103 92.5V63.2499C103 60.7682 100.87 58.75 98.2499 58.75ZM74.4999 90.25C66.6421 90.25 60.25 84.1943 60.25 76.75C60.25 69.3057 66.6421 63.2499 74.4999 63.2499C82.3578 63.2499 88.7499 69.3057 88.7499 76.75C88.7499 84.1943 82.3578 90.25 74.4999 90.25ZM93.4999 70C92.1907 70 91.125 68.9903 91.125 67.75C91.125 66.5097 92.1907 65.5 93.4999 65.5C94.8092 65.5 95.8749 66.5097 95.8749 67.75C95.8749 68.9903 94.8092 70 93.4999 70Z" fill="#4A5248"/>
</svg>
