<svg width="411" height="525" viewBox="0 0 411 525" fill="none" xmlns="http://www.w3.org/2000/svg">
<path d="M345.883 71.2175C354.797 49.7128 344.59 25.0537 323.085 16.1399C301.58 7.22611 276.921 17.4331 268.007 38.9379C259.093 60.4427 269.3 85.1018 290.805 94.0155C312.31 102.929 336.969 92.7223 345.883 71.2175Z" fill="#4A5248"/>
<path d="M361.406 110.68C338.517 110.68 275.668 110.68 252.248 110.68C225.391 110.68 203.433 132.158 203.301 158.556V158.658V308.038C203.301 319.267 212.405 328.371 223.635 328.371C234.864 328.371 243.967 319.268 243.967 308.038V158.726C244.011 154.86 248.282 151.347 252.584 151.347V500.568C252.584 514.043 263.685 524.967 277.161 524.967C290.638 524.967 301.561 514.043 301.561 500.568V305.538H312.095V500.568C312.095 514.043 323.02 524.967 336.495 524.967C349.97 524.967 360.86 514.043 360.86 500.568C360.857 490.677 360.86 259.383 360.86 259.236H312.797C296.329 259.236 282.746 246.921 280.731 231C277.754 218.2 264.376 155.785 264.376 155.785C263.605 152.078 264.324 148.292 266.401 145.125C268.478 141.959 271.665 139.79 275.374 139.02L294.497 135.045C302.147 133.458 309.672 138.387 311.263 146.041L321.348 194.569H360.746L360.693 151.346H361.406C365.668 151.346 369.568 154.861 369.609 158.728V206.569H312.796C301.567 206.569 292.463 215.672 292.463 226.902C292.463 238.132 301.567 247.235 312.796 247.235H389.942C401.171 247.235 410.274 238.132 410.274 226.902C410.274 210.833 410.274 172.071 410.274 158.658C410.274 158.624 410.274 158.59 410.274 158.556C410.142 132.158 388.22 110.68 361.406 110.68V110.68Z" fill="#4A5248"/>
<path d="M299.575 148.471C299.356 147.415 298.42 146.687 297.382 146.687C297.231 146.687 297.078 146.702 296.925 146.734L277.801 150.709C277.01 150.873 276.573 151.383 276.383 151.673C276.194 151.962 275.899 152.565 276.064 153.356L287.235 207.114C292.457 200.378 300.278 195.762 309.197 194.774L299.575 148.471Z" fill="#4A5248"/>
<path d="M181.128 320.224C173.444 320.224 167.011 320.224 159.417 320.224V310.654C159.417 304.191 154.158 298.932 147.695 298.932H116.883C110.42 298.932 105.162 304.191 105.162 310.654V320.224C97.5702 320.224 91.1362 320.224 83.4517 320.224C74.1754 320.224 66.6559 327.744 66.6559 337.02V368.904H81.0405C85.6217 368.904 89.8916 370.245 93.4903 372.549V346.554C93.4903 343.258 96.1636 340.586 99.4591 340.586C102.756 340.586 105.428 343.258 105.428 346.554V393.844H114.472C118.695 393.844 122.705 394.768 126.321 396.411V346.554C126.321 343.258 128.994 340.586 132.289 340.586C135.586 340.586 138.258 343.258 138.258 346.554V406.477C141.379 411.073 143.206 416.617 143.206 422.58V498.458C143.206 504.726 141.183 510.526 137.765 515.254H151.853V518.953C151.853 522.275 154.547 524.968 157.868 524.968H172.976C176.298 524.968 178.991 522.275 178.991 518.953V515.254H181.128C190.404 515.254 197.924 507.735 197.924 498.459V337.021C197.925 327.745 190.404 320.224 181.128 320.224ZM147.479 320.224H117.1V310.871H147.479V320.224ZM170.095 491.077C170.095 494.374 167.422 497.046 164.126 497.046C160.829 497.046 158.157 494.374 158.157 491.077V346.554C158.157 343.258 160.829 340.586 164.126 340.586C167.423 340.586 170.095 343.258 170.095 346.554V491.077Z" fill="#4A5248"/>
<path d="M114.472 405.545H92.7609V392.066C92.7609 385.603 87.5025 380.345 81.0395 380.345H50.2272C43.7643 380.345 38.5058 385.603 38.5058 392.066V405.545H16.7958C7.51948 405.545 0 413.302 0 422.579V498.457C0 507.733 7.51948 515.252 16.7958 515.252H18.9328V518.951C18.9328 522.273 21.626 524.966 24.9475 524.966H40.0555C43.3771 524.966 46.0703 522.273 46.0703 518.951V515.252H85.1984V518.951C85.1984 522.273 87.8917 524.966 91.2132 524.966H91.6034H106.321C109.643 524.966 112.336 522.273 112.336 518.951V515.252H114.473C123.749 515.252 131.269 507.733 131.269 498.457V422.579C131.268 413.303 123.748 405.545 114.472 405.545V405.545ZM32.5 464.992C25.6449 464.992 20.0883 459.436 20.0883 452.58C20.0883 445.725 25.6449 440.169 32.5 440.169C39.3552 440.169 44.9118 445.725 44.9118 452.58C44.9118 459.436 39.3552 464.992 32.5 464.992ZM50.4434 392.283H80.8224V405.545H50.4434V392.283ZM74.4044 474.491C68.3536 474.491 63.4494 469.585 63.4494 463.535C63.4494 457.485 68.3536 452.58 74.4044 452.58C80.4552 452.58 85.3595 457.485 85.3595 463.535C85.3595 469.586 80.4552 474.491 74.4044 474.491ZM112.335 447.672C112.335 450.382 110.138 452.579 107.428 452.579H94.5018C90.612 445.472 83.0625 440.641 74.4054 440.641V434.767C74.4054 432.057 76.6025 429.86 79.3127 429.86H107.428C110.138 429.86 112.335 432.057 112.335 434.767V447.672Z" fill="#4A5248"/>
</svg>
