<svg width="374" height="235" viewBox="0 0 374 235" fill="none" xmlns="http://www.w3.org/2000/svg">
<rect width="374" height="235" rx="11" fill="#C4C4C4" fill-opacity="0.34"/>
<path d="M186.5 139.2C194.899 139.2 201.708 132.596 201.708 124.45C201.708 116.304 194.899 109.7 186.5 109.7C178.101 109.7 171.292 116.304 171.292 124.45C171.292 132.596 178.101 139.2 186.5 139.2Z" fill="#4A5248"/>
<path d="M216.916 100.85H207.27C206.051 100.85 204.906 100.389 204.043 99.5536L198.482 94.1606C197.046 92.7677 195.136 92 193.105 92H179.895C177.864 92 175.954 92.7677 174.517 94.1606L168.957 99.5536C168.094 100.389 166.949 100.85 165.73 100.85H156.083C152.728 100.85 150 103.496 150 106.75V145.1C150 148.354 152.728 151 156.083 151H216.917C220.272 151 223 148.354 223 145.1V106.75C223 103.496 220.272 100.85 216.916 100.85ZM186.5 142.15C176.436 142.15 168.25 134.21 168.25 124.45C168.25 114.69 176.436 106.75 186.5 106.75C196.564 106.75 204.75 114.69 204.75 124.45C204.75 134.21 196.564 142.15 186.5 142.15ZM210.833 115.6C209.157 115.6 207.792 114.276 207.792 112.65C207.792 111.024 209.157 109.7 210.833 109.7C212.51 109.7 213.875 111.024 213.875 112.65C213.875 114.276 212.51 115.6 210.833 115.6Z" fill="#4A5248"/>
</svg>
