<svg width="207" height="203" viewBox="0 0 207 203" fill="none" xmlns="http://www.w3.org/2000/svg">
<rect width="207.5" height="203" fill="#93E059"/>
<path d="M34.804 95.502C35.156 95.6927 35.332 95.986 35.332 96.382C35.332 96.646 35.244 96.888 35.068 97.108C34.892 97.3427 34.65 97.46 34.342 97.46C34.1367 97.46 33.9387 97.4087 33.748 97.306C32.8387 96.7927 31.856 96.536 30.8 96.536C29.7 96.536 28.7247 96.778 27.874 97.262C27.038 97.746 26.3853 98.428 25.916 99.308C25.4467 100.173 25.212 101.171 25.212 102.3C25.212 103.517 25.454 104.566 25.938 105.446C26.422 106.326 27.0893 107.001 27.94 107.47C28.7907 107.925 29.744 108.152 30.8 108.152C31.8853 108.152 32.868 107.888 33.748 107.36C33.924 107.272 34.1147 107.228 34.32 107.228C34.6427 107.228 34.8993 107.353 35.09 107.602C35.266 107.822 35.354 108.057 35.354 108.306C35.354 108.482 35.3027 108.651 35.2 108.812C35.112 108.959 34.9873 109.076 34.826 109.164C34.254 109.487 33.6087 109.743 32.89 109.934C32.186 110.125 31.4893 110.22 30.8 110.22C29.3773 110.22 28.0647 109.905 26.862 109.274C25.674 108.643 24.7207 107.727 24.002 106.524C23.298 105.321 22.946 103.913 22.946 102.3C22.946 100.819 23.2833 99.484 23.958 98.296C24.6473 97.0933 25.586 96.1547 26.774 95.48C27.9767 94.7907 29.3187 94.446 30.8 94.446C32.2227 94.446 33.5573 94.798 34.804 95.502ZM48.5033 104.236C48.5033 105.38 48.2466 106.407 47.7333 107.316C47.22 108.225 46.516 108.937 45.6213 109.45C44.7413 109.963 43.766 110.22 42.6953 110.22C41.6246 110.22 40.642 109.963 39.7473 109.45C38.8673 108.937 38.1706 108.225 37.6573 107.316C37.144 106.407 36.8873 105.38 36.8873 104.236C36.8873 103.092 37.144 102.058 37.6573 101.134C38.1706 100.21 38.8673 99.4913 39.7473 98.978C40.642 98.4647 41.6246 98.208 42.6953 98.208C43.766 98.208 44.7413 98.4647 45.6213 98.978C46.516 99.4913 47.22 100.21 47.7333 101.134C48.2466 102.058 48.5033 103.092 48.5033 104.236ZM46.4133 104.236C46.4133 103.444 46.2446 102.74 45.9073 102.124C45.5846 101.493 45.1373 101.009 44.5653 100.672C44.008 100.32 43.3846 100.144 42.6953 100.144C42.006 100.144 41.3753 100.32 40.8033 100.672C40.246 101.009 39.7986 101.493 39.4613 102.124C39.1386 102.74 38.9773 103.444 38.9773 104.236C38.9773 105.013 39.1386 105.71 39.4613 106.326C39.7986 106.942 40.246 107.426 40.8033 107.778C41.3753 108.115 42.006 108.284 42.6953 108.284C43.3846 108.284 44.008 108.115 44.5653 107.778C45.1373 107.426 45.5846 106.942 45.9073 106.326C46.2446 105.71 46.4133 105.013 46.4133 104.236ZM64.1551 98.274C66.7218 98.274 68.0051 99.8727 68.0051 103.07V108.944C68.0051 109.252 67.9098 109.509 67.7191 109.714C67.5284 109.905 67.2791 110 66.9711 110C66.6631 110 66.4064 109.897 66.2011 109.692C66.0104 109.487 65.9151 109.237 65.9151 108.944V103.092C65.9151 101.171 65.1084 100.21 63.4951 100.21C62.9231 100.21 62.4024 100.342 61.9331 100.606C61.4784 100.855 61.1191 101.2 60.8551 101.64C60.6058 102.08 60.4811 102.564 60.4811 103.092V108.944C60.4811 109.237 60.3784 109.487 60.1731 109.692C59.9824 109.897 59.7331 110 59.4251 110C59.1171 110 58.8678 109.905 58.6771 109.714C58.4864 109.509 58.3911 109.252 58.3911 108.944V103.07C58.3911 102.205 58.2078 101.515 57.8411 101.002C57.4744 100.474 56.8658 100.21 56.0151 100.21C55.1498 100.21 54.4311 100.489 53.8591 101.046C53.3018 101.589 53.0231 102.263 53.0231 103.07V108.944C53.0231 109.237 52.9204 109.487 52.7151 109.692C52.5244 109.897 52.2751 110 51.9671 110C51.6591 110 51.4098 109.905 51.2191 109.714C51.0284 109.509 50.9331 109.252 50.9331 108.944V99.528C50.9331 99.2347 51.0284 98.9853 51.2191 98.78C51.4244 98.5747 51.6738 98.472 51.9671 98.472C52.2751 98.472 52.5244 98.5747 52.7151 98.78C52.9204 98.9853 53.0231 99.2347 53.0231 99.528V100.298C53.4044 99.726 53.9104 99.2493 54.5411 98.868C55.1864 98.472 55.8831 98.274 56.6311 98.274C58.4498 98.274 59.6304 99.0807 60.1731 100.694C60.4958 100.078 61.0311 99.5207 61.7791 99.022C62.5271 98.5233 63.3191 98.274 64.1551 98.274ZM81.2484 103.796C81.2337 104.06 81.1237 104.287 80.9184 104.478C80.7131 104.654 80.4711 104.742 80.1924 104.742H72.4484C72.5511 105.813 72.9544 106.671 73.6584 107.316C74.3771 107.961 75.2497 108.284 76.2764 108.284C76.9804 108.284 77.5524 108.181 77.9924 107.976C78.4324 107.771 78.8211 107.507 79.1584 107.184C79.3784 107.052 79.5911 106.986 79.7964 106.986C80.0457 106.986 80.2511 107.074 80.4124 107.25C80.5884 107.426 80.6764 107.631 80.6764 107.866C80.6764 108.174 80.5297 108.453 80.2364 108.702C79.8111 109.127 79.2464 109.487 78.5424 109.78C77.8384 110.073 77.1197 110.22 76.3864 110.22C75.1984 110.22 74.1497 109.971 73.2404 109.472C72.3457 108.973 71.6491 108.277 71.1504 107.382C70.6664 106.487 70.4244 105.475 70.4244 104.346C70.4244 103.114 70.6737 102.036 71.1724 101.112C71.6857 100.173 72.3531 99.4547 73.1744 98.956C74.0104 98.4573 74.9051 98.208 75.8584 98.208C76.7971 98.208 77.6771 98.45 78.4984 98.934C79.3197 99.418 79.9797 100.085 80.4784 100.936C80.9771 101.787 81.2337 102.74 81.2484 103.796ZM75.8584 100.144C75.0371 100.144 74.3257 100.379 73.7244 100.848C73.1231 101.303 72.7271 102.014 72.5364 102.982H79.0264V102.806C78.9531 102.029 78.6011 101.391 77.9704 100.892C77.3544 100.393 76.6504 100.144 75.8584 100.144ZM96.8973 98.274C99.4639 98.274 100.747 99.8727 100.747 103.07V108.944C100.747 109.252 100.652 109.509 100.461 109.714C100.271 109.905 100.021 110 99.7133 110C99.4053 110 99.1486 109.897 98.9433 109.692C98.7526 109.487 98.6573 109.237 98.6573 108.944V103.092C98.6573 101.171 97.8506 100.21 96.2373 100.21C95.6653 100.21 95.1446 100.342 94.6753 100.606C94.2206 100.855 93.8613 101.2 93.5973 101.64C93.3479 102.08 93.2233 102.564 93.2233 103.092V108.944C93.2233 109.237 93.1206 109.487 92.9153 109.692C92.7246 109.897 92.4753 110 92.1673 110C91.8593 110 91.6099 109.905 91.4193 109.714C91.2286 109.509 91.1333 109.252 91.1333 108.944V103.07C91.1333 102.205 90.9499 101.515 90.5833 101.002C90.2166 100.474 89.6079 100.21 88.7573 100.21C87.8919 100.21 87.1733 100.489 86.6013 101.046C86.0439 101.589 85.7653 102.263 85.7653 103.07V108.944C85.7653 109.237 85.6626 109.487 85.4573 109.692C85.2666 109.897 85.0173 110 84.7093 110C84.4013 110 84.1519 109.905 83.9613 109.714C83.7706 109.509 83.6753 109.252 83.6753 108.944V99.528C83.6753 99.2347 83.7706 98.9853 83.9613 98.78C84.1666 98.5747 84.4159 98.472 84.7093 98.472C85.0173 98.472 85.2666 98.5747 85.4573 98.78C85.6626 98.9853 85.7653 99.2347 85.7653 99.528V100.298C86.1466 99.726 86.6526 99.2493 87.2833 98.868C87.9286 98.472 88.6253 98.274 89.3733 98.274C91.1919 98.274 92.3726 99.0807 92.9153 100.694C93.2379 100.078 93.7733 99.5207 94.5213 99.022C95.2693 98.5233 96.0613 98.274 96.8973 98.274ZM114.783 104.236C114.783 105.38 114.526 106.407 114.013 107.316C113.499 108.225 112.795 108.937 111.901 109.45C111.021 109.963 110.045 110.22 108.975 110.22C107.904 110.22 106.921 109.963 106.027 109.45C105.147 108.937 104.45 108.225 103.937 107.316C103.423 106.407 103.167 105.38 103.167 104.236C103.167 103.092 103.423 102.058 103.937 101.134C104.45 100.21 105.147 99.4913 106.027 98.978C106.921 98.4647 107.904 98.208 108.975 98.208C110.045 98.208 111.021 98.4647 111.901 98.978C112.795 99.4913 113.499 100.21 114.013 101.134C114.526 102.058 114.783 103.092 114.783 104.236ZM112.693 104.236C112.693 103.444 112.524 102.74 112.187 102.124C111.864 101.493 111.417 101.009 110.845 100.672C110.287 100.32 109.664 100.144 108.975 100.144C108.285 100.144 107.655 100.32 107.083 100.672C106.525 101.009 106.078 101.493 105.741 102.124C105.418 102.74 105.257 103.444 105.257 104.236C105.257 105.013 105.418 105.71 105.741 106.326C106.078 106.942 106.525 107.426 107.083 107.778C107.655 108.115 108.285 108.284 108.975 108.284C109.664 108.284 110.287 108.115 110.845 107.778C111.417 107.426 111.864 106.942 112.187 106.326C112.524 105.71 112.693 105.013 112.693 104.236ZM122.954 98.208C123.336 98.208 123.666 98.3107 123.944 98.516C124.223 98.7067 124.362 98.9487 124.362 99.242C124.362 99.594 124.267 99.8653 124.076 100.056C123.9 100.232 123.68 100.32 123.416 100.32C123.284 100.32 123.086 100.276 122.822 100.188C122.514 100.085 122.272 100.034 122.096 100.034C121.642 100.034 121.194 100.195 120.754 100.518C120.329 100.826 119.977 101.259 119.698 101.816C119.434 102.359 119.302 102.967 119.302 103.642V108.944C119.302 109.237 119.2 109.487 118.994 109.692C118.804 109.897 118.554 110 118.246 110C117.938 110 117.689 109.905 117.498 109.714C117.308 109.509 117.212 109.252 117.212 108.944V99.528C117.212 99.2347 117.308 98.9853 117.498 98.78C117.704 98.5747 117.953 98.472 118.246 98.472C118.554 98.472 118.804 98.5747 118.994 98.78C119.2 98.9853 119.302 99.2347 119.302 99.528V100.65C119.625 99.9313 120.109 99.352 120.754 98.912C121.4 98.4573 122.133 98.2227 122.954 98.208ZM135.392 98.318C135.7 98.318 135.95 98.4207 136.14 98.626C136.346 98.8167 136.448 99.0733 136.448 99.396V108.944C136.448 109.237 136.346 109.487 136.14 109.692C135.95 109.897 135.7 110 135.392 110C135.084 110 134.835 109.905 134.644 109.714C134.454 109.509 134.358 109.252 134.358 108.944V108.372C133.977 108.885 133.456 109.325 132.796 109.692C132.136 110.044 131.425 110.22 130.662 110.22C129.665 110.22 128.756 109.963 127.934 109.45C127.128 108.937 126.49 108.225 126.02 107.316C125.566 106.392 125.338 105.358 125.338 104.214C125.338 103.07 125.566 102.043 126.02 101.134C126.49 100.21 127.128 99.4913 127.934 98.978C128.741 98.4647 129.628 98.208 130.596 98.208C131.374 98.208 132.092 98.3693 132.752 98.692C133.427 99.0147 133.962 99.4253 134.358 99.924V99.396C134.358 99.088 134.454 98.8313 134.644 98.626C134.835 98.4207 135.084 98.318 135.392 98.318ZM130.904 108.284C131.594 108.284 132.202 108.108 132.73 107.756C133.273 107.404 133.691 106.92 133.984 106.304C134.292 105.688 134.446 104.991 134.446 104.214C134.446 103.451 134.292 102.762 133.984 102.146C133.691 101.53 133.273 101.046 132.73 100.694C132.202 100.327 131.594 100.144 130.904 100.144C130.215 100.144 129.599 100.32 129.056 100.672C128.528 101.024 128.11 101.508 127.802 102.124C127.509 102.74 127.362 103.437 127.362 104.214C127.362 104.991 127.509 105.688 127.802 106.304C128.11 106.92 128.528 107.404 129.056 107.756C129.599 108.108 130.215 108.284 130.904 108.284ZM148.708 108.284C148.708 108.563 148.539 108.849 148.202 109.142C147.879 109.421 147.432 109.655 146.86 109.846C146.288 110.037 145.665 110.154 144.99 110.198L144 112.662C143.853 113.058 143.604 113.256 143.252 113.256C143.003 113.256 142.731 113.168 142.438 112.992C142.159 112.831 142.02 112.625 142.02 112.376C142.02 112.171 142.093 111.987 142.24 111.826L143.516 110.154C142.577 110.007 141.756 109.663 141.052 109.12C140.348 108.563 139.805 107.866 139.424 107.03C139.043 106.179 138.852 105.241 138.852 104.214C138.852 103.085 139.094 102.065 139.578 101.156C140.062 100.232 140.737 99.5133 141.602 99C142.467 98.472 143.457 98.208 144.572 98.208C145.731 98.208 146.691 98.3913 147.454 98.758C148.231 99.1247 148.62 99.594 148.62 100.166C148.62 100.415 148.539 100.643 148.378 100.848C148.217 101.039 148.011 101.134 147.762 101.134C147.571 101.134 147.417 101.105 147.3 101.046C147.197 100.987 147.051 100.892 146.86 100.76C146.772 100.672 146.633 100.569 146.442 100.452C146.266 100.364 146.017 100.291 145.694 100.232C145.371 100.173 145.078 100.144 144.814 100.144C144.051 100.144 143.377 100.32 142.79 100.672C142.203 101.024 141.749 101.515 141.426 102.146C141.103 102.762 140.942 103.451 140.942 104.214C140.942 104.991 141.096 105.688 141.404 106.304C141.727 106.92 142.174 107.404 142.746 107.756C143.318 108.108 143.971 108.284 144.704 108.284C145.467 108.284 146.083 108.167 146.552 107.932C146.655 107.873 146.794 107.778 146.97 107.646C147.117 107.529 147.241 107.441 147.344 107.382C147.461 107.323 147.601 107.294 147.762 107.294C148.055 107.294 148.283 107.389 148.444 107.58C148.62 107.756 148.708 107.991 148.708 108.284ZM161.769 104.236C161.769 105.38 161.512 106.407 160.999 107.316C160.486 108.225 159.782 108.937 158.887 109.45C158.007 109.963 157.032 110.22 155.961 110.22C154.89 110.22 153.908 109.963 153.013 109.45C152.133 108.937 151.436 108.225 150.923 107.316C150.41 106.407 150.153 105.38 150.153 104.236C150.153 103.092 150.41 102.058 150.923 101.134C151.436 100.21 152.133 99.4913 153.013 98.978C153.908 98.4647 154.89 98.208 155.961 98.208C157.032 98.208 158.007 98.4647 158.887 98.978C159.782 99.4913 160.486 100.21 160.999 101.134C161.512 102.058 161.769 103.092 161.769 104.236ZM159.679 104.236C159.679 103.444 159.51 102.74 159.173 102.124C158.85 101.493 158.403 101.009 157.831 100.672C157.274 100.32 156.65 100.144 155.961 100.144C155.272 100.144 154.641 100.32 154.069 100.672C153.512 101.009 153.064 101.493 152.727 102.124C152.404 102.74 152.243 103.444 152.243 104.236C152.243 105.013 152.404 105.71 152.727 106.326C153.064 106.942 153.512 107.426 154.069 107.778C154.641 108.115 155.272 108.284 155.961 108.284C156.65 108.284 157.274 108.115 157.831 107.778C158.403 107.426 158.85 106.942 159.173 106.326C159.51 105.71 159.679 105.013 159.679 104.236ZM153.057 97.042C152.764 97.042 152.529 96.932 152.353 96.712C152.192 96.492 152.118 96.1767 152.133 95.766C152.177 95.2673 152.412 94.8493 152.837 94.512C153.262 94.1747 153.834 94.006 154.553 94.006C154.876 94.006 155.184 94.0793 155.477 94.226C155.77 94.358 156.122 94.556 156.533 94.82C156.797 94.996 157.017 95.1353 157.193 95.238C157.369 95.326 157.53 95.37 157.677 95.37C157.853 95.37 157.992 95.3187 158.095 95.216C158.198 95.0987 158.242 94.9447 158.227 94.754C158.212 94.71 158.205 94.6367 158.205 94.534C158.205 94.3433 158.271 94.1893 158.403 94.072C158.535 93.9547 158.696 93.896 158.887 93.896C159.18 93.896 159.408 94.006 159.569 94.226C159.745 94.446 159.826 94.7467 159.811 95.128C159.767 95.612 159.554 96.0373 159.173 96.404C158.806 96.756 158.271 96.932 157.567 96.932C157.303 96.932 157.024 96.8733 156.731 96.756C156.452 96.624 156.1 96.4333 155.675 96.184C155.352 95.9933 155.081 95.8467 154.861 95.744C154.656 95.6413 154.472 95.59 154.311 95.59C154.135 95.59 153.988 95.6413 153.871 95.744C153.768 95.8467 153.717 96.0007 153.717 96.206C153.732 96.25 153.739 96.3087 153.739 96.382C153.739 96.5873 153.673 96.7487 153.541 96.866C153.409 96.9833 153.248 97.042 153.057 97.042ZM174.319 103.796C174.304 104.06 174.194 104.287 173.989 104.478C173.783 104.654 173.541 104.742 173.263 104.742H165.519C165.621 105.813 166.025 106.671 166.729 107.316C167.447 107.961 168.32 108.284 169.347 108.284C170.051 108.284 170.623 108.181 171.063 107.976C171.503 107.771 171.891 107.507 172.229 107.184C172.449 107.052 172.661 106.986 172.867 106.986C173.116 106.986 173.321 107.074 173.483 107.25C173.659 107.426 173.747 107.631 173.747 107.866C173.747 108.174 173.6 108.453 173.307 108.702C172.881 109.127 172.317 109.487 171.613 109.78C170.909 110.073 170.19 110.22 169.457 110.22C168.269 110.22 167.22 109.971 166.311 109.472C165.416 108.973 164.719 108.277 164.221 107.382C163.737 106.487 163.495 105.475 163.495 104.346C163.495 103.114 163.744 102.036 164.243 101.112C164.756 100.173 165.423 99.4547 166.245 98.956C167.081 98.4573 167.975 98.208 168.929 98.208C169.867 98.208 170.747 98.45 171.569 98.934C172.39 99.418 173.05 100.085 173.549 100.936C174.047 101.787 174.304 102.74 174.319 103.796ZM168.929 100.144C168.107 100.144 167.396 100.379 166.795 100.848C166.193 101.303 165.797 102.014 165.607 102.982H172.097V102.806C172.023 102.029 171.671 101.391 171.041 100.892C170.425 100.393 169.721 100.144 168.929 100.144ZM176.086 108.196C175.954 107.991 175.888 107.793 175.888 107.602C175.888 107.309 176.042 107.059 176.35 106.854C176.496 106.751 176.665 106.7 176.856 106.7C177.12 106.7 177.362 106.81 177.582 107.03C178.022 107.529 178.491 107.903 178.99 108.152C179.503 108.401 180.112 108.526 180.816 108.526C181.373 108.511 181.864 108.387 182.29 108.152C182.715 107.903 182.928 107.507 182.928 106.964C182.928 106.465 182.708 106.084 182.268 105.82C181.842 105.556 181.212 105.314 180.376 105.094C179.554 104.874 178.872 104.647 178.33 104.412C177.787 104.163 177.325 103.811 176.944 103.356C176.577 102.887 176.394 102.278 176.394 101.53C176.394 100.87 176.577 100.291 176.944 99.792C177.325 99.2933 177.824 98.9047 178.44 98.626C179.07 98.3473 179.752 98.208 180.486 98.208C181.19 98.208 181.886 98.34 182.576 98.604C183.28 98.868 183.852 99.2713 184.292 99.814C184.468 100.019 184.556 100.232 184.556 100.452C184.556 100.687 184.438 100.914 184.204 101.134C184.057 101.266 183.874 101.332 183.654 101.332C183.39 101.332 183.177 101.244 183.016 101.068C182.708 100.716 182.326 100.445 181.872 100.254C181.432 100.063 180.94 99.968 180.398 99.968C179.84 99.968 179.364 100.085 178.968 100.32C178.586 100.54 178.396 100.921 178.396 101.464C178.41 101.977 178.63 102.359 179.056 102.608C179.496 102.857 180.163 103.099 181.058 103.334C181.835 103.539 182.48 103.759 182.994 103.994C183.507 104.229 183.94 104.581 184.292 105.05C184.644 105.505 184.82 106.106 184.82 106.854C184.82 107.543 184.622 108.145 184.226 108.658C183.83 109.157 183.309 109.545 182.664 109.824C182.033 110.088 181.358 110.22 180.64 110.22C179.716 110.22 178.858 110.059 178.066 109.736C177.288 109.413 176.628 108.9 176.086 108.196Z" fill="#4A5248"/>
</svg>
