<svg width="207" height="203" viewBox="0 0 207 203" fill="none" xmlns="http://www.w3.org/2000/svg">
<rect x="-1" width="207.5" height="203" fill="#4A5248"/>
<path d="M57.55 93.525C57.95 93.7417 58.15 94.075 58.15 94.525C58.15 94.825 58.05 95.1 57.85 95.35C57.65 95.6167 57.375 95.75 57.025 95.75C56.7917 95.75 56.5667 95.6917 56.35 95.575C55.3167 94.9917 54.2 94.7 53 94.7C51.75 94.7 50.6417 94.975 49.675 95.525C48.725 96.075 47.9833 96.85 47.45 97.85C46.9167 98.8333 46.65 99.9667 46.65 101.25C46.65 102.633 46.925 103.825 47.475 104.825C48.025 105.825 48.7833 106.592 49.75 107.125C50.7167 107.642 51.8 107.9 53 107.9C54.2333 107.9 55.35 107.6 56.35 107C56.55 106.9 56.7667 106.85 57 106.85C57.3667 106.85 57.6583 106.992 57.875 107.275C58.075 107.525 58.175 107.792 58.175 108.075C58.175 108.275 58.1167 108.467 58 108.65C57.9 108.817 57.7583 108.95 57.575 109.05C56.925 109.417 56.1917 109.708 55.375 109.925C54.575 110.142 53.7833 110.25 53 110.25C51.3833 110.25 49.8917 109.892 48.525 109.175C47.175 108.458 46.0917 107.417 45.275 106.05C44.475 104.683 44.075 103.083 44.075 101.25C44.075 99.5667 44.4583 98.05 45.225 96.7C46.0083 95.3333 47.075 94.2667 48.425 93.5C49.7917 92.7167 51.3167 92.325 53 92.325C54.6167 92.325 56.1333 92.725 57.55 93.525ZM73.1174 103.45C73.1174 104.75 72.8257 105.917 72.2424 106.95C71.659 107.983 70.859 108.792 69.8424 109.375C68.8424 109.958 67.734 110.25 66.5174 110.25C65.3007 110.25 64.184 109.958 63.1674 109.375C62.1674 108.792 61.3757 107.983 60.7924 106.95C60.209 105.917 59.9174 104.75 59.9174 103.45C59.9174 102.15 60.209 100.975 60.7924 99.925C61.3757 98.875 62.1674 98.0583 63.1674 97.475C64.184 96.8917 65.3007 96.6 66.5174 96.6C67.734 96.6 68.8424 96.8917 69.8424 97.475C70.859 98.0583 71.659 98.875 72.2424 99.925C72.8257 100.975 73.1174 102.15 73.1174 103.45ZM70.7424 103.45C70.7424 102.55 70.5507 101.75 70.1674 101.05C69.8007 100.333 69.2924 99.7833 68.6424 99.4C68.009 99 67.3007 98.8 66.5174 98.8C65.734 98.8 65.0174 99 64.3674 99.4C63.734 99.7833 63.2257 100.333 62.8424 101.05C62.4757 101.75 62.2924 102.55 62.2924 103.45C62.2924 104.333 62.4757 105.125 62.8424 105.825C63.2257 106.525 63.734 107.075 64.3674 107.475C65.0174 107.858 65.734 108.05 66.5174 108.05C67.3007 108.05 68.009 107.858 68.6424 107.475C69.2924 107.075 69.8007 106.525 70.1674 105.825C70.5507 105.125 70.7424 104.333 70.7424 103.45ZM82.5535 96.6C85.5535 96.6 87.0535 98.4 87.0535 102V108.8C87.0535 109.133 86.9368 109.417 86.7035 109.65C86.4868 109.883 86.2035 110 85.8535 110C85.5202 110 85.2368 109.883 85.0035 109.65C84.7868 109.417 84.6785 109.133 84.6785 108.8V102.025C84.6785 101.042 84.4535 100.258 84.0035 99.675C83.5535 99.0917 82.8202 98.8 81.8035 98.8C81.1368 98.8 80.5285 98.95 79.9785 99.25C79.4452 99.5333 79.0202 99.925 78.7035 100.425C78.4035 100.908 78.2535 101.442 78.2535 102.025V108.8C78.2535 109.133 78.1368 109.417 77.9035 109.65C77.6868 109.883 77.4035 110 77.0535 110C76.7035 110 76.4202 109.892 76.2035 109.675C75.9868 109.442 75.8785 109.15 75.8785 108.8V98.1C75.8785 97.7667 75.9868 97.4833 76.2035 97.25C76.4368 97.0167 76.7202 96.9 77.0535 96.9C77.4035 96.9 77.6868 97.0167 77.9035 97.25C78.1368 97.4833 78.2535 97.7667 78.2535 98.1V98.975C78.6868 98.3083 79.2868 97.75 80.0535 97.3C80.8368 96.8333 81.6702 96.6 82.5535 96.6ZM89.8502 107.95C89.7002 107.717 89.6252 107.492 89.6252 107.275C89.6252 106.942 89.8002 106.658 90.1502 106.425C90.3169 106.308 90.5085 106.25 90.7252 106.25C91.0252 106.25 91.3002 106.375 91.5502 106.625C92.0502 107.192 92.5835 107.617 93.1502 107.9C93.7335 108.183 94.4252 108.325 95.2252 108.325C95.8585 108.308 96.4169 108.167 96.9002 107.9C97.3835 107.617 97.6252 107.167 97.6252 106.55C97.6252 105.983 97.3752 105.55 96.8752 105.25C96.3919 104.95 95.6752 104.675 94.7252 104.425C93.7919 104.175 93.0169 103.917 92.4002 103.65C91.7835 103.367 91.2585 102.967 90.8252 102.45C90.4085 101.917 90.2002 101.225 90.2002 100.375C90.2002 99.625 90.4085 98.9667 90.8252 98.4C91.2585 97.8333 91.8252 97.3917 92.5252 97.075C93.2419 96.7583 94.0169 96.6 94.8502 96.6C95.6502 96.6 96.4419 96.75 97.2252 97.05C98.0252 97.35 98.6752 97.8083 99.1752 98.425C99.3752 98.6583 99.4752 98.9 99.4752 99.15C99.4752 99.4167 99.3419 99.675 99.0752 99.925C98.9085 100.075 98.7002 100.15 98.4502 100.15C98.1502 100.15 97.9085 100.05 97.7252 99.85C97.3752 99.45 96.9419 99.1417 96.4252 98.925C95.9252 98.7083 95.3669 98.6 94.7502 98.6C94.1169 98.6 93.5752 98.7333 93.1252 99C92.6919 99.25 92.4752 99.6833 92.4752 100.3C92.4919 100.883 92.7419 101.317 93.2252 101.6C93.7252 101.883 94.4835 102.158 95.5002 102.425C96.3835 102.658 97.1169 102.908 97.7002 103.175C98.2835 103.442 98.7752 103.842 99.1752 104.375C99.5752 104.892 99.7752 105.575 99.7752 106.425C99.7752 107.208 99.5502 107.892 99.1002 108.475C98.6502 109.042 98.0585 109.483 97.3252 109.8C96.6085 110.1 95.8419 110.25 95.0252 110.25C93.9752 110.25 93.0002 110.067 92.1002 109.7C91.2169 109.333 90.4669 108.75 89.8502 107.95ZM114.014 102.95C113.998 103.25 113.873 103.508 113.639 103.725C113.406 103.925 113.131 104.025 112.814 104.025H104.014C104.131 105.242 104.589 106.217 105.389 106.95C106.206 107.683 107.198 108.05 108.364 108.05C109.164 108.05 109.814 107.933 110.314 107.7C110.814 107.467 111.256 107.167 111.639 106.8C111.889 106.65 112.131 106.575 112.364 106.575C112.648 106.575 112.881 106.675 113.064 106.875C113.264 107.075 113.364 107.308 113.364 107.575C113.364 107.925 113.198 108.242 112.864 108.525C112.381 109.008 111.739 109.417 110.939 109.75C110.139 110.083 109.323 110.25 108.489 110.25C107.139 110.25 105.948 109.967 104.914 109.4C103.898 108.833 103.106 108.042 102.539 107.025C101.989 106.008 101.714 104.858 101.714 103.575C101.714 102.175 101.998 100.95 102.564 99.9C103.148 98.8333 103.906 98.0167 104.839 97.45C105.789 96.8833 106.806 96.6 107.889 96.6C108.956 96.6 109.956 96.875 110.889 97.425C111.823 97.975 112.573 98.7333 113.139 99.7C113.706 100.667 113.998 101.75 114.014 102.95ZM107.889 98.8C106.956 98.8 106.148 99.0667 105.464 99.6C104.781 100.117 104.331 100.925 104.114 102.025H111.489V101.825C111.406 100.942 111.006 100.217 110.289 99.65C109.589 99.0833 108.789 98.8 107.889 98.8ZM119.347 108.8C119.347 109.133 119.23 109.417 118.997 109.65C118.764 109.883 118.48 110 118.147 110C117.814 110 117.53 109.883 117.297 109.65C117.08 109.417 116.972 109.133 116.972 108.8V92.7C116.972 92.3667 117.089 92.0833 117.322 91.85C117.555 91.6167 117.839 91.5 118.172 91.5C118.505 91.5 118.78 91.6167 118.997 91.85C119.23 92.0833 119.347 92.3667 119.347 92.7V108.8ZM129.62 96.675C132.554 96.675 134.02 98.4917 134.02 102.125V108.8C134.02 109.133 133.904 109.417 133.67 109.65C133.454 109.883 133.17 110 132.82 110C132.487 110 132.204 109.883 131.97 109.65C131.754 109.417 131.645 109.133 131.645 108.8V102.125C131.645 99.9583 130.729 98.875 128.895 98.875C127.912 98.875 127.095 99.1917 126.445 99.825C125.795 100.442 125.47 101.208 125.47 102.125V108.8C125.47 109.133 125.354 109.417 125.12 109.65C124.904 109.883 124.62 110 124.27 110C123.92 110 123.637 109.892 123.42 109.675C123.204 109.442 123.095 109.15 123.095 108.8V92.7C123.095 92.3667 123.204 92.0833 123.42 91.85C123.654 91.6167 123.937 91.5 124.27 91.5C124.62 91.5 124.904 91.6167 125.12 91.85C125.354 92.0833 125.47 92.3667 125.47 92.7V99.025C125.887 98.375 126.47 97.825 127.22 97.375C127.97 96.9083 128.77 96.675 129.62 96.675ZM149.973 103.45C149.973 104.75 149.681 105.917 149.098 106.95C148.515 107.983 147.715 108.792 146.698 109.375C145.698 109.958 144.59 110.25 143.373 110.25C142.156 110.25 141.04 109.958 140.023 109.375C139.023 108.792 138.231 107.983 137.648 106.95C137.065 105.917 136.773 104.75 136.773 103.45C136.773 102.15 137.065 100.975 137.648 99.925C138.231 98.875 139.023 98.0583 140.023 97.475C141.04 96.8917 142.156 96.6 143.373 96.6C144.59 96.6 145.698 96.8917 146.698 97.475C147.715 98.0583 148.515 98.875 149.098 99.925C149.681 100.975 149.973 102.15 149.973 103.45ZM147.598 103.45C147.598 102.55 147.406 101.75 147.023 101.05C146.656 100.333 146.148 99.7833 145.498 99.4C144.865 99 144.156 98.8 143.373 98.8C142.59 98.8 141.873 99 141.223 99.4C140.59 99.7833 140.081 100.333 139.698 101.05C139.331 101.75 139.148 102.55 139.148 103.45C139.148 104.333 139.331 105.125 139.698 105.825C140.081 106.525 140.59 107.075 141.223 107.475C141.873 107.858 142.59 108.05 143.373 108.05C144.156 108.05 144.865 107.858 145.498 107.475C146.148 107.075 146.656 106.525 147.023 105.825C147.406 105.125 147.598 104.333 147.598 103.45ZM151.984 107.95C151.834 107.717 151.759 107.492 151.759 107.275C151.759 106.942 151.934 106.658 152.284 106.425C152.451 106.308 152.642 106.25 152.859 106.25C153.159 106.25 153.434 106.375 153.684 106.625C154.184 107.192 154.717 107.617 155.284 107.9C155.867 108.183 156.559 108.325 157.359 108.325C157.992 108.308 158.551 108.167 159.034 107.9C159.517 107.617 159.759 107.167 159.759 106.55C159.759 105.983 159.509 105.55 159.009 105.25C158.526 104.95 157.809 104.675 156.859 104.425C155.926 104.175 155.151 103.917 154.534 103.65C153.917 103.367 153.392 102.967 152.959 102.45C152.542 101.917 152.334 101.225 152.334 100.375C152.334 99.625 152.542 98.9667 152.959 98.4C153.392 97.8333 153.959 97.3917 154.659 97.075C155.376 96.7583 156.151 96.6 156.984 96.6C157.784 96.6 158.576 96.75 159.359 97.05C160.159 97.35 160.809 97.8083 161.309 98.425C161.509 98.6583 161.609 98.9 161.609 99.15C161.609 99.4167 161.476 99.675 161.209 99.925C161.042 100.075 160.834 100.15 160.584 100.15C160.284 100.15 160.042 100.05 159.859 99.85C159.509 99.45 159.076 99.1417 158.559 98.925C158.059 98.7083 157.501 98.6 156.884 98.6C156.251 98.6 155.709 98.7333 155.259 99C154.826 99.25 154.609 99.6833 154.609 100.3C154.626 100.883 154.876 101.317 155.359 101.6C155.859 101.883 156.617 102.158 157.634 102.425C158.517 102.658 159.251 102.908 159.834 103.175C160.417 103.442 160.909 103.842 161.309 104.375C161.709 104.892 161.909 105.575 161.909 106.425C161.909 107.208 161.684 107.892 161.234 108.475C160.784 109.042 160.192 109.483 159.459 109.8C158.742 110.1 157.976 110.25 157.159 110.25C156.109 110.25 155.134 110.067 154.234 109.7C153.351 109.333 152.601 108.75 151.984 107.95Z" fill="#93E059"/>
</svg>
