<svg width="35" height="35" viewBox="0 0 35 35" fill="none" xmlns="http://www.w3.org/2000/svg">
<path d="M31.1626 0H3.83708C1.72136 0 0 1.38 0 3.07617V31.9238C0 33.62 1.72136 35 3.83708 35H31.1629C33.2786 35 35 33.62 35 31.9238V3.07617C34.9997 1.38 33.2783 0 31.1626 0ZM26.669 23.9258H14.915C14.2085 23.9258 13.6359 23.4668 13.6359 22.9004C13.6359 22.334 14.2085 21.875 14.915 21.875H26.669C27.3755 21.875 27.948 22.334 27.948 22.9004C27.948 23.4668 27.3755 23.9258 26.669 23.9258ZM27.948 28.0957C27.948 28.6621 27.3755 29.1211 26.669 29.1211H14.915C14.2085 29.1211 13.6359 28.6621 13.6359 28.0957C13.6359 27.5293 14.2085 27.0703 14.915 27.0703H26.669C27.3755 27.0703 27.948 27.5293 27.948 28.0957ZM13.0421 10.4758C13.0231 10.4595 13.0048 10.443 12.9871 10.4259C12.5384 9.99035 11.8606 9.33212 11.861 8.39859C11.861 6.86958 13.4128 5.62523 15.32 5.62523C16.1214 5.62523 16.8861 5.85194 17.492 6.24313C18.1538 5.80948 19.0075 5.5809 19.9048 5.62683C21.7025 5.71896 23.123 6.92432 23.139 8.37109C23.1494 9.30195 22.5368 9.96578 21.9922 10.4422C21.9823 10.4512 21.9719 10.4603 21.9613 10.4694L18.4313 13.4783C18.1895 13.6844 17.8524 13.8011 17.5 13.8011C17.4997 13.8011 17.4997 13.8011 17.4997 13.8011C17.1469 13.8011 16.8102 13.6844 16.5684 13.4788L13.0421 10.4758ZM26.669 18.7305H14.915C14.2085 18.7305 13.6359 18.2714 13.6359 17.7051C13.6359 17.1387 14.2085 16.6797 14.915 16.6797H26.669C27.3755 16.6797 27.948 17.1387 27.948 17.7051C27.948 18.2714 27.3755 18.7305 26.669 18.7305ZM9.56338 24.5725C8.41159 24.5725 7.47797 23.8238 7.47797 22.9004C7.47797 21.977 8.41159 21.2283 9.56338 21.2283C10.7155 21.2283 11.6491 21.977 11.6491 22.9004C11.6491 23.8238 10.7155 24.5725 9.56338 24.5725ZM11.6491 28.0957C11.6491 29.0191 10.7155 29.7678 9.56338 29.7678C8.41159 29.7678 7.47797 29.0191 7.47797 28.0957C7.47797 27.1723 8.41159 26.4236 9.56338 26.4236C10.7155 26.4236 11.6491 27.1723 11.6491 28.0957ZM9.56338 19.3772C8.41159 19.3772 7.47797 18.6285 7.47797 17.7051C7.47797 16.7817 8.41159 16.0329 9.56338 16.0329C10.7155 16.0329 11.6491 16.7817 11.6491 17.7051C11.6491 18.6285 10.7155 19.3772 9.56338 19.3772Z" fill="#4A5248"/>
</svg>
