<svg width="35" height="35" viewBox="0 0 35 35" fill="none" xmlns="http://www.w3.org/2000/svg">
<path d="M34.4121 15.5498L18.7088 0.495638C18.0195 -0.165237 16.9801 -0.165165 16.2911 0.495566L0.587755 15.5499C0.0356181 16.0792 -0.146764 16.8948 0.122981 17.6276C0.392795 18.3604 1.04973 18.8339 1.79669 18.8339H4.30478V33.917C4.30478 34.515 4.76566 34.9999 5.33407 34.9999H13.9414C14.5098 34.9999 14.9707 34.5151 14.9707 33.917V24.759H20.0294V33.9171C20.0294 34.5151 20.4903 35 21.0587 35H29.6657C30.2341 35 30.695 34.5152 30.695 33.9171V18.8339H33.2035C33.9504 18.8339 34.6074 18.3603 34.8772 17.6276C35.1466 16.8947 34.9643 16.0792 34.4121 15.5498Z" fill="#4A5248"/>
</svg>
