<svg width="35" height="35" viewBox="0 0 35 35" fill="none" xmlns="http://www.w3.org/2000/svg">
<path d="M18.8445 27.5C18.8445 28.9834 19.3182 30.4334 20.2058 31.6668C21.0934 32.9001 22.355 33.8614 23.831 34.4291C25.307 34.9968 26.9312 35.1453 28.4981 34.8559C30.065 34.5665 31.5044 33.8522 32.634 32.8033C33.7637 31.7544 34.5331 30.418 34.8447 28.9632C35.1564 27.5083 34.9965 26.0003 34.3851 24.6299C33.7737 23.2594 32.7383 22.0881 31.41 21.264C30.0816 20.4399 28.5198 20 26.9222 20C24.7806 20.0022 22.7274 20.7931 21.2131 22.1992C19.6987 23.6052 18.8469 25.5116 18.8445 27.5ZM22.2102 26.875H26.2491V23.125C26.2491 22.9592 26.32 22.8003 26.4462 22.6831C26.5725 22.5658 26.7437 22.5 26.9222 22.5C27.1007 22.5 27.272 22.5658 27.3982 22.6831C27.5244 22.8003 27.5954 22.9592 27.5954 23.125V26.875H31.6342C31.8128 26.875 31.984 26.9408 32.1102 27.0581C32.2365 27.1753 32.3074 27.3342 32.3074 27.5C32.3074 27.6658 32.2365 27.8247 32.1102 27.9419C31.984 28.0592 31.8128 28.125 31.6342 28.125H27.5954V31.875C27.5954 32.0408 27.5244 32.1997 27.3982 32.3169C27.272 32.4342 27.1007 32.5 26.9222 32.5C26.7437 32.5 26.5725 32.4342 26.4462 32.3169C26.32 32.1997 26.2491 32.0408 26.2491 31.875V28.125H22.2102C22.0317 28.125 21.8605 28.0592 21.7342 27.9419C21.608 27.8247 21.5371 27.6658 21.5371 27.5C21.5371 27.3342 21.608 27.1753 21.7342 27.0581C21.8605 26.9408 22.0317 26.875 22.2102 26.875Z" fill="#4A5248"/>
<path d="M18.895 32.0791C18.1077 30.8909 17.6379 29.5451 17.5249 28.154C17.4119 26.7629 17.659 25.3668 18.2455 24.0824C18.832 22.798 19.7409 21.6625 20.8963 20.7707C22.0518 19.8789 23.4202 19.2567 24.8874 18.956C22.2691 15.6359 18.3994 13.75 14.1325 13.75C10.3021 13.75 6.76342 15.2723 4.16828 18.0363C1.55454 20.8202 0.081703 24.7004 0 28.9966C1.54529 29.7201 7.8901 32.5 14.1325 32.5C15.7305 32.4945 17.3246 32.3537 18.895 32.0791Z" fill="#4A5248"/>
<path d="M14.1324 12.5C17.8501 12.5 20.8639 9.70178 20.8639 6.25C20.8639 2.79822 17.8501 0 14.1324 0C10.4148 0 7.401 2.79822 7.401 6.25C7.401 9.70178 10.4148 12.5 14.1324 12.5Z" fill="#4A5248"/>
</svg>
