<svg width="207" height="203" viewBox="0 0 207 203" fill="none" xmlns="http://www.w3.org/2000/svg">
<rect x="-1" width="207.5" height="203" fill="#93E059"/>
<path d="M62.4 109C62.5667 109.117 62.7 109.267 62.8 109.45C62.9 109.617 62.95 109.792 62.95 109.975C62.95 110.325 62.8333 110.583 62.6 110.75C62.3833 110.917 62.1167 111 61.8 111C61.4833 111 61.2167 110.933 61 110.8C60.5 110.517 60.0917 110.058 59.775 109.425C59.4583 108.792 59.3 107.858 59.3 106.625C59.3 105.792 59.05 105.175 58.55 104.775C58.05 104.375 57.4 104.175 56.6 104.175H51.55V109.8C51.55 110.15 51.45 110.442 51.25 110.675C51.05 110.892 50.7917 111 50.475 111C50.0917 111 49.7583 110.883 49.475 110.65C49.2083 110.417 49.075 110.133 49.075 109.8V94.7C49.075 94.3667 49.1917 94.0833 49.425 93.85C49.6583 93.6167 49.9417 93.5 50.275 93.5H57.3C58.2 93.5 59.025 93.725 59.775 94.175C60.525 94.6083 61.125 95.2167 61.575 96C62.025 96.7667 62.25 97.6333 62.25 98.6C62.25 99.5333 62 100.408 61.5 101.225C61 102.025 60.3583 102.625 59.575 103.025C60.1917 103.342 60.675 103.783 61.025 104.35C61.3917 104.917 61.5917 105.575 61.625 106.325C61.6917 107.275 61.7667 107.925 61.85 108.275C61.9333 108.608 62.1167 108.85 62.4 109ZM57.25 102.1C57.6667 102.067 58.0583 101.9 58.425 101.6C58.8083 101.3 59.1167 100.9 59.35 100.4C59.5833 99.8833 59.7 99.3083 59.7 98.675C59.7 97.875 59.45 97.2 58.95 96.65C58.4667 96.0833 57.875 95.8 57.175 95.8H51.55V102.1H57.25ZM77.1451 103.95C77.1285 104.25 77.0035 104.508 76.7701 104.725C76.5368 104.925 76.2618 105.025 75.9451 105.025H67.1451C67.2618 106.242 67.7201 107.217 68.5201 107.95C69.3368 108.683 70.3285 109.05 71.4951 109.05C72.2951 109.05 72.9451 108.933 73.4451 108.7C73.9451 108.467 74.3868 108.167 74.7701 107.8C75.0201 107.65 75.2618 107.575 75.4951 107.575C75.7785 107.575 76.0118 107.675 76.1951 107.875C76.3951 108.075 76.4951 108.308 76.4951 108.575C76.4951 108.925 76.3285 109.242 75.9951 109.525C75.5118 110.008 74.8701 110.417 74.0701 110.75C73.2701 111.083 72.4535 111.25 71.6201 111.25C70.2701 111.25 69.0785 110.967 68.0451 110.4C67.0285 109.833 66.2368 109.042 65.6701 108.025C65.1201 107.008 64.8451 105.858 64.8451 104.575C64.8451 103.175 65.1285 101.95 65.6951 100.9C66.2785 99.8333 67.0368 99.0167 67.9701 98.45C68.9201 97.8833 69.9368 97.6 71.0201 97.6C72.0868 97.6 73.0868 97.875 74.0201 98.425C74.9535 98.975 75.7035 99.7333 76.2701 100.7C76.8368 101.667 77.1285 102.75 77.1451 103.95ZM71.0201 99.8C70.0868 99.8 69.2785 100.067 68.5951 100.6C67.9118 101.117 67.4618 101.925 67.2451 103.025H74.6201V102.825C74.5368 101.942 74.1368 101.217 73.4201 100.65C72.7201 100.083 71.9201 99.8 71.0201 99.8ZM89.6529 97.9C90.0029 97.9 90.2863 98.0167 90.5029 98.25C90.7363 98.4833 90.8529 98.7667 90.8529 99.1V105.75C90.8529 107.483 90.3696 108.833 89.4029 109.8C88.4529 110.75 87.1029 111.225 85.3529 111.225C83.6196 111.225 82.2779 110.75 81.3279 109.8C80.3779 108.833 79.9029 107.483 79.9029 105.75V99.1C79.9029 98.7667 80.0113 98.4833 80.2279 98.25C80.4613 98.0167 80.7446 97.9 81.0779 97.9C81.4279 97.9 81.7113 98.0167 81.9279 98.25C82.1613 98.4833 82.2779 98.7667 82.2779 99.1V105.75C82.2779 107.933 83.3029 109.025 85.3529 109.025C86.3696 109.025 87.1446 108.75 87.6779 108.2C88.2113 107.65 88.4779 106.833 88.4779 105.75V99.1C88.4779 98.7667 88.5863 98.4833 88.8029 98.25C89.0363 98.0167 89.3196 97.9 89.6529 97.9ZM101.08 97.6C104.08 97.6 105.58 99.4 105.58 103V109.8C105.58 110.133 105.463 110.417 105.23 110.65C105.013 110.883 104.73 111 104.38 111C104.047 111 103.763 110.883 103.53 110.65C103.313 110.417 103.205 110.133 103.205 109.8V103.025C103.205 102.042 102.98 101.258 102.53 100.675C102.08 100.092 101.347 99.8 100.33 99.8C99.6632 99.8 99.0549 99.95 98.5049 100.25C97.9715 100.533 97.5465 100.925 97.2299 101.425C96.9299 101.908 96.7799 102.442 96.7799 103.025V109.8C96.7799 110.133 96.6632 110.417 96.4299 110.65C96.2132 110.883 95.9299 111 95.5799 111C95.2299 111 94.9465 110.892 94.7299 110.675C94.5132 110.442 94.4049 110.15 94.4049 109.8V99.1C94.4049 98.7667 94.5132 98.4833 94.7299 98.25C94.9632 98.0167 95.2465 97.9 95.5799 97.9C95.9299 97.9 96.2132 98.0167 96.4299 98.25C96.6632 98.4833 96.7799 98.7667 96.7799 99.1V99.975C97.2132 99.3083 97.8132 98.75 98.5799 98.3C99.3632 97.8333 100.197 97.6 101.08 97.6ZM111.377 109.8C111.377 110.133 111.26 110.417 111.027 110.65C110.81 110.883 110.527 111 110.177 111C109.843 111 109.56 110.883 109.327 110.65C109.11 110.417 109.002 110.133 109.002 109.8V98.975C109.002 98.6417 109.11 98.3583 109.327 98.125C109.56 97.8917 109.843 97.775 110.177 97.775C110.527 97.775 110.81 97.8917 111.027 98.125C111.26 98.3583 111.377 98.6417 111.377 98.975V109.8ZM110.177 96.125C109.693 96.125 109.343 96.0417 109.127 95.875C108.927 95.6917 108.827 95.4083 108.827 95.025V94.625C108.827 94.225 108.935 93.9417 109.152 93.775C109.385 93.6083 109.735 93.525 110.202 93.525C110.668 93.525 111.002 93.6167 111.202 93.8C111.418 93.9667 111.527 94.2417 111.527 94.625V95.025C111.527 95.425 111.418 95.7083 111.202 95.875C110.985 96.0417 110.643 96.125 110.177 96.125ZM127.191 104.45C127.191 105.75 126.899 106.917 126.316 107.95C125.732 108.983 124.932 109.792 123.916 110.375C122.916 110.958 121.807 111.25 120.591 111.25C119.374 111.25 118.257 110.958 117.241 110.375C116.241 109.792 115.449 108.983 114.866 107.95C114.282 106.917 113.991 105.75 113.991 104.45C113.991 103.15 114.282 101.975 114.866 100.925C115.449 99.875 116.241 99.0583 117.241 98.475C118.257 97.8917 119.374 97.6 120.591 97.6C121.807 97.6 122.916 97.8917 123.916 98.475C124.932 99.0583 125.732 99.875 126.316 100.925C126.899 101.975 127.191 103.15 127.191 104.45ZM124.816 104.45C124.816 103.55 124.624 102.75 124.241 102.05C123.874 101.333 123.366 100.783 122.716 100.4C122.082 100 121.374 99.8 120.591 99.8C119.807 99.8 119.091 100 118.441 100.4C117.807 100.783 117.299 101.333 116.916 102.05C116.549 102.75 116.366 103.55 116.366 104.45C116.366 105.333 116.549 106.125 116.916 106.825C117.299 107.525 117.807 108.075 118.441 108.475C119.091 108.858 119.807 109.05 120.591 109.05C121.374 109.05 122.082 108.858 122.716 108.475C123.366 108.075 123.874 107.525 124.241 106.825C124.624 106.125 124.816 105.333 124.816 104.45ZM117.291 96.275C116.957 96.275 116.691 96.15 116.491 95.9C116.307 95.65 116.224 95.2917 116.241 94.825C116.291 94.2583 116.557 93.7833 117.041 93.4C117.524 93.0167 118.174 92.825 118.991 92.825C119.357 92.825 119.707 92.9083 120.041 93.075C120.374 93.225 120.774 93.45 121.241 93.75C121.541 93.95 121.791 94.1083 121.991 94.225C122.191 94.325 122.374 94.375 122.541 94.375C122.741 94.375 122.899 94.3167 123.016 94.2C123.132 94.0667 123.182 93.8917 123.166 93.675C123.149 93.625 123.141 93.5417 123.141 93.425C123.141 93.2083 123.216 93.0333 123.366 92.9C123.516 92.7667 123.699 92.7 123.916 92.7C124.249 92.7 124.507 92.825 124.691 93.075C124.891 93.325 124.982 93.6667 124.966 94.1C124.916 94.65 124.674 95.1333 124.241 95.55C123.824 95.95 123.216 96.15 122.416 96.15C122.116 96.15 121.799 96.0833 121.466 95.95C121.149 95.8 120.749 95.5833 120.266 95.3C119.899 95.0833 119.591 94.9167 119.341 94.8C119.107 94.6833 118.899 94.625 118.716 94.625C118.516 94.625 118.349 94.6833 118.216 94.8C118.099 94.9167 118.041 95.0917 118.041 95.325C118.057 95.375 118.066 95.4417 118.066 95.525C118.066 95.7583 117.991 95.9417 117.841 96.075C117.691 96.2083 117.507 96.275 117.291 96.275ZM141.452 103.95C141.435 104.25 141.31 104.508 141.077 104.725C140.843 104.925 140.568 105.025 140.252 105.025H131.452C131.568 106.242 132.027 107.217 132.827 107.95C133.643 108.683 134.635 109.05 135.802 109.05C136.602 109.05 137.252 108.933 137.752 108.7C138.252 108.467 138.693 108.167 139.077 107.8C139.327 107.65 139.568 107.575 139.802 107.575C140.085 107.575 140.318 107.675 140.502 107.875C140.702 108.075 140.802 108.308 140.802 108.575C140.802 108.925 140.635 109.242 140.302 109.525C139.818 110.008 139.177 110.417 138.377 110.75C137.577 111.083 136.76 111.25 135.927 111.25C134.577 111.25 133.385 110.967 132.352 110.4C131.335 109.833 130.543 109.042 129.977 108.025C129.427 107.008 129.152 105.858 129.152 104.575C129.152 103.175 129.435 101.95 130.002 100.9C130.585 99.8333 131.343 99.0167 132.277 98.45C133.227 97.8833 134.243 97.6 135.327 97.6C136.393 97.6 137.393 97.875 138.327 98.425C139.26 98.975 140.01 99.7333 140.577 100.7C141.143 101.667 141.435 102.75 141.452 103.95ZM135.327 99.8C134.393 99.8 133.585 100.067 132.902 100.6C132.218 101.117 131.768 101.925 131.552 103.025H138.927V102.825C138.843 101.942 138.443 101.217 137.727 100.65C137.027 100.083 136.227 99.8 135.327 99.8ZM143.46 108.95C143.31 108.717 143.235 108.492 143.235 108.275C143.235 107.942 143.41 107.658 143.76 107.425C143.926 107.308 144.118 107.25 144.335 107.25C144.635 107.25 144.91 107.375 145.16 107.625C145.66 108.192 146.193 108.617 146.76 108.9C147.343 109.183 148.035 109.325 148.835 109.325C149.468 109.308 150.026 109.167 150.51 108.9C150.993 108.617 151.235 108.167 151.235 107.55C151.235 106.983 150.985 106.55 150.485 106.25C150.001 105.95 149.285 105.675 148.335 105.425C147.401 105.175 146.626 104.917 146.01 104.65C145.393 104.367 144.868 103.967 144.435 103.45C144.018 102.917 143.81 102.225 143.81 101.375C143.81 100.625 144.018 99.9667 144.435 99.4C144.868 98.8333 145.435 98.3917 146.135 98.075C146.851 97.7583 147.626 97.6 148.46 97.6C149.26 97.6 150.051 97.75 150.835 98.05C151.635 98.35 152.285 98.8083 152.785 99.425C152.985 99.6583 153.085 99.9 153.085 100.15C153.085 100.417 152.951 100.675 152.685 100.925C152.518 101.075 152.31 101.15 152.06 101.15C151.76 101.15 151.518 101.05 151.335 100.85C150.985 100.45 150.551 100.142 150.035 99.925C149.535 99.7083 148.976 99.6 148.36 99.6C147.726 99.6 147.185 99.7333 146.735 100C146.301 100.25 146.085 100.683 146.085 101.3C146.101 101.883 146.351 102.317 146.835 102.6C147.335 102.883 148.093 103.158 149.11 103.425C149.993 103.658 150.726 103.908 151.31 104.175C151.893 104.442 152.385 104.842 152.785 105.375C153.185 105.892 153.385 106.575 153.385 107.425C153.385 108.208 153.16 108.892 152.71 109.475C152.26 110.042 151.668 110.483 150.935 110.8C150.218 111.1 149.451 111.25 148.635 111.25C147.585 111.25 146.61 111.067 145.71 110.7C144.826 110.333 144.076 109.75 143.46 108.95Z" fill="#4A5248"/>
</svg>
