<svg width="35" height="38" viewBox="0 0 35 38" fill="none" xmlns="http://www.w3.org/2000/svg">
<path d="M25.3444 2.87966H21.9049C21.4757 2.86892 21.1069 2.63038 20.9997 2.29436C20.6738 0.925536 19.1629 -0.047418 17.4396 0.00178519C15.7058 -0.0227697 14.2024 0.965962 13.8794 2.34319C13.7679 2.66996 13.3933 2.89198 12.9743 2.87975H9.6554V7.75759H25.3444V2.87966Z" fill="#4A5248"/>
<path d="M34.9992 35.7563V7.80635C35.0029 6.70185 33.8982 5.80405 32.5318 5.80107C32.4692 5.80097 32.4066 5.80275 32.3441 5.80639H27.1546V8.29409C27.1546 8.68435 26.853 9.22092 26.3702 9.22092H8.56923C8.08644 9.22092 7.84516 8.68435 7.84516 8.29409V5.80648H2.65568C1.29302 5.72563 0.107191 6.55312 0.00728393 7.65473C0.00266397 7.70524 0.000469584 7.75584 0.000700582 7.80645V35.7564C-0.0330251 36.9684 1.15511 37.973 2.65441 38.0001C2.65487 38.0001 2.65533 38.0001 2.65579 38.0001H32.3442C33.8435 37.9735 35.0322 36.9694 34.9993 35.7574C34.9992 35.757 34.9992 35.7567 34.9992 35.7563ZM12.6122 29.3176L7.90545 32.8784C7.75496 33.024 7.53632 33.1123 7.30209 33.1223C7.04995 33.1143 6.81168 33.0267 6.63831 32.8784L4.16432 30.8297C3.8355 30.5321 3.86241 30.0764 4.22462 29.8054C4.57654 29.5265 5.13983 29.5265 5.49176 29.8054L7.30197 31.3663L11.4053 28.2444C11.8167 28.015 12.3805 28.0984 12.6644 28.431C12.8961 28.7023 12.8746 29.0653 12.6122 29.3176ZM12.6122 21.513L7.90545 25.0739C7.75496 25.2194 7.53632 25.3078 7.30209 25.3177C7.04995 25.3097 6.81168 25.2221 6.63831 25.0739L4.16432 23.0252C3.8355 22.7275 3.86241 22.2718 4.22462 22.0009C4.57654 21.722 5.13983 21.722 5.49176 22.0009L7.30197 23.5617L11.4053 20.4399C11.8167 20.2104 12.3805 20.2939 12.6644 20.6264C12.8961 20.8978 12.8746 21.2608 12.6122 21.513ZM12.6122 13.7085L7.90545 17.2693C7.75496 17.4149 7.53632 17.5032 7.30209 17.5132C7.04995 17.5052 6.81168 17.4176 6.63831 17.2693L4.16432 15.2206C3.8355 14.923 3.86241 14.4673 4.22462 14.1963C4.57654 13.9174 5.13983 13.9174 5.49176 14.1963L7.30197 15.7572L11.4053 12.6354C11.8167 12.4059 12.3805 12.4893 12.6644 12.8219C12.8961 13.0932 12.8746 13.4562 12.6122 13.7085ZM30.1718 32.1467H16.293C15.7931 32.1467 15.3878 31.8191 15.3878 31.415C15.3878 31.0109 15.7931 30.6833 16.293 30.6833H30.1717C30.6716 30.6833 31.0769 31.0109 31.0769 31.415C31.0769 31.8191 30.6717 32.1467 30.1718 32.1467ZM30.1718 24.3422H16.293C15.7931 24.3422 15.3878 24.0146 15.3878 23.6105C15.3878 23.2064 15.7931 22.8788 16.293 22.8788H30.1717C30.6716 22.8788 31.0769 23.2064 31.0769 23.6105C31.0769 24.0146 30.6717 24.3422 30.1718 24.3422ZM30.1718 16.5376H16.293C15.7931 16.5376 15.3878 16.21 15.3878 15.8059C15.3878 15.4019 15.7931 15.0742 16.293 15.0742H30.1717C30.6716 15.0742 31.0769 15.4019 31.0769 15.8059C31.0769 16.2101 30.6717 16.5376 30.1718 16.5376Z" fill="#4A5248"/>
</svg>
