<svg width="207" height="203" viewBox="0 0 207 203" fill="none" xmlns="http://www.w3.org/2000/svg">
<rect width="208" height="203" fill="#4A5248"/>
<path d="M73.8 93.475C74.1333 93.475 74.4167 93.5833 74.65 93.8C74.9 94.0167 75.025 94.2833 75.025 94.6C75.025 94.7667 74.9833 94.95 74.9 95.15L68.525 110.225C68.4083 110.475 68.2417 110.667 68.025 110.8C67.8083 110.933 67.5833 111 67.35 111C67.1333 110.983 66.925 110.917 66.725 110.8C66.5417 110.667 66.3917 110.483 66.275 110.25L59.9 95.15C59.8333 95.0167 59.8 94.8417 59.8 94.625C59.8 94.275 59.925 93.9917 60.175 93.775C60.425 93.5583 60.7 93.45 61 93.45C61.5 93.45 61.8667 93.7167 62.1 94.25L67.55 107.125L72.7 94.225C72.8167 93.9917 72.9667 93.8083 73.15 93.675C73.35 93.5417 73.5667 93.475 73.8 93.475ZM79.8219 109.8C79.8219 110.133 79.7052 110.417 79.4719 110.65C79.2552 110.883 78.9719 111 78.6219 111C78.2885 111 78.0052 110.883 77.7719 110.65C77.5552 110.417 77.4469 110.133 77.4469 109.8V98.975C77.4469 98.6417 77.5552 98.3583 77.7719 98.125C78.0052 97.8917 78.2885 97.775 78.6219 97.775C78.9719 97.775 79.2552 97.8917 79.4719 98.125C79.7052 98.3583 79.8219 98.6417 79.8219 98.975V109.8ZM78.6219 96.125C78.1385 96.125 77.7885 96.0417 77.5719 95.875C77.3719 95.6917 77.2719 95.4083 77.2719 95.025V94.625C77.2719 94.225 77.3802 93.9417 77.5969 93.775C77.8302 93.6083 78.1802 93.525 78.6469 93.525C79.1135 93.525 79.4469 93.6167 79.6469 93.8C79.8635 93.9667 79.9719 94.2417 79.9719 94.625V95.025C79.9719 95.425 79.8635 95.7083 79.6469 95.875C79.4302 96.0417 79.0885 96.125 78.6219 96.125ZM93.8609 97.725C94.2109 97.725 94.4943 97.8417 94.7109 98.075C94.9443 98.2917 95.0609 98.5833 95.0609 98.95V109.8C95.0609 110.133 94.9443 110.417 94.7109 110.65C94.4943 110.883 94.2109 111 93.8609 111C93.5109 111 93.2276 110.892 93.0109 110.675C92.7943 110.442 92.6859 110.15 92.6859 109.8V109.15C92.2526 109.733 91.6609 110.233 90.9109 110.65C90.1609 111.05 89.3526 111.25 88.4859 111.25C87.3526 111.25 86.3193 110.958 85.3859 110.375C84.4693 109.792 83.7443 108.983 83.2109 107.95C82.6943 106.9 82.4359 105.725 82.4359 104.425C82.4359 103.125 82.6943 101.958 83.2109 100.925C83.7443 99.875 84.4693 99.0583 85.3859 98.475C86.3026 97.8917 87.3109 97.6 88.4109 97.6C89.2943 97.6 90.1109 97.7833 90.8609 98.15C91.6276 98.5167 92.2359 98.9833 92.6859 99.55V98.95C92.6859 98.6 92.7943 98.3083 93.0109 98.075C93.2276 97.8417 93.5109 97.725 93.8609 97.725ZM88.7609 109.05C89.5443 109.05 90.2359 108.85 90.8359 108.45C91.4526 108.05 91.9276 107.5 92.2609 106.8C92.6109 106.1 92.7859 105.308 92.7859 104.425C92.7859 103.558 92.6109 102.775 92.2609 102.075C91.9276 101.375 91.4526 100.825 90.8359 100.425C90.2359 100.008 89.5443 99.8 88.7609 99.8C87.9776 99.8 87.2776 100 86.6609 100.4C86.0609 100.8 85.5859 101.35 85.2359 102.05C84.9026 102.75 84.7359 103.542 84.7359 104.425C84.7359 105.308 84.9026 106.1 85.2359 106.8C85.5859 107.5 86.0609 108.05 86.6609 108.45C87.2776 108.85 87.9776 109.05 88.7609 109.05ZM97.4174 115.925C97.1007 115.925 96.8424 115.817 96.6424 115.6C96.4257 115.383 96.3174 115.125 96.3174 114.825V114.6C96.3174 114.05 96.659 113.692 97.3424 113.525C98.409 113.225 98.9424 112.392 98.9424 111.025V99.1C98.9424 98.7667 99.0507 98.4833 99.2674 98.25C99.5007 98.0167 99.7924 97.9 100.142 97.9C100.476 97.9 100.751 98.0167 100.967 98.25C101.201 98.4833 101.317 98.7667 101.317 99.1V111.625C101.317 112.492 101.134 113.25 100.767 113.9C100.417 114.55 99.9424 115.05 99.3424 115.4C98.7424 115.75 98.1007 115.925 97.4174 115.925ZM100.117 96.125C99.634 96.125 99.284 96.0417 99.0674 95.875C98.8674 95.6917 98.7674 95.4083 98.7674 95.025V94.625C98.7674 94.225 98.8757 93.9417 99.0924 93.775C99.3257 93.6083 99.6757 93.525 100.142 93.525C100.609 93.525 100.942 93.6167 101.142 93.8C101.359 93.9667 101.467 94.2417 101.467 94.625V95.025C101.467 95.425 101.359 95.7083 101.142 95.875C100.926 96.0417 100.584 96.125 100.117 96.125ZM116.928 103.95C116.912 104.25 116.787 104.508 116.553 104.725C116.32 104.925 116.045 105.025 115.728 105.025H106.928C107.045 106.242 107.503 107.217 108.303 107.95C109.12 108.683 110.112 109.05 111.278 109.05C112.078 109.05 112.728 108.933 113.228 108.7C113.728 108.467 114.17 108.167 114.553 107.8C114.803 107.65 115.045 107.575 115.278 107.575C115.562 107.575 115.795 107.675 115.978 107.875C116.178 108.075 116.278 108.308 116.278 108.575C116.278 108.925 116.112 109.242 115.778 109.525C115.295 110.008 114.653 110.417 113.853 110.75C113.053 111.083 112.237 111.25 111.403 111.25C110.053 111.25 108.862 110.967 107.828 110.4C106.812 109.833 106.02 109.042 105.453 108.025C104.903 107.008 104.628 105.858 104.628 104.575C104.628 103.175 104.912 101.95 105.478 100.9C106.062 99.8333 106.82 99.0167 107.753 98.45C108.703 97.8833 109.72 97.6 110.803 97.6C111.87 97.6 112.87 97.875 113.803 98.425C114.737 98.975 115.487 99.7333 116.053 100.7C116.62 101.667 116.912 102.75 116.928 103.95ZM110.803 99.8C109.87 99.8 109.062 100.067 108.378 100.6C107.695 101.117 107.245 101.925 107.028 103.025H114.403V102.825C114.32 101.942 113.92 101.217 113.203 100.65C112.503 100.083 111.703 99.8 110.803 99.8ZM126.361 97.6C129.361 97.6 130.861 99.4 130.861 103V109.8C130.861 110.133 130.744 110.417 130.511 110.65C130.294 110.883 130.011 111 129.661 111C129.328 111 129.044 110.883 128.811 110.65C128.594 110.417 128.486 110.133 128.486 109.8V103.025C128.486 102.042 128.261 101.258 127.811 100.675C127.361 100.092 126.628 99.8 125.611 99.8C124.944 99.8 124.336 99.95 123.786 100.25C123.253 100.533 122.828 100.925 122.511 101.425C122.211 101.908 122.061 102.442 122.061 103.025V109.8C122.061 110.133 121.944 110.417 121.711 110.65C121.494 110.883 121.211 111 120.861 111C120.511 111 120.228 110.892 120.011 110.675C119.794 110.442 119.686 110.15 119.686 109.8V99.1C119.686 98.7667 119.794 98.4833 120.011 98.25C120.244 98.0167 120.528 97.9 120.861 97.9C121.211 97.9 121.494 98.0167 121.711 98.25C121.944 98.4833 122.061 98.7667 122.061 99.1V99.975C122.494 99.3083 123.094 98.75 123.861 98.3C124.644 97.8333 125.478 97.6 126.361 97.6ZM133.658 108.95C133.508 108.717 133.433 108.492 133.433 108.275C133.433 107.942 133.608 107.658 133.958 107.425C134.124 107.308 134.316 107.25 134.533 107.25C134.833 107.25 135.108 107.375 135.358 107.625C135.858 108.192 136.391 108.617 136.958 108.9C137.541 109.183 138.233 109.325 139.033 109.325C139.666 109.308 140.224 109.167 140.708 108.9C141.191 108.617 141.433 108.167 141.433 107.55C141.433 106.983 141.183 106.55 140.683 106.25C140.199 105.95 139.483 105.675 138.533 105.425C137.599 105.175 136.824 104.917 136.208 104.65C135.591 104.367 135.066 103.967 134.633 103.45C134.216 102.917 134.008 102.225 134.008 101.375C134.008 100.625 134.216 99.9667 134.633 99.4C135.066 98.8333 135.633 98.3917 136.333 98.075C137.049 97.7583 137.824 97.6 138.658 97.6C139.458 97.6 140.249 97.75 141.033 98.05C141.833 98.35 142.483 98.8083 142.983 99.425C143.183 99.6583 143.283 99.9 143.283 100.15C143.283 100.417 143.149 100.675 142.883 100.925C142.716 101.075 142.508 101.15 142.258 101.15C141.958 101.15 141.716 101.05 141.533 100.85C141.183 100.45 140.749 100.142 140.233 99.925C139.733 99.7083 139.174 99.6 138.558 99.6C137.924 99.6 137.383 99.7333 136.933 100C136.499 100.25 136.283 100.683 136.283 101.3C136.299 101.883 136.549 102.317 137.033 102.6C137.533 102.883 138.291 103.158 139.308 103.425C140.191 103.658 140.924 103.908 141.508 104.175C142.091 104.442 142.583 104.842 142.983 105.375C143.383 105.892 143.583 106.575 143.583 107.425C143.583 108.208 143.358 108.892 142.908 109.475C142.458 110.042 141.866 110.483 141.133 110.8C140.416 111.1 139.649 111.25 138.833 111.25C137.783 111.25 136.808 111.067 135.908 110.7C135.024 110.333 134.274 109.75 133.658 108.95Z" fill="#93E059"/>
</svg>
